<svg width="143" height="39" viewBox="0 0 143 39" fill="none" xmlns="http://www.w3.org/2000/svg">
<path d="M48.64 25C48.5547 25 48.48 24.968 48.416 24.904C48.352 24.84 48.32 24.7653 48.32 24.68C48.32 24.5947 48.3253 24.536 48.336 24.504L52.304 14.152C52.3893 13.9173 52.56 13.8 52.816 13.8H53.904C54.16 13.8 54.3307 13.9173 54.416 14.152L58.368 24.504L58.4 24.68C58.4 24.7653 58.368 24.84 58.304 24.904C58.24 24.968 58.1653 25 58.08 25H57.264C57.1467 25 57.056 24.9733 56.992 24.92C56.928 24.856 56.8853 24.792 56.864 24.728L55.984 22.456H50.736L49.856 24.728C49.8347 24.792 49.7867 24.856 49.712 24.92C49.648 24.9733 49.5627 25 49.456 25H48.64ZM55.52 21.08L53.36 15.4L51.2 21.08H55.52ZM63.137 25.16C62.0383 25.16 61.1583 24.824 60.497 24.152C59.8463 23.4693 59.489 22.5413 59.425 21.368L59.409 20.824L59.425 20.296C59.4997 19.144 59.8623 18.2267 60.513 17.544C61.1743 16.8613 62.0437 16.52 63.121 16.52C64.305 16.52 65.2223 16.8987 65.873 17.656C66.5237 18.4027 66.849 19.416 66.849 20.696V20.968C66.849 21.0747 66.8117 21.1653 66.737 21.24C66.673 21.304 66.5877 21.336 66.481 21.336H60.945V21.48C60.977 22.1733 61.185 22.7653 61.569 23.256C61.9637 23.736 62.481 23.976 63.121 23.976C63.6117 23.976 64.0117 23.88 64.321 23.688C64.641 23.4853 64.8757 23.2773 65.025 23.064C65.121 22.936 65.1903 22.8613 65.233 22.84C65.2863 22.808 65.377 22.792 65.505 22.792H66.289C66.385 22.792 66.465 22.8187 66.529 22.872C66.593 22.9253 66.625 23 66.625 23.096C66.625 23.3307 66.4757 23.6133 66.177 23.944C65.889 24.2747 65.4783 24.5627 64.945 24.808C64.4223 25.0427 63.8197 25.16 63.137 25.16ZM65.329 20.232V20.184C65.329 19.448 65.1263 18.8507 64.721 18.392C64.3263 17.9227 63.793 17.688 63.121 17.688C62.449 17.688 61.9157 17.9227 61.521 18.392C61.137 18.8507 60.945 19.448 60.945 20.184V20.232H65.329ZM72.1701 28.52C71.2955 28.52 70.5915 28.3707 70.0581 28.072C69.5248 27.784 69.1461 27.4533 68.9221 27.08C68.6981 26.7067 68.5755 26.3707 68.5541 26.072C68.5435 25.9653 68.5755 25.8747 68.6501 25.8C68.7355 25.7253 68.8261 25.688 68.9221 25.688H69.6901C69.7861 25.688 69.8661 25.7093 69.9301 25.752C69.9941 25.8053 70.0475 25.896 70.0901 26.024C70.2181 26.3653 70.4261 26.6587 70.7141 26.904C71.0128 27.16 71.4715 27.288 72.0901 27.288C72.8795 27.288 73.4608 27.1173 73.8341 26.776C74.2075 26.4453 74.3941 25.8533 74.3941 25V23.912C74.1168 24.264 73.7648 24.5467 73.3381 24.76C72.9115 24.9627 72.4048 25.064 71.8181 25.064C70.6875 25.064 69.8395 24.7067 69.2741 23.992C68.7195 23.2667 68.4261 22.3493 68.3941 21.24L68.3781 20.792L68.3941 20.36C68.4261 19.2613 68.7248 18.3493 69.2901 17.624C69.8555 16.888 70.6981 16.52 71.8181 16.52C72.9381 16.52 73.8128 16.9307 74.4421 17.752V17.064C74.4421 16.9573 74.4741 16.8667 74.5381 16.792C74.6128 16.7173 74.7035 16.68 74.8101 16.68H75.5461C75.6528 16.68 75.7435 16.7173 75.8181 16.792C75.8928 16.8667 75.9301 16.9573 75.9301 17.064V24.824C75.9301 27.288 74.6768 28.52 72.1701 28.52ZM72.1381 23.784C72.8635 23.784 73.4128 23.544 73.7861 23.064C74.1595 22.584 74.3621 22.0133 74.3941 21.352C74.4048 21.256 74.4101 21.0693 74.4101 20.792C74.4101 20.5253 74.4048 20.344 74.3941 20.248C74.3621 19.5867 74.1595 19.016 73.7861 18.536C73.4235 18.056 72.8741 17.816 72.1381 17.816C71.3808 17.816 70.8315 18.0507 70.4901 18.52C70.1488 18.9893 69.9621 19.608 69.9301 20.376L69.9141 20.792L69.9301 21.224C69.9621 21.9813 70.1488 22.6 70.4901 23.08C70.8315 23.5493 71.3808 23.784 72.1381 23.784ZM78.693 25C78.5863 25 78.4957 24.968 78.421 24.904C78.357 24.8293 78.325 24.7387 78.325 24.632V14.008C78.325 13.9013 78.357 13.816 78.421 13.752C78.4957 13.6773 78.5863 13.64 78.693 13.64H79.445C79.5517 13.64 79.637 13.6773 79.701 13.752C79.7757 13.816 79.813 13.9013 79.813 14.008V24.632C79.813 24.7387 79.7757 24.8293 79.701 24.904C79.637 24.968 79.5517 25 79.445 25H78.693ZM85.5276 25.16C84.429 25.16 83.549 24.824 82.8876 24.152C82.237 23.4693 81.8796 22.5413 81.8156 21.368L81.7996 20.824L81.8156 20.296C81.8903 19.144 82.253 18.2267 82.9036 17.544C83.565 16.8613 84.4343 16.52 85.5116 16.52C86.6956 16.52 87.613 16.8987 88.2636 17.656C88.9143 18.4027 89.2396 19.416 89.2396 20.696V20.968C89.2396 21.0747 89.2023 21.1653 89.1276 21.24C89.0636 21.304 88.9783 21.336 88.8716 21.336H83.3356V21.48C83.3676 22.1733 83.5756 22.7653 83.9596 23.256C84.3543 23.736 84.8716 23.976 85.5116 23.976C86.0023 23.976 86.4023 23.88 86.7116 23.688C87.0316 23.4853 87.2663 23.2773 87.4156 23.064C87.5116 22.936 87.581 22.8613 87.6236 22.84C87.677 22.808 87.7676 22.792 87.8956 22.792H88.6796C88.7756 22.792 88.8556 22.8187 88.9196 22.872C88.9836 22.9253 89.0156 23 89.0156 23.096C89.0156 23.3307 88.8663 23.6133 88.5676 23.944C88.2796 24.2747 87.869 24.5627 87.3356 24.808C86.813 25.0427 86.2103 25.16 85.5276 25.16ZM87.7196 20.232V20.184C87.7196 19.448 87.517 18.8507 87.1116 18.392C86.717 17.9227 86.1836 17.688 85.5116 17.688C84.8396 17.688 84.3063 17.9227 83.9116 18.392C83.5276 18.8507 83.3356 19.448 83.3356 20.184V20.232H87.7196ZM95.6506 25C95.544 25 95.4533 24.968 95.3786 24.904C95.3146 24.8293 95.2826 24.7387 95.2826 24.632V14.184C95.2826 14.0667 95.3146 13.976 95.3786 13.912C95.4533 13.8373 95.544 13.8 95.6506 13.8H96.4666C96.584 13.8 96.6746 13.8373 96.7386 13.912C96.8133 13.976 96.8506 14.0667 96.8506 14.184V18.6H102.355V14.184C102.355 14.0667 102.387 13.976 102.451 13.912C102.525 13.8373 102.616 13.8 102.723 13.8H103.539C103.656 13.8 103.747 13.8373 103.811 13.912C103.885 13.976 103.923 14.0667 103.923 14.184V24.632C103.923 24.7387 103.885 24.8293 103.811 24.904C103.736 24.968 103.645 25 103.539 25H102.723C102.616 25 102.525 24.968 102.451 24.904C102.387 24.8293 102.355 24.7387 102.355 24.632V20.04H96.8506V24.632C96.8506 24.7387 96.8133 24.8293 96.7386 24.904C96.664 24.968 96.5733 25 96.4666 25H95.6506ZM109.825 25.16C108.726 25.16 107.846 24.824 107.185 24.152C106.534 23.4693 106.177 22.5413 106.113 21.368L106.097 20.824L106.113 20.296C106.187 19.144 106.55 18.2267 107.201 17.544C107.862 16.8613 108.731 16.52 109.809 16.52C110.993 16.52 111.91 16.8987 112.561 17.656C113.211 18.4027 113.536 19.416 113.536 20.696V20.968C113.536 21.0747 113.499 21.1653 113.425 21.24C113.361 21.304 113.275 21.336 113.169 21.336H107.633V21.48C107.665 22.1733 107.873 22.7653 108.257 23.256C108.651 23.736 109.169 23.976 109.809 23.976C110.299 23.976 110.699 23.88 111.009 23.688C111.329 23.4853 111.563 23.2773 111.713 23.064C111.809 22.936 111.878 22.8613 111.921 22.84C111.974 22.808 112.065 22.792 112.193 22.792H112.977C113.073 22.792 113.153 22.8187 113.217 22.872C113.281 22.9253 113.312 23 113.312 23.096C113.312 23.3307 113.163 23.6133 112.865 23.944C112.577 24.2747 112.166 24.5627 111.633 24.808C111.11 25.0427 110.507 25.16 109.825 25.16ZM112.017 20.232V20.184C112.017 19.448 111.814 18.8507 111.409 18.392C111.014 17.9227 110.481 17.688 109.809 17.688C109.137 17.688 108.603 17.9227 108.209 18.392C107.825 18.8507 107.633 19.448 107.633 20.184V20.232H112.017ZM117.77 25.16C117.247 25.16 116.762 25.0533 116.314 24.84C115.866 24.6267 115.508 24.3387 115.242 23.976C114.986 23.6027 114.858 23.192 114.858 22.744C114.858 22.04 115.146 21.464 115.722 21.016C116.308 20.5573 117.098 20.2587 118.09 20.12L120.474 19.784V19.32C120.474 18.232 119.85 17.688 118.602 17.688C118.132 17.688 117.748 17.7893 117.45 17.992C117.151 18.184 116.927 18.4133 116.778 18.68C116.746 18.776 116.703 18.8453 116.65 18.888C116.607 18.9307 116.543 18.952 116.458 18.952H115.77C115.674 18.952 115.588 18.92 115.514 18.856C115.45 18.7813 115.418 18.696 115.418 18.6C115.428 18.344 115.546 18.056 115.77 17.736C116.004 17.4053 116.362 17.1227 116.842 16.888C117.322 16.6427 117.914 16.52 118.618 16.52C119.812 16.52 120.671 16.8027 121.194 17.368C121.716 17.9227 121.978 18.616 121.978 19.448V24.632C121.978 24.7387 121.94 24.8293 121.866 24.904C121.802 24.968 121.716 25 121.61 25H120.874C120.767 25 120.676 24.968 120.602 24.904C120.538 24.8293 120.506 24.7387 120.506 24.632V23.944C120.271 24.2853 119.93 24.5733 119.482 24.808C119.034 25.0427 118.463 25.16 117.77 25.16ZM118.106 23.96C118.799 23.96 119.364 23.736 119.802 23.288C120.25 22.8293 120.474 22.1733 120.474 21.32V20.872L118.618 21.144C117.86 21.2507 117.29 21.432 116.906 21.688C116.522 21.9333 116.33 22.248 116.33 22.632C116.33 23.0587 116.506 23.3893 116.858 23.624C117.21 23.848 117.626 23.96 118.106 23.96ZM124.662 25C124.555 25 124.464 24.968 124.39 24.904C124.326 24.8293 124.294 24.7387 124.294 24.632V14.008C124.294 13.9013 124.326 13.816 124.39 13.752C124.464 13.6773 124.555 13.64 124.662 13.64H125.414C125.52 13.64 125.606 13.6773 125.67 13.752C125.744 13.816 125.782 13.9013 125.782 14.008V24.632C125.782 24.7387 125.744 24.8293 125.67 24.904C125.606 24.968 125.52 25 125.414 25H124.662ZM131.416 25C129.731 25 128.888 24.0613 128.888 22.184V17.96H127.64C127.534 17.96 127.443 17.928 127.368 17.864C127.304 17.7893 127.272 17.6987 127.272 17.592V17.048C127.272 16.9413 127.304 16.856 127.368 16.792C127.443 16.7173 127.534 16.68 127.64 16.68H128.888V14.008C128.888 13.9013 128.92 13.816 128.984 13.752C129.059 13.6773 129.15 13.64 129.256 13.64H130.008C130.115 13.64 130.2 13.6773 130.264 13.752C130.339 13.816 130.376 13.9013 130.376 14.008V16.68H132.36C132.467 16.68 132.552 16.7173 132.616 16.792C132.691 16.856 132.728 16.9413 132.728 17.048V17.592C132.728 17.6987 132.691 17.7893 132.616 17.864C132.552 17.928 132.467 17.96 132.36 17.96H130.376V22.072C130.376 22.6053 130.467 23.0107 130.648 23.288C130.83 23.5547 131.128 23.688 131.544 23.688H132.52C132.627 23.688 132.712 23.7253 132.776 23.8C132.851 23.864 132.888 23.9493 132.888 24.056V24.632C132.888 24.7387 132.851 24.8293 132.776 24.904C132.712 24.968 132.627 25 132.52 25H131.416ZM134.802 25C134.696 25 134.605 24.968 134.53 24.904C134.466 24.8293 134.434 24.7387 134.434 24.632V14.008C134.434 13.9013 134.466 13.816 134.53 13.752C134.605 13.6773 134.696 13.64 134.802 13.64H135.602C135.709 13.64 135.794 13.6773 135.858 13.752C135.933 13.816 135.97 13.9013 135.97 14.008V17.736C136.28 17.3413 136.642 17.0427 137.058 16.84C137.474 16.6267 137.992 16.52 138.61 16.52C139.634 16.52 140.429 16.8507 140.994 17.512C141.57 18.1627 141.858 19.032 141.858 20.12V24.632C141.858 24.7387 141.821 24.8293 141.746 24.904C141.682 24.968 141.597 25 141.49 25H140.69C140.584 25 140.493 24.968 140.418 24.904C140.354 24.8293 140.322 24.7387 140.322 24.632V20.2C140.322 19.4427 140.136 18.856 139.762 18.44C139.4 18.024 138.872 17.816 138.178 17.816C137.506 17.816 136.968 18.0293 136.562 18.456C136.168 18.872 135.97 19.4533 135.97 20.2V24.632C135.97 24.7387 135.933 24.8293 135.858 24.904C135.794 24.968 135.709 25 135.602 25H134.802Z" fill="black"/>
<rect x="0.1" y="0.1" width="38.8" height="38.8" rx="3.9" fill="white"/>
<g clip-path="url(#clip0)">
<path fill-rule="evenodd" clip-rule="evenodd" d="M19.8544 8C20.3825 7.99951 20.8945 8.18216 21.3031 8.51683C21.7116 8.8515 21.9915 9.31749 22.095 9.83538C22.1984 10.3533 22.1191 10.891 21.8706 11.357C21.622 11.823 21.2195 12.1883 20.7318 12.3908C20.244 12.5933 19.7011 12.6204 19.1956 12.4675C18.6901 12.3146 18.2533 11.9911 17.9595 11.5522C17.6658 11.1133 17.5333 10.5861 17.5847 10.0605C17.6361 9.53487 17.8682 9.04333 18.2414 8.66964C18.4528 8.45718 18.7042 8.28863 18.981 8.17371C19.2579 8.05878 19.5547 7.99975 19.8544 8ZM12.0778 25.7895C11.9308 25.9442 11.8073 26.1196 11.7112 26.3101C11.6142 26.5021 11.545 26.707 11.5059 26.9186V26.9577V26.9846C11.4456 27.4055 11.5049 27.8349 11.677 28.2237C11.6941 28.2603 11.7087 28.2946 11.7258 28.3239L11.7772 28.4143C12.0786 28.9178 12.5668 29.2817 13.1353 29.4268C13.7039 29.5719 14.3067 29.4864 14.8125 29.189L17.0805 27.8449L17.0585 27.8155L15.3624 25.8408C14.9782 25.3972 14.4348 25.1228 13.8497 25.0771C13.2646 25.0313 12.6851 25.2179 12.2366 25.5964L12.1535 25.6722L12.0778 25.748V25.7895ZM23.8478 19.4817L24.7228 18.4405C25.0978 17.9895 25.2797 17.4087 25.2289 16.8243C25.1781 16.2399 24.8987 15.6992 24.4515 15.3196C24.0004 14.9446 23.4196 14.7627 22.8352 14.8135C22.2509 14.8643 21.7101 15.1437 21.3306 15.5909L20.8418 16.1652L20.5974 16.4634L20.5216 16.5563C20.4424 16.654 20.3427 16.7331 20.2294 16.7879C20.1162 16.8427 19.9922 16.8718 19.8664 16.8732C19.7406 16.8746 19.6161 16.8483 19.5016 16.796C19.3872 16.7438 19.2857 16.6669 19.2043 16.5709L19.1652 16.5245L18.3832 15.5909C18.004 15.144 17.4639 14.8647 16.8801 14.8134C16.2963 14.7622 15.7159 14.9432 15.2647 15.3172C14.8164 15.6965 14.5361 16.2375 14.4848 16.8225C14.4335 17.4075 14.6155 17.9891 14.991 18.4405L18.1143 22.1627C18.3783 22.4788 18.6406 22.7949 18.9013 23.1109L20.2552 24.7753L20.9713 25.6551L23.4006 24.1887C24.221 23.6916 25.2027 23.5333 26.1378 23.7472C27.0728 23.9612 27.888 24.5306 28.4107 25.3349L28.4596 25.418C28.4938 25.4742 28.5255 25.5304 28.5549 25.5818C28.5842 25.6331 28.6184 25.704 28.6404 25.748C28.7914 26.0686 28.8951 26.4094 28.9483 26.7598C29.0025 27.111 29.0066 27.4681 28.9606 27.8204V27.84V27.8815V27.9231V27.9451C28.9002 28.2954 28.7899 28.6353 28.6331 28.9544C28.4773 29.2724 28.2765 29.5663 28.0368 29.8269C28.0001 29.8685 27.9561 29.9124 27.9072 29.9589L27.8046 30.0542L27.7704 30.086C27.4065 30.4085 26.9826 30.6561 26.5229 30.8147C26.0632 30.9732 25.5767 31.0394 25.0914 31.0097C24.606 30.98 24.1313 30.8548 23.6944 30.6413C23.2575 30.4279 22.867 30.1304 22.5452 29.7658L20.5705 27.5198L19.3485 28.2677L20.6707 29.8C20.7338 29.8729 20.7819 29.9574 20.8122 30.0489C20.8426 30.1403 20.8547 30.2369 20.8478 30.333C20.8409 30.4291 20.8151 30.5229 20.7719 30.609C20.7287 30.6952 20.669 30.772 20.5962 30.835C20.5233 30.8981 20.4387 30.9462 20.3473 30.9766C20.2558 31.007 20.1593 31.019 20.0632 31.0121C19.9671 31.0052 19.8733 30.9794 19.7871 30.9362C19.701 30.8931 19.6242 30.8333 19.5611 30.7605L18.0606 29.0204L15.5604 30.499C14.7321 30.984 13.7476 31.1276 12.8152 30.8996C11.8829 30.6715 11.0759 30.0896 10.565 29.277L10.5136 29.1939C10.4843 29.145 10.455 29.0888 10.4232 29.0302C10.3914 28.9715 10.3646 28.9153 10.3401 28.8615C10.1914 28.5398 10.0902 28.1981 10.0395 27.8473C9.98941 27.4955 9.98941 27.1384 10.0395 26.7866V26.7646V26.7255V26.6864V26.6644C10.1657 25.9616 10.4945 25.311 10.9853 24.7924L11.1173 24.6604L11.2151 24.5724L11.259 24.5358C12.0011 23.9015 12.9642 23.587 13.9375 23.6612C14.9109 23.7354 15.8152 24.1922 16.4524 24.9317L18.3489 27.1312L19.6345 26.3443C19.522 26.2196 19.4096 26.0999 19.3021 25.9581C18.4369 24.8975 17.5913 23.8246 16.7017 22.781L13.8643 19.3986C13.2432 18.6557 12.9389 17.6986 13.0171 16.7334C13.0953 15.7683 13.5496 14.8726 14.2822 14.2394L14.3189 14.2076C15.0599 13.5866 16.015 13.2811 16.9789 13.357C17.9428 13.4329 18.8384 13.884 19.4732 14.6133C19.5978 14.7355 19.7176 14.8577 19.8544 15.0117C19.9839 14.8699 20.111 14.7355 20.2357 14.6109C20.8695 13.8792 21.7654 13.4257 22.7303 13.348C23.6952 13.2703 24.6521 13.5746 25.3948 14.1954L25.4315 14.2272C26.1641 14.8604 26.6184 15.7561 26.6966 16.7212C26.7748 17.6863 26.4705 18.6435 25.8494 19.3864L24.8718 20.5497C24.6641 20.7941 24.4564 21.0385 24.2437 21.2829C24.1163 21.4296 23.9359 21.5197 23.742 21.5335C23.5482 21.5472 23.3568 21.4835 23.21 21.3562L23.1928 21.3415L23.0707 21.1973C22.9986 21.0843 22.9589 20.9537 22.9559 20.8197C22.9529 20.6857 22.9866 20.5534 23.0535 20.4373L23.4397 19.9753L23.8454 19.4866L23.8478 19.4817ZM27.4991 26.9748C27.4668 26.7667 27.4051 26.5643 27.3158 26.3736C27.2938 26.3272 27.2767 26.293 27.2645 26.2734L27.2156 26.1854C26.9078 25.6858 26.4148 25.3282 25.8442 25.1909C25.2737 25.0535 24.6719 25.1475 24.1704 25.4522L21.9171 26.8233L23.6596 28.8053C23.8507 29.0245 24.0835 29.2033 24.3446 29.3313C24.6056 29.4593 24.8895 29.5339 25.1798 29.5507C25.4696 29.5707 25.7605 29.533 26.0357 29.4398C26.3108 29.3467 26.5648 29.2 26.783 29.0082L26.8637 28.9324C26.8857 28.9104 26.9125 28.8835 26.9394 28.8518C27.0849 28.6961 27.2068 28.5198 27.3011 28.3288C27.3954 28.1356 27.4612 27.9298 27.4966 27.7178V27.6909V27.6493C27.5272 27.437 27.5272 27.2214 27.4966 27.009L27.4991 26.9748ZM20.4263 9.71077C20.2746 9.55914 20.0689 9.47396 19.8544 9.47396C19.6399 9.47396 19.4342 9.55914 19.2825 9.71077C19.2075 9.78567 19.148 9.87463 19.1074 9.97255C19.0668 10.0705 19.0459 10.1754 19.0459 10.2814C19.0459 10.3874 19.0668 10.4924 19.1074 10.5903C19.148 10.6882 19.2075 10.7772 19.2825 10.8521C19.4342 11.0037 19.6399 11.0889 19.8544 11.0889C20.0689 11.0889 20.2746 11.0037 20.4263 10.8521C20.5013 10.7772 20.5608 10.6882 20.6014 10.5903C20.642 10.4924 20.6629 10.3874 20.6629 10.2814C20.6629 10.1754 20.642 10.0705 20.6014 9.97255C20.5608 9.87463 20.5013 9.78567 20.4263 9.71077Z" fill="#1B2CC1"/>
</g>
<rect x="0.1" y="0.1" width="38.8" height="38.8" rx="3.9" stroke="#6E7C90" stroke-width="0.2"/>
<defs>
<clipPath id="clip0">
<rect width="18.9919" height="23" fill="white" transform="translate(10 8)"/>
</clipPath>
</defs>
</svg>
