<svg width="39" height="39" viewBox="0 0 39 39" fill="none" xmlns="http://www.w3.org/2000/svg">
<rect x="0.1" y="0.1" width="38.8" height="38.8" rx="3.9" fill="white"/>
<path d="M29.2433 18.7134C29.2145 18.713 29.1858 18.7178 29.1587 18.7275C29.1246 18.7179 29.0894 18.7131 29.0539 18.7134C28.7195 18.7134 28.4274 19.0559 28.2682 19.5656C28.2375 19.6635 28.1791 19.7503 28.1001 19.8157C28.0211 19.8811 27.9248 19.9223 27.823 19.9343L27.2186 19.9927C27.0843 20.0071 26.9498 19.9687 26.8434 19.8856C26.7369 19.8025 26.667 19.6812 26.6484 19.5475C26.5955 19.1447 26.5085 18.747 26.3885 18.3588C26.3507 18.2311 26.3638 18.0937 26.425 17.9754C26.4862 17.8571 26.5909 17.7671 26.7169 17.7242L26.8177 17.6879C26.9071 17.6581 27.0029 17.6528 27.095 17.6726C27.1872 17.6925 27.2723 17.7367 27.3415 17.8008C27.3964 17.8674 27.469 17.9172 27.551 17.9443C27.633 17.9714 27.721 17.9747 27.8049 17.9539C27.8225 17.9461 27.8394 17.9367 27.8552 17.9257C27.87 17.9273 27.8848 17.9273 27.8995 17.9257C28.101 17.8431 28.0889 17.3878 27.8875 16.9183C27.686 16.4489 27.3636 16.1266 27.1682 16.2112C27.1543 16.2173 27.1414 16.2255 27.1299 16.2354L27.0755 16.2495C27.002 16.2958 26.943 16.362 26.9056 16.4404C26.8681 16.5189 26.8537 16.6064 26.864 16.6927C26.8626 16.7868 26.8356 16.8786 26.7859 16.9585C26.7362 17.0384 26.6657 17.1032 26.582 17.146L26.4893 17.1964C26.3678 17.2566 26.2277 17.2673 26.0985 17.2264C25.9692 17.1854 25.8609 17.096 25.7962 16.9768C25.6247 16.6725 25.4315 16.3809 25.218 16.1044C25.1338 15.9972 25.0948 15.8613 25.1095 15.7258C25.1242 15.5902 25.1913 15.4658 25.2966 15.3791L25.7741 14.9883C25.8533 14.9235 25.95 14.8837 26.0519 14.874C26.1538 14.8643 26.2562 14.8852 26.3462 14.9339C26.8217 15.1797 27.269 15.216 27.5067 14.9802C27.5312 14.9539 27.5534 14.9256 27.5732 14.8956C27.5971 14.8813 27.6194 14.8644 27.6397 14.8453C27.9237 14.5592 27.5973 13.7694 26.9083 13.0804C26.2193 12.3914 25.4296 12.063 25.1415 12.3491C25.1224 12.3695 25.1055 12.3917 25.0911 12.4156C25.0617 12.4354 25.0341 12.4576 25.0085 12.4821C24.7728 12.7178 24.807 13.167 25.0548 13.6425C25.103 13.7327 25.1236 13.835 25.1139 13.9368C25.1042 14.0386 25.0648 14.1352 25.0004 14.2147L24.6096 14.6921C24.5254 14.7959 24.4042 14.8629 24.2715 14.8791C24.1388 14.8953 24.0051 14.8593 23.8984 14.7788C23.5757 14.5297 23.2319 14.3093 22.8709 14.12C22.7538 14.0555 22.666 13.9483 22.6259 13.8207C22.5857 13.6931 22.5963 13.555 22.6554 13.435L22.6997 13.3403C22.7413 13.2558 22.805 13.1841 22.8842 13.133C22.9633 13.0819 23.0548 13.0533 23.149 13.0502C23.2352 13.059 23.3221 13.043 23.3996 13.0041C23.477 12.9652 23.5417 12.905 23.5862 12.8306C23.5939 12.8127 23.5987 12.7936 23.6003 12.7742C23.611 12.7633 23.6193 12.7503 23.6244 12.7359C23.703 12.5344 23.3807 12.2242 22.9032 12.0308C22.4257 11.8374 21.9744 11.8414 21.8959 12.0308C21.8938 12.0448 21.8938 12.0591 21.8959 12.0731C21.886 12.0886 21.8772 12.1047 21.8697 12.1214C21.85 12.206 21.8547 12.2944 21.8832 12.3764C21.9117 12.4585 21.9629 12.5307 22.0308 12.5848C22.0974 12.652 22.1441 12.7363 22.1657 12.8284C22.1874 12.9205 22.1833 13.0167 22.1537 13.1066L22.1235 13.2053C22.0801 13.3337 21.9889 13.4405 21.8689 13.5035C21.7488 13.5665 21.6092 13.5809 21.4788 13.5438C21.1422 13.447 20.7987 13.3756 20.4513 13.3302C20.3821 13.3247 20.3146 13.3054 20.2529 13.2733C20.1912 13.2412 20.1366 13.1971 20.0923 13.1436C20.048 13.0901 20.0148 13.0282 19.9948 12.9616C19.9748 12.8951 19.9684 12.8252 19.9759 12.7561L20.0363 12.1517C20.0476 12.0495 20.0885 11.953 20.154 11.8738C20.2195 11.7947 20.3068 11.7365 20.405 11.7064C20.9147 11.5452 21.2572 11.2531 21.2572 10.9207C21.2575 10.8846 21.2527 10.8487 21.2431 10.8139C21.2527 10.7874 21.2574 10.7595 21.2572 10.7313C21.2572 10.3284 20.4654 10 19.4903 10C18.5152 10 17.7235 10.3264 17.7235 10.7313C17.7242 10.7594 17.729 10.7872 17.7376 10.8139C17.7289 10.8489 17.7242 10.8847 17.7235 10.9207C17.7235 11.2531 18.068 11.5452 18.5777 11.7064C18.6754 11.7367 18.7621 11.7951 18.827 11.8742C18.8918 11.9534 18.9319 12.0499 18.9424 12.1517L19.0048 12.7561C19.0192 12.8905 18.9808 13.0254 18.8978 13.1321C18.8147 13.2388 18.6935 13.3091 18.5596 13.3282C18.1566 13.3796 17.7589 13.4658 17.3709 13.5861C17.2429 13.624 17.1053 13.611 16.9866 13.5498C16.868 13.4886 16.7776 13.3839 16.7343 13.2577L16.7 13.157C16.6695 13.0678 16.6636 12.972 16.6831 12.8798C16.7026 12.7875 16.7468 12.7023 16.8108 12.6332C16.8779 12.5785 16.928 12.5059 16.9555 12.4239C16.9829 12.3419 16.9866 12.2538 16.966 12.1698C16.9578 12.1523 16.9484 12.1355 16.9378 12.1194C16.9387 12.1053 16.9387 12.0912 16.9378 12.0771C16.8532 11.8756 16.3999 11.8857 15.9304 12.0872C15.461 12.2887 15.1387 12.613 15.2233 12.8064C15.2276 12.8212 15.236 12.8344 15.2475 12.8447C15.2491 12.8641 15.2538 12.8832 15.2616 12.9011C15.3092 12.9723 15.3756 13.0289 15.4536 13.0645C15.5315 13.1001 15.6178 13.1133 15.7028 13.1026C15.7963 13.107 15.887 13.1365 15.9653 13.1878C16.0436 13.2392 16.1067 13.3107 16.148 13.3947L16.1944 13.4874C16.2559 13.6082 16.2678 13.7483 16.2276 13.8778C16.1873 14.0072 16.098 14.1158 15.9788 14.1804C15.6733 14.351 15.381 14.5443 15.1044 14.7586C14.9974 14.8423 14.8619 14.8808 14.7268 14.8662C14.5918 14.8515 14.4678 14.7847 14.3812 14.6801L13.9782 14.2026C13.9144 14.1229 13.8752 14.0263 13.8656 13.9246C13.8559 13.823 13.8761 13.7207 13.9238 13.6304C14.1716 13.155 14.2079 12.7057 13.9702 12.47C13.9446 12.4455 13.9169 12.4233 13.8876 12.4035C13.873 12.3792 13.8554 12.3568 13.8352 12.337C13.5511 12.0509 12.7614 12.3793 12.0703 13.0683C11.3793 13.7573 11.063 14.5471 11.341 14.8332C11.3605 14.8532 11.3829 14.8702 11.4075 14.8835C11.4273 14.9135 11.4495 14.9419 11.474 14.9682C11.7097 15.2039 12.157 15.1696 12.6324 14.9218C12.7228 14.8732 12.8256 14.8524 12.9278 14.8621C13.0299 14.8718 13.127 14.9115 13.2066 14.9762L13.6861 15.3751C13.7899 15.4593 13.8569 15.5805 13.8731 15.7132C13.8892 15.8459 13.8532 15.9796 13.7727 16.0863C13.5238 16.4092 13.3021 16.7522 13.1099 17.1118C13.0469 17.2293 12.9406 17.3178 12.8135 17.3584C12.6864 17.399 12.5485 17.3886 12.429 17.3293L12.3343 17.283C12.2497 17.2419 12.1778 17.1785 12.1263 17.0998C12.0749 17.021 12.0458 16.9298 12.0421 16.8357C12.0421 16.6161 11.9595 16.4509 11.8225 16.3966L11.7681 16.3824C11.7571 16.3724 11.7441 16.3649 11.7299 16.3603C11.5284 16.2797 11.2161 16.602 11.0247 17.0815C10.8333 17.561 10.8354 18.0103 11.0247 18.0889C11.0394 18.0908 11.0543 18.0908 11.0691 18.0889C11.0843 18.0998 11.1004 18.1092 11.1174 18.1171C11.2022 18.136 11.2906 18.1308 11.3725 18.1019C11.4544 18.0731 11.5266 18.0218 11.5808 17.9539C11.6482 17.8877 11.7326 17.8414 11.8247 17.8201C11.9167 17.7987 12.0129 17.8032 12.1026 17.833L12.1993 17.8632C12.3279 17.9062 12.4349 17.9974 12.4976 18.1177C12.5604 18.2379 12.574 18.3778 12.5357 18.5079C12.4437 18.8451 12.3764 19.1885 12.3343 19.5354C12.3181 19.6706 12.2495 19.794 12.1432 19.8791C12.037 19.9643 11.9016 20.0043 11.7661 19.9907L11.1617 19.9323C11.0584 19.9227 10.9603 19.8828 10.8796 19.8175C10.7989 19.7523 10.7394 19.6646 10.7084 19.5656C10.5473 19.0559 10.2551 18.7134 9.92271 18.7134C9.88663 18.713 9.85068 18.7178 9.81594 18.7275C9.78946 18.718 9.76149 18.7132 9.73334 18.7134C9.33041 18.7134 9 19.5052 9 20.4783C9 21.4513 9.32839 22.2451 9.73334 22.2451C9.76149 22.2453 9.78946 22.2406 9.81594 22.231C9.85068 22.2408 9.88663 22.2455 9.92271 22.2451C10.2551 22.2451 10.5473 21.9026 10.7084 21.3929C10.7384 21.295 10.7963 21.2079 10.875 21.1424C10.9538 21.0769 11.0499 21.0358 11.1517 21.0242L11.7561 20.9658C11.8925 20.9499 12.0297 20.9886 12.1377 21.0736C12.2457 21.1585 12.3156 21.2827 12.3323 21.4191C12.3852 21.8219 12.4722 22.2196 12.5921 22.6078C12.627 22.7341 12.6125 22.869 12.5515 22.985C12.4905 23.101 12.3876 23.1894 12.2638 23.2323L12.163 23.2686C12.0736 23.2982 11.9778 23.3034 11.8857 23.2836C11.7936 23.2637 11.7085 23.2196 11.6392 23.1557C11.5845 23.0889 11.5118 23.039 11.4298 23.0119C11.3477 22.9847 11.2596 22.9815 11.1758 23.0026C11.1584 23.0108 11.1416 23.0202 11.1255 23.0308C11.111 23.0323 11.0967 23.0357 11.0832 23.0409C10.8817 23.1235 10.8817 23.5788 11.0832 24.0482C11.2846 24.5177 11.607 24.84 11.8024 24.7554C11.8165 24.7497 11.8295 24.7415 11.8407 24.7312L11.8951 24.7171C11.9668 24.6695 12.0237 24.6027 12.0594 24.5244C12.095 24.446 12.1079 24.3592 12.0965 24.2739C12.0979 24.1798 12.1249 24.0879 12.1746 24.0081C12.2243 23.9282 12.2948 23.8634 12.3786 23.8206L12.4733 23.7702C12.5945 23.7101 12.7342 23.6994 12.8632 23.7404C12.9921 23.7813 13.1001 23.8708 13.1643 23.9898C13.3358 24.2941 13.5291 24.5856 13.7425 24.8622C13.8265 24.9693 13.8655 25.1049 13.8512 25.2403C13.8369 25.3757 13.7705 25.5002 13.666 25.5874L13.1885 25.9783C13.1088 26.043 13.0118 26.0827 12.9096 26.0924C12.8074 26.1021 12.7047 26.0813 12.6143 26.0327C12.1388 25.7869 11.6916 25.7506 11.4559 25.9863C11.4314 26.0126 11.4092 26.0409 11.3894 26.071C11.3653 26.0843 11.343 26.1005 11.3229 26.1193C11.0368 26.4074 11.3632 27.1972 12.0522 27.8862C12.7412 28.5752 13.533 28.8935 13.8171 28.6175C13.8373 28.5977 13.8549 28.5753 13.8694 28.551C13.8988 28.5312 13.9264 28.509 13.952 28.4845C14.1898 28.2488 14.1535 27.7995 13.9057 27.3241C13.858 27.2338 13.8378 27.1315 13.8474 27.0299C13.8571 26.9282 13.8962 26.8316 13.9601 26.7519L14.363 26.2744C14.4469 26.1708 14.5678 26.1038 14.7001 26.0877C14.8324 26.0715 14.9658 26.1074 15.0722 26.1878C15.3952 26.4364 15.739 26.6568 16.0997 26.8466C16.2168 26.9111 16.3046 27.0183 16.3448 27.1459C16.3849 27.2735 16.3743 27.4116 16.3152 27.5316L16.2709 27.6263C16.2292 27.7107 16.1654 27.7822 16.0863 27.8333C16.0072 27.8843 15.9157 27.9131 15.8216 27.9164C15.7354 27.9076 15.6485 27.9236 15.5711 27.9625C15.4936 28.0014 15.4289 28.0616 15.3845 28.136C15.3786 28.1545 15.3739 28.1733 15.3704 28.1924C15.3596 28.2032 15.3514 28.2163 15.3462 28.2307C15.2676 28.4321 15.59 28.7424 16.0674 28.9358C16.5449 29.1292 16.9982 29.1252 17.0748 28.9257C17.0768 28.9117 17.0768 28.8975 17.0748 28.8834L17.103 28.8351C17.1222 28.7503 17.1171 28.6618 17.0882 28.5799C17.0593 28.4979 17.0079 28.4257 16.9398 28.3717C16.8736 28.3043 16.8273 28.2199 16.806 28.1278C16.7846 28.0357 16.7891 27.9396 16.8189 27.8499L16.8491 27.7512C16.8917 27.6226 16.9824 27.5156 17.1023 27.4525C17.2221 27.3894 17.3617 27.3751 17.4918 27.4127C17.8285 27.5096 18.1719 27.5809 18.5193 27.6263C18.6544 27.642 18.778 27.7101 18.8635 27.8159C18.9491 27.9218 18.9896 28.057 18.9766 28.1924L18.9142 28.7968C18.9037 28.8986 18.8636 28.9951 18.7988 29.0742C18.7339 29.1534 18.6472 29.2118 18.5495 29.242C18.0398 29.4032 17.6953 29.6953 17.6953 30.0278C17.696 30.0638 17.7007 30.0996 17.7094 30.1345C17.7008 30.1613 17.696 30.1891 17.6953 30.2171C17.6953 30.6201 18.487 30.9485 19.4621 30.9485C20.4372 30.9485 21.229 30.6221 21.229 30.2171C21.2292 30.189 21.2245 30.161 21.2149 30.1345C21.2245 30.0998 21.2293 30.0638 21.229 30.0278C21.229 29.6953 20.8865 29.4032 20.3768 29.242C20.2786 29.212 20.1913 29.1538 20.1258 29.0746C20.0603 28.9955 20.0194 28.8989 20.0081 28.7968L19.9477 28.1924C19.9333 28.0576 19.972 27.9225 20.0554 27.8157C20.1389 27.709 20.2607 27.6388 20.3949 27.6202C20.7972 27.5687 21.1942 27.4824 21.5816 27.3624C21.7096 27.3245 21.8472 27.3375 21.9658 27.3987C22.0845 27.4599 22.1749 27.5645 22.2182 27.6907L22.2524 27.7915C22.2824 27.8807 22.2879 27.9764 22.2684 28.0685C22.2489 28.1606 22.2051 28.2458 22.1416 28.3153C22.0746 28.37 22.0245 28.4425 21.997 28.5245C21.9695 28.6065 21.9659 28.6947 21.9865 28.7787L22.0147 28.829C22.0169 28.8436 22.0209 28.8578 22.0268 28.8713C22.1094 29.0728 22.5627 29.0728 23.0341 28.8713C23.5056 28.6699 23.8239 28.3455 23.7413 28.1521C23.7354 28.1381 23.7272 28.1252 23.7171 28.1138C23.7139 28.0945 23.7085 28.0755 23.701 28.0574C23.6534 27.9862 23.5869 27.9296 23.509 27.894C23.4311 27.8584 23.3448 27.8453 23.2598 27.8559C23.1655 27.8544 23.0735 27.8271 22.9936 27.777C22.9137 27.7269 22.849 27.656 22.8065 27.5719L22.7561 27.4792C22.7259 27.4173 22.7081 27.3501 22.7039 27.2813C22.6997 27.2125 22.7091 27.1436 22.7316 27.0785C22.754 27.0134 22.7891 26.9533 22.8348 26.9018C22.8805 26.8502 22.9359 26.8082 22.9979 26.7781C23.3037 26.608 23.596 26.4147 23.8722 26.1999C23.9796 26.1161 24.1154 26.0775 24.2508 26.0922C24.3862 26.1068 24.5106 26.1737 24.5975 26.2785L24.9884 26.7559C25.0527 26.8354 25.0922 26.9321 25.1018 27.0338C25.1115 27.1356 25.091 27.238 25.0428 27.3281C24.7949 27.8036 24.7607 28.2528 24.9964 28.4886C25.022 28.513 25.0497 28.5352 25.079 28.555C25.0935 28.5789 25.1103 28.6012 25.1294 28.6215C25.4175 28.9076 26.2072 28.5792 26.8962 27.8902C27.5853 27.2012 27.9036 26.4114 27.6276 26.1233C27.6067 26.1055 27.5845 26.0893 27.5611 26.075C27.5413 26.045 27.5191 26.0167 27.4946 25.9904C27.2569 25.7547 26.8096 25.7889 26.3342 26.0367C26.2441 26.0854 26.1417 26.1063 26.0398 26.0966C25.9379 26.0869 25.8412 26.0471 25.762 25.9823L25.2825 25.5915C25.1787 25.5073 25.1117 25.386 25.0955 25.2534C25.0794 25.1207 25.1154 24.987 25.1959 24.8803C25.4455 24.5583 25.6666 24.2152 25.8567 23.8548C25.9209 23.7373 26.0279 23.6491 26.1555 23.6086C26.2831 23.568 26.4214 23.5783 26.5417 23.6372L26.6364 23.6836C26.7204 23.7252 26.7918 23.7887 26.8428 23.8674C26.8939 23.9461 26.9228 24.0371 26.9265 24.1308C26.9265 24.3504 27.0091 24.5156 27.1461 24.57L27.2005 24.5841C27.2115 24.5942 27.2245 24.6017 27.2387 24.6063C27.4402 24.6869 27.7525 24.3645 27.9459 23.8851C28.1393 23.4056 28.1332 22.9563 27.9358 22.8777C27.9211 22.876 27.9062 22.876 27.8915 22.8777L27.8431 22.8495C27.7584 22.8305 27.67 22.8358 27.588 22.8646C27.5061 22.8935 27.4339 22.9448 27.3798 23.0127C27.3128 23.0789 27.2287 23.1253 27.137 23.1466C27.0452 23.1679 26.9493 23.1634 26.86 23.1336L26.7613 23.1034C26.6326 23.0603 26.5255 22.9692 26.4624 22.8491C26.3993 22.7289 26.3851 22.589 26.4228 22.4587C26.5192 22.122 26.5899 21.7785 26.6343 21.4312C26.651 21.2962 26.7198 21.1731 26.8259 21.0881C26.932 21.003 27.0671 20.9628 27.2025 20.9759L27.8069 21.0343C27.9087 21.0463 28.005 21.0875 28.084 21.1529C28.1629 21.2183 28.2213 21.3051 28.2521 21.403C28.4113 21.9127 28.7034 22.2552 29.0378 22.2552C29.0732 22.2555 29.1085 22.2507 29.1426 22.2411C29.1697 22.2508 29.1984 22.2556 29.2272 22.2552C29.6301 22.2552 29.9585 21.4634 29.9585 20.4883C29.9585 19.5132 29.6463 18.7134 29.2433 18.7134ZM24.0354 23.5103C24.5008 22.7029 24.7542 21.7907 24.7718 20.8589C24.7894 19.9271 24.5707 19.006 24.1362 18.1815C24.0862 18.3156 24.0185 18.4423 23.9347 18.5583C23.2799 19.4145 21.8274 19.4024 20.683 18.5341C19.5387 17.6658 19.1418 16.2656 19.7925 15.4094C19.8267 15.3665 19.863 15.3255 19.9013 15.2865C19.0222 15.1822 18.1309 15.2927 17.3038 15.6085C16.4768 15.9243 15.7387 16.436 15.1528 17.0997C15.5391 16.4351 16.0604 15.8588 16.6829 15.4079C17.3055 14.9569 18.0156 14.6413 18.7675 14.4814C19.5194 14.3215 20.2964 14.3208 21.0486 14.4794C21.8008 14.638 22.5114 14.9523 23.1348 15.4021C23.7582 15.8519 24.2804 16.4273 24.668 17.0912C25.0555 17.755 25.2998 18.4927 25.385 19.2567C25.4702 20.0206 25.3945 20.794 25.1628 21.527C24.931 22.2599 24.5484 22.9362 24.0395 23.5123L24.0354 23.5103Z" fill="#564FF5"/>
<path d="M19.8772 15.3059C21.6426 15.4729 22.5738 16.1759 24.1662 18.2242L23.9451 18.9316L23.2819 19.3738L22.088 19.7275L20.3636 18.6663L19.3466 17.2072L19.2582 16.1902L19.6119 15.3943L19.8772 15.3059Z" fill="#564FF5"/>
<rect x="0.1" y="0.1" width="38.8" height="38.8" rx="3.9" stroke="#6E7C90" stroke-width="0.2"/>
</svg>
