<svg width="255" height="39" viewBox="0 0 255 39" fill="none" xmlns="http://www.w3.org/2000/svg">
<path d="M53.424 25.16C51.9947 25.16 50.9067 24.776 50.16 24.008C49.424 23.24 49.0293 22.1787 48.976 20.824C48.9653 20.536 48.96 20.0667 48.96 19.416C48.96 18.7547 48.9653 18.2747 48.976 17.976C49.0293 16.632 49.4293 15.576 50.176 14.808C50.9227 14.0293 52.0053 13.64 53.424 13.64C54.3733 13.64 55.1787 13.8107 55.84 14.152C56.5013 14.4827 57.0027 14.92 57.344 15.464C57.6853 16.008 57.872 16.5893 57.904 17.208V17.24C57.904 17.3253 57.8667 17.4 57.792 17.464C57.728 17.5173 57.6533 17.544 57.568 17.544H56.688C56.4747 17.544 56.3413 17.4213 56.288 17.176C56.1067 16.376 55.7813 15.816 55.312 15.496C54.8427 15.1653 54.2133 15 53.424 15C51.5893 15 50.64 16.0187 50.576 18.056C50.5653 18.344 50.56 18.7867 50.56 19.384C50.56 19.9813 50.5653 20.4347 50.576 20.744C50.64 22.7813 51.5893 23.8 53.424 23.8C54.2133 23.8 54.8427 23.64 55.312 23.32C55.792 22.9893 56.1173 22.424 56.288 21.624C56.32 21.4853 56.368 21.3893 56.432 21.336C56.496 21.2827 56.5813 21.256 56.688 21.256H57.568C57.664 21.256 57.744 21.288 57.808 21.352C57.8827 21.4053 57.9147 21.48 57.904 21.576C57.872 22.2053 57.6853 22.792 57.344 23.336C57.0027 23.88 56.5013 24.3227 55.84 24.664C55.1787 24.9947 54.3733 25.16 53.424 25.16ZM63.2483 25.16C62.0749 25.16 61.1629 24.8293 60.5123 24.168C59.8723 23.5067 59.5309 22.6267 59.4883 21.528L59.4723 20.84L59.4883 20.152C59.5309 19.064 59.8776 18.1893 60.5283 17.528C61.1789 16.856 62.0856 16.52 63.2483 16.52C64.4109 16.52 65.3176 16.856 65.9683 17.528C66.6189 18.1893 66.9656 19.064 67.0083 20.152C67.0189 20.2693 67.0243 20.4987 67.0243 20.84C67.0243 21.1813 67.0189 21.4107 67.0083 21.528C66.9656 22.6267 66.6189 23.5067 65.9683 24.168C65.3283 24.8293 64.4216 25.16 63.2483 25.16ZM63.2483 23.928C63.9203 23.928 64.4483 23.7147 64.8323 23.288C65.2269 22.8613 65.4403 22.248 65.4723 21.448C65.4829 21.3413 65.4883 21.1387 65.4883 20.84C65.4883 20.5413 65.4829 20.3387 65.4723 20.232C65.4403 19.432 65.2269 18.8187 64.8323 18.392C64.4483 17.9653 63.9203 17.752 63.2483 17.752C62.5763 17.752 62.0429 17.9653 61.6483 18.392C61.2536 18.8187 61.0456 19.432 61.0243 20.232L61.0082 20.84L61.0243 21.448C61.0456 22.248 61.2536 22.8613 61.6483 23.288C62.0429 23.7147 62.5763 23.928 63.2483 23.928ZM71.6269 25C71.3495 25 71.1522 24.8667 71.0349 24.6L68.0749 17.176L68.0429 17.016C68.0429 16.92 68.0749 16.84 68.1389 16.776C68.2029 16.712 68.2829 16.68 68.3789 16.68H69.1469C69.3282 16.68 69.4615 16.7707 69.5469 16.952L71.9789 23.256L74.4109 16.952C74.5069 16.7707 74.6349 16.68 74.7949 16.68H75.5789C75.6642 16.68 75.7389 16.712 75.8029 16.776C75.8775 16.84 75.9149 16.92 75.9149 17.016L75.8829 17.176L72.9069 24.6C72.7895 24.8667 72.5922 25 72.3149 25H71.6269ZM77.8303 15.128C77.7236 15.128 77.6329 15.096 77.5583 15.032C77.4943 14.9573 77.4622 14.8667 77.4622 14.76V13.896C77.4622 13.7893 77.4943 13.6987 77.5583 13.624C77.6329 13.5493 77.7236 13.512 77.8303 13.512H78.8383C78.9449 13.512 79.0356 13.5493 79.1103 13.624C79.1849 13.6987 79.2223 13.7893 79.2223 13.896V14.76C79.2223 14.8667 79.1849 14.9573 79.1103 15.032C79.0356 15.096 78.9449 15.128 78.8383 15.128H77.8303ZM77.9583 25C77.8516 25 77.7609 24.968 77.6863 24.904C77.6223 24.8293 77.5903 24.7387 77.5903 24.632V17.048C77.5903 16.9413 77.6223 16.856 77.6863 16.792C77.7609 16.7173 77.8516 16.68 77.9583 16.68H78.7263C78.8329 16.68 78.9183 16.7173 78.9823 16.792C79.0569 16.856 79.0943 16.9413 79.0943 17.048V24.632C79.0943 24.7387 79.0569 24.8293 78.9823 24.904C78.9183 24.968 78.8329 25 78.7263 25H77.9583ZM84.5052 25.16C83.3959 25.16 82.5586 24.7973 81.9933 24.072C81.4279 23.3467 81.1293 22.4293 81.0973 21.32L81.0813 20.84L81.0973 20.36C81.1293 19.2613 81.4279 18.3493 81.9933 17.624C82.5586 16.888 83.3959 16.52 84.5052 16.52C85.6039 16.52 86.4679 16.9093 87.0973 17.688V14.008C87.0973 13.9013 87.1293 13.816 87.1933 13.752C87.2679 13.6773 87.3586 13.64 87.4653 13.64H88.2333C88.3399 13.64 88.4253 13.6773 88.4893 13.752C88.5639 13.816 88.6013 13.9013 88.6013 14.008V24.632C88.6013 24.7387 88.5639 24.8293 88.4893 24.904C88.4253 24.968 88.3399 25 88.2333 25H87.5133C87.4066 25 87.3159 24.968 87.2413 24.904C87.1773 24.8293 87.1453 24.7387 87.1453 24.632V23.96C86.5266 24.76 85.6466 25.16 84.5052 25.16ZM84.8413 23.864C85.5773 23.864 86.1266 23.624 86.4893 23.144C86.8626 22.6533 87.0653 22.072 87.0973 21.4C87.1079 21.2827 87.1133 21.08 87.1133 20.792C87.1133 20.4933 87.1079 20.2853 87.0973 20.168C87.0759 19.5387 86.8733 18.9893 86.4893 18.52C86.1053 18.0507 85.5559 17.816 84.8413 17.816C84.0839 17.816 83.5293 18.0507 83.1773 18.52C82.8359 18.9893 82.6493 19.608 82.6173 20.376L82.6013 20.84C82.6013 22.856 83.3479 23.864 84.8413 23.864ZM91.2689 20.872C91.1622 20.872 91.0715 20.84 90.9969 20.776C90.9329 20.7013 90.9009 20.6107 90.9009 20.504V19.896C90.9009 19.7893 90.9329 19.704 90.9969 19.64C91.0715 19.5653 91.1622 19.528 91.2689 19.528H96.0689C96.1755 19.528 96.2609 19.5653 96.3249 19.64C96.3995 19.704 96.4369 19.7893 96.4369 19.896V20.504C96.4369 20.6107 96.3995 20.7013 96.3249 20.776C96.2609 20.84 96.1755 20.872 96.0689 20.872H91.2689ZM101.369 25C101.262 25 101.172 24.968 101.097 24.904C101.033 24.8293 101.001 24.7387 101.001 24.632V15.672L98.3451 17.72C98.2705 17.784 98.1905 17.816 98.1051 17.816C98.0091 17.816 97.9185 17.7627 97.8331 17.656L97.4171 17.128C97.3638 17.0533 97.3371 16.9787 97.3371 16.904C97.3371 16.776 97.3905 16.6747 97.4971 16.6L100.985 13.912C101.102 13.8373 101.241 13.8 101.401 13.8H102.217C102.324 13.8 102.409 13.8373 102.473 13.912C102.548 13.976 102.585 14.0613 102.585 14.168V24.632C102.585 24.7387 102.548 24.8293 102.473 24.904C102.409 24.968 102.324 25 102.217 25H101.369ZM106.885 25C106.789 25 106.709 24.968 106.645 24.904C106.592 24.8293 106.565 24.744 106.565 24.648C106.565 24.5733 106.586 24.504 106.629 24.44L109.077 21.032C108.821 21.096 108.533 21.128 108.213 21.128C107.456 21.1173 106.784 20.9413 106.197 20.6C105.621 20.2587 105.178 19.8053 104.869 19.24C104.56 18.6747 104.405 18.072 104.405 17.432C104.405 16.792 104.554 16.184 104.853 15.608C105.162 15.0213 105.621 14.5467 106.229 14.184C106.837 13.8213 107.573 13.64 108.437 13.64C109.301 13.64 110.037 13.816 110.645 14.168C111.264 14.52 111.728 14.984 112.037 15.56C112.346 16.136 112.501 16.7493 112.501 17.4C112.501 17.976 112.4 18.488 112.197 18.936C111.994 19.3733 111.712 19.8533 111.349 20.376L108.261 24.68C108.186 24.776 108.112 24.856 108.037 24.92C107.973 24.9733 107.877 25 107.749 25H106.885ZM108.437 19.832C108.885 19.832 109.296 19.736 109.669 19.544C110.053 19.3413 110.357 19.0587 110.581 18.696C110.805 18.3227 110.917 17.896 110.917 17.416C110.917 16.936 110.805 16.5147 110.581 16.152C110.357 15.7787 110.053 15.496 109.669 15.304C109.296 15.1013 108.885 15 108.437 15C107.989 15 107.578 15.1013 107.205 15.304C106.832 15.496 106.533 15.7787 106.309 16.152C106.096 16.5147 105.989 16.936 105.989 17.416C105.989 17.896 106.096 18.3227 106.309 18.696C106.533 19.0587 106.832 19.3413 107.205 19.544C107.578 19.736 107.989 19.832 108.437 19.832ZM122.195 25.16C121.31 25.16 120.542 25.0213 119.891 24.744C119.251 24.4667 118.76 24.104 118.419 23.656C118.078 23.1973 117.896 22.7067 117.875 22.184C117.875 22.0987 117.907 22.024 117.971 21.96C118.046 21.8853 118.131 21.848 118.227 21.848H119.043C119.246 21.848 119.384 21.9547 119.459 22.168C119.555 22.616 119.827 23 120.275 23.32C120.734 23.64 121.374 23.8 122.195 23.8C123.08 23.8 123.747 23.6453 124.195 23.336C124.643 23.016 124.867 22.5733 124.867 22.008C124.867 21.6453 124.755 21.352 124.531 21.128C124.318 20.904 123.998 20.7067 123.571 20.536C123.144 20.3653 122.504 20.152 121.651 19.896C120.819 19.6613 120.158 19.4107 119.667 19.144C119.176 18.8773 118.808 18.5467 118.563 18.152C118.318 17.7573 118.195 17.2613 118.195 16.664C118.195 16.088 118.35 15.5707 118.659 15.112C118.979 14.6533 119.432 14.296 120.019 14.04C120.606 13.7733 121.304 13.64 122.115 13.64C122.947 13.64 123.662 13.7893 124.259 14.088C124.856 14.376 125.31 14.744 125.619 15.192C125.928 15.64 126.094 16.088 126.115 16.536C126.115 16.6213 126.083 16.696 126.019 16.76C125.966 16.824 125.886 16.856 125.779 16.856H124.931C124.707 16.856 124.568 16.7547 124.515 16.552C124.451 16.104 124.2 15.736 123.763 15.448C123.326 15.1493 122.776 15 122.115 15C121.39 15 120.819 15.1387 120.403 15.416C119.987 15.6933 119.779 16.104 119.779 16.648C119.779 17.0107 119.875 17.3093 120.067 17.544C120.27 17.7787 120.574 17.9867 120.979 18.168C121.384 18.3387 121.976 18.536 122.755 18.76C123.662 19.0053 124.376 19.2613 124.899 19.528C125.422 19.784 125.811 20.1093 126.067 20.504C126.323 20.888 126.451 21.3787 126.451 21.976C126.451 22.968 126.067 23.7467 125.299 24.312C124.531 24.8773 123.496 25.16 122.195 25.16ZM129.781 28.04C129.695 28.04 129.621 28.008 129.557 27.944C129.493 27.88 129.461 27.8053 129.461 27.72C129.461 27.6453 129.487 27.5493 129.541 27.432L130.773 24.504L127.717 17.288C127.663 17.1493 127.637 17.0587 127.637 17.016C127.637 16.92 127.669 16.84 127.733 16.776C127.797 16.712 127.877 16.68 127.973 16.68H128.757C128.927 16.68 129.055 16.7707 129.141 16.952L131.573 22.776L134.069 16.952C134.154 16.7707 134.287 16.68 134.469 16.68H135.221C135.317 16.68 135.397 16.712 135.461 16.776C135.525 16.84 135.557 16.9147 135.557 17C135.557 17.032 135.53 17.128 135.477 17.288L130.933 27.768C130.847 27.9493 130.714 28.04 130.533 28.04H129.781ZM137.521 25C137.414 25 137.323 24.968 137.249 24.904C137.185 24.8293 137.153 24.7387 137.153 24.632V17.048C137.153 16.9413 137.185 16.856 137.249 16.792C137.323 16.7173 137.414 16.68 137.521 16.68H138.241C138.347 16.68 138.433 16.7173 138.497 16.792C138.571 16.856 138.609 16.9413 138.609 17.048V17.608C139.163 16.8827 139.937 16.52 140.929 16.52C142.113 16.52 142.95 17.0107 143.441 17.992C143.697 17.544 144.059 17.1867 144.529 16.92C144.998 16.6533 145.526 16.52 146.113 16.52C146.987 16.52 147.702 16.8187 148.257 17.416C148.811 18.0133 149.089 18.8773 149.089 20.008V24.632C149.089 24.7387 149.051 24.8293 148.977 24.904C148.913 24.968 148.827 25 148.721 25H147.969C147.862 25 147.771 24.968 147.697 24.904C147.633 24.8293 147.601 24.7387 147.601 24.632V20.152C147.601 19.32 147.425 18.7227 147.073 18.36C146.731 17.9973 146.278 17.816 145.713 17.816C145.211 17.816 144.779 18.0027 144.417 18.376C144.054 18.7387 143.873 19.3307 143.873 20.152V24.632C143.873 24.7387 143.835 24.8293 143.761 24.904C143.697 24.968 143.611 25 143.505 25H142.753C142.646 25 142.555 24.968 142.481 24.904C142.417 24.8293 142.385 24.7387 142.385 24.632V20.152C142.385 19.32 142.203 18.7227 141.841 18.36C141.489 17.9973 141.041 17.816 140.497 17.816C139.995 17.816 139.563 18.0027 139.201 18.376C138.838 18.7387 138.657 19.3253 138.657 20.136V24.632C138.657 24.7387 138.619 24.8293 138.545 24.904C138.481 24.968 138.395 25 138.289 25H137.521ZM151.756 28.04C151.649 28.04 151.558 28.0027 151.484 27.928C151.42 27.864 151.388 27.7787 151.388 27.672V17.048C151.388 16.9413 151.42 16.856 151.484 16.792C151.558 16.7173 151.649 16.68 151.756 16.68H152.492C152.598 16.68 152.684 16.7173 152.748 16.792C152.822 16.856 152.86 16.9413 152.86 17.048V17.752C153.457 16.9307 154.332 16.52 155.484 16.52C156.604 16.52 157.441 16.872 157.996 17.576C158.561 18.28 158.865 19.1867 158.908 20.296C158.918 20.4133 158.924 20.5947 158.924 20.84C158.924 21.0853 158.918 21.2667 158.908 21.384C158.865 22.4827 158.561 23.3893 157.996 24.104C157.43 24.808 156.593 25.16 155.484 25.16C154.374 25.16 153.51 24.76 152.892 23.96V27.672C152.892 27.7787 152.86 27.864 152.796 27.928C152.732 28.0027 152.646 28.04 152.539 28.04H151.756ZM155.148 23.864C155.905 23.864 156.454 23.6293 156.796 23.16C157.148 22.6907 157.34 22.072 157.372 21.304C157.382 21.1973 157.388 21.0427 157.388 20.84C157.388 18.824 156.641 17.816 155.148 17.816C154.412 17.816 153.857 18.0613 153.484 18.552C153.121 19.032 152.924 19.608 152.892 20.28L152.876 20.888L152.892 21.512C152.913 22.1413 153.116 22.6907 153.5 23.16C153.884 23.6293 154.433 23.864 155.148 23.864ZM164.057 25C162.372 25 161.529 24.0613 161.529 22.184V17.96H160.281C160.174 17.96 160.084 17.928 160.009 17.864C159.945 17.7893 159.913 17.6987 159.913 17.592V17.048C159.913 16.9413 159.945 16.856 160.009 16.792C160.084 16.7173 160.174 16.68 160.281 16.68H161.529V14.008C161.529 13.9013 161.561 13.816 161.625 13.752C161.7 13.6773 161.79 13.64 161.897 13.64H162.649C162.756 13.64 162.841 13.6773 162.905 13.752C162.98 13.816 163.017 13.9013 163.017 14.008V16.68H165.001C165.108 16.68 165.193 16.7173 165.257 16.792C165.332 16.856 165.369 16.9413 165.369 17.048V17.592C165.369 17.6987 165.332 17.7893 165.257 17.864C165.193 17.928 165.108 17.96 165.001 17.96H163.017V22.072C163.017 22.6053 163.108 23.0107 163.289 23.288C163.47 23.5547 163.769 23.688 164.185 23.688H165.161C165.268 23.688 165.353 23.7253 165.417 23.8C165.492 23.864 165.529 23.9493 165.529 24.056V24.632C165.529 24.7387 165.492 24.8293 165.417 24.904C165.353 24.968 165.268 25 165.161 25H164.057ZM170.467 25.16C169.294 25.16 168.382 24.8293 167.731 24.168C167.091 23.5067 166.75 22.6267 166.707 21.528L166.691 20.84L166.707 20.152C166.75 19.064 167.096 18.1893 167.747 17.528C168.398 16.856 169.304 16.52 170.467 16.52C171.63 16.52 172.536 16.856 173.187 17.528C173.838 18.1893 174.184 19.064 174.227 20.152C174.238 20.2693 174.243 20.4987 174.243 20.84C174.243 21.1813 174.238 21.4107 174.227 21.528C174.184 22.6267 173.838 23.5067 173.187 24.168C172.547 24.8293 171.64 25.16 170.467 25.16ZM170.467 23.928C171.139 23.928 171.667 23.7147 172.051 23.288C172.446 22.8613 172.659 22.248 172.691 21.448C172.702 21.3413 172.707 21.1387 172.707 20.84C172.707 20.5413 172.702 20.3387 172.691 20.232C172.659 19.432 172.446 18.8187 172.051 18.392C171.667 17.9653 171.139 17.752 170.467 17.752C169.795 17.752 169.262 17.9653 168.867 18.392C168.472 18.8187 168.264 19.432 168.243 20.232L168.227 20.84L168.243 21.448C168.264 22.248 168.472 22.8613 168.867 23.288C169.262 23.7147 169.795 23.928 170.467 23.928ZM176.615 25C176.508 25 176.417 24.968 176.343 24.904C176.279 24.8293 176.247 24.7387 176.247 24.632V17.048C176.247 16.9413 176.279 16.856 176.343 16.792C176.417 16.7173 176.508 16.68 176.615 16.68H177.335C177.441 16.68 177.527 16.7173 177.591 16.792C177.665 16.856 177.703 16.9413 177.703 17.048V17.608C178.257 16.8827 179.031 16.52 180.023 16.52C181.207 16.52 182.044 17.0107 182.535 17.992C182.791 17.544 183.153 17.1867 183.623 16.92C184.092 16.6533 184.62 16.52 185.207 16.52C186.081 16.52 186.796 16.8187 187.351 17.416C187.905 18.0133 188.183 18.8773 188.183 20.008V24.632C188.183 24.7387 188.145 24.8293 188.071 24.904C188.007 24.968 187.921 25 187.815 25H187.063C186.956 25 186.865 24.968 186.791 24.904C186.727 24.8293 186.695 24.7387 186.695 24.632V20.152C186.695 19.32 186.519 18.7227 186.167 18.36C185.825 17.9973 185.372 17.816 184.807 17.816C184.305 17.816 183.873 18.0027 183.51 18.376C183.148 18.7387 182.967 19.3307 182.967 20.152V24.632C182.967 24.7387 182.929 24.8293 182.855 24.904C182.791 24.968 182.705 25 182.599 25H181.847C181.74 25 181.649 24.968 181.575 24.904C181.511 24.8293 181.479 24.7387 181.479 24.632V20.152C181.479 19.32 181.297 18.7227 180.935 18.36C180.583 17.9973 180.135 17.816 179.591 17.816C179.089 17.816 178.657 18.0027 178.295 18.376C177.932 18.7387 177.751 19.3253 177.751 20.136V24.632C177.751 24.7387 177.713 24.8293 177.639 24.904C177.575 24.968 177.489 25 177.383 25H176.615ZM198.627 25.16C197.198 25.16 196.11 24.776 195.363 24.008C194.627 23.24 194.232 22.1787 194.179 20.824C194.168 20.536 194.163 20.0667 194.163 19.416C194.163 18.7547 194.168 18.2747 194.179 17.976C194.232 16.632 194.632 15.576 195.379 14.808C196.126 14.0293 197.208 13.64 198.627 13.64C199.576 13.64 200.382 13.8107 201.043 14.152C201.704 14.4827 202.206 14.92 202.547 15.464C202.888 16.008 203.075 16.5893 203.107 17.208V17.24C203.107 17.3253 203.07 17.4 202.995 17.464C202.931 17.5173 202.856 17.544 202.771 17.544H201.891C201.678 17.544 201.544 17.4213 201.491 17.176C201.31 16.376 200.984 15.816 200.515 15.496C200.046 15.1653 199.416 15 198.627 15C196.792 15 195.843 16.0187 195.779 18.056C195.768 18.344 195.763 18.7867 195.763 19.384C195.763 19.9813 195.768 20.4347 195.779 20.744C195.843 22.7813 196.792 23.8 198.627 23.8C199.416 23.8 200.046 23.64 200.515 23.32C200.995 22.9893 201.32 22.424 201.491 21.624C201.523 21.4853 201.571 21.3893 201.635 21.336C201.699 21.2827 201.784 21.256 201.891 21.256H202.771C202.867 21.256 202.947 21.288 203.011 21.352C203.086 21.4053 203.118 21.48 203.107 21.576C203.075 22.2053 202.888 22.792 202.547 23.336C202.206 23.88 201.704 24.3227 201.043 24.664C200.382 24.9947 199.576 25.16 198.627 25.16ZM205.427 25C205.321 25 205.23 24.968 205.155 24.904C205.091 24.8293 205.059 24.7387 205.059 24.632V14.008C205.059 13.9013 205.091 13.816 205.155 13.752C205.23 13.6773 205.321 13.64 205.427 13.64H206.227C206.334 13.64 206.419 13.6773 206.483 13.752C206.558 13.816 206.595 13.9013 206.595 14.008V17.736C206.905 17.3413 207.267 17.0427 207.683 16.84C208.099 16.6267 208.617 16.52 209.235 16.52C210.259 16.52 211.054 16.8507 211.619 17.512C212.195 18.1627 212.483 19.032 212.483 20.12V24.632C212.483 24.7387 212.446 24.8293 212.371 24.904C212.307 24.968 212.222 25 212.115 25H211.315C211.209 25 211.118 24.968 211.043 24.904C210.979 24.8293 210.947 24.7387 210.947 24.632V20.2C210.947 19.4427 210.761 18.856 210.387 18.44C210.025 18.024 209.497 17.816 208.803 17.816C208.131 17.816 207.593 18.0293 207.187 18.456C206.793 18.872 206.595 19.4533 206.595 20.2V24.632C206.595 24.7387 206.558 24.8293 206.483 24.904C206.419 24.968 206.334 25 206.227 25H205.427ZM218.121 25.16C217.023 25.16 216.143 24.824 215.481 24.152C214.831 23.4693 214.473 22.5413 214.409 21.368L214.393 20.824L214.409 20.296C214.484 19.144 214.847 18.2267 215.497 17.544C216.159 16.8613 217.028 16.52 218.105 16.52C219.289 16.52 220.207 16.8987 220.857 17.656C221.508 18.4027 221.833 19.416 221.833 20.696V20.968C221.833 21.0747 221.796 21.1653 221.721 21.24C221.657 21.304 221.572 21.336 221.465 21.336H215.929V21.48C215.961 22.1733 216.169 22.7653 216.553 23.256C216.948 23.736 217.465 23.976 218.105 23.976C218.596 23.976 218.996 23.88 219.305 23.688C219.625 23.4853 219.86 23.2773 220.009 23.064C220.105 22.936 220.175 22.8613 220.217 22.84C220.271 22.808 220.361 22.792 220.489 22.792H221.273C221.369 22.792 221.449 22.8187 221.513 22.872C221.577 22.9253 221.609 23 221.609 23.096C221.609 23.3307 221.46 23.6133 221.161 23.944C220.873 24.2747 220.463 24.5627 219.929 24.808C219.407 25.0427 218.804 25.16 218.121 25.16ZM220.313 20.232V20.184C220.313 19.448 220.111 18.8507 219.705 18.392C219.311 17.9227 218.777 17.688 218.105 17.688C217.433 17.688 216.9 17.9227 216.505 18.392C216.121 18.8507 215.929 19.448 215.929 20.184V20.232H220.313ZM227.107 25.16C225.965 25.16 225.069 24.84 224.419 24.2C223.779 23.5493 223.437 22.6427 223.395 21.48L223.379 20.84L223.395 20.2C223.437 19.0373 223.779 18.136 224.419 17.496C225.069 16.8453 225.965 16.52 227.107 16.52C227.875 16.52 228.525 16.6587 229.059 16.936C229.592 17.2133 229.987 17.5547 230.243 17.96C230.509 18.3653 230.653 18.7707 230.675 19.176C230.685 19.2827 230.653 19.368 230.579 19.432C230.504 19.496 230.413 19.528 230.307 19.528H229.539C229.432 19.528 229.352 19.5067 229.299 19.464C229.245 19.4213 229.192 19.336 229.139 19.208C228.957 18.696 228.701 18.3333 228.371 18.12C228.04 17.896 227.624 17.784 227.123 17.784C226.461 17.784 225.933 17.992 225.539 18.408C225.155 18.8133 224.947 19.4373 224.914 20.28L224.899 20.856L224.914 21.4C224.947 22.2533 225.155 22.8827 225.539 23.288C225.923 23.6933 226.451 23.896 227.123 23.896C227.624 23.896 228.04 23.7893 228.371 23.576C228.701 23.352 228.957 22.984 229.139 22.472C229.192 22.344 229.245 22.2587 229.299 22.216C229.352 22.1627 229.432 22.136 229.539 22.136H230.307C230.413 22.136 230.504 22.1733 230.579 22.248C230.653 22.312 230.685 22.3973 230.675 22.504C230.653 22.8987 230.509 23.304 230.243 23.72C229.987 24.1253 229.592 24.4667 229.059 24.744C228.536 25.0213 227.885 25.16 227.107 25.16ZM232.959 25C232.852 25 232.761 24.968 232.687 24.904C232.623 24.8293 232.591 24.7387 232.591 24.632V14.008C232.591 13.9013 232.623 13.816 232.687 13.752C232.761 13.6773 232.852 13.64 232.959 13.64H233.711C233.817 13.64 233.903 13.6773 233.967 13.752C234.041 13.816 234.079 13.9013 234.079 14.008V19.576L237.231 16.952C237.263 16.9307 237.316 16.888 237.391 16.824C237.465 16.7707 237.535 16.7333 237.599 16.712C237.673 16.6907 237.764 16.68 237.871 16.68H238.719C238.815 16.68 238.895 16.712 238.959 16.776C239.023 16.84 239.055 16.92 239.055 17.016C239.055 17.1333 238.991 17.2347 238.863 17.32L235.167 20.392L239.263 24.376C239.391 24.4827 239.455 24.5787 239.455 24.664C239.455 24.76 239.423 24.84 239.359 24.904C239.295 24.968 239.215 25 239.119 25H238.287C238.127 25 238.009 24.984 237.935 24.952C237.871 24.92 237.775 24.8453 237.647 24.728L234.079 21.32V24.632C234.079 24.7387 234.041 24.8293 233.967 24.904C233.903 24.968 233.817 25 233.711 25H232.959ZM243.762 25.16C242.663 25.16 241.783 24.824 241.122 24.152C240.471 23.4693 240.114 22.5413 240.05 21.368L240.034 20.824L240.05 20.296C240.125 19.144 240.487 18.2267 241.138 17.544C241.799 16.8613 242.669 16.52 243.746 16.52C244.93 16.52 245.847 16.8987 246.498 17.656C247.149 18.4027 247.474 19.416 247.474 20.696V20.968C247.474 21.0747 247.437 21.1653 247.362 21.24C247.298 21.304 247.213 21.336 247.106 21.336H241.57V21.48C241.602 22.1733 241.81 22.7653 242.194 23.256C242.589 23.736 243.106 23.976 243.746 23.976C244.237 23.976 244.637 23.88 244.946 23.688C245.266 23.4853 245.501 23.2773 245.65 23.064C245.746 22.936 245.815 22.8613 245.858 22.84C245.911 22.808 246.002 22.792 246.13 22.792H246.914C247.01 22.792 247.09 22.8187 247.154 22.872C247.218 22.9253 247.25 23 247.25 23.096C247.25 23.3307 247.101 23.6133 246.802 23.944C246.514 24.2747 246.103 24.5627 245.57 24.808C245.047 25.0427 244.445 25.16 243.762 25.16ZM245.954 20.232V20.184C245.954 19.448 245.751 18.8507 245.346 18.392C244.951 17.9227 244.418 17.688 243.746 17.688C243.074 17.688 242.541 17.9227 242.146 18.392C241.762 18.8507 241.57 19.448 241.57 20.184V20.232H245.954ZM249.755 25C249.648 25 249.558 24.968 249.483 24.904C249.419 24.8293 249.387 24.7387 249.387 24.632V17.064C249.387 16.9573 249.419 16.8667 249.483 16.792C249.558 16.7173 249.648 16.68 249.755 16.68H250.491C250.598 16.68 250.688 16.7173 250.763 16.792C250.838 16.8667 250.875 16.9573 250.875 17.064V17.768C251.312 17.0427 252.059 16.68 253.115 16.68H253.739C253.846 16.68 253.931 16.7173 253.995 16.792C254.07 16.856 254.107 16.9413 254.107 17.048V17.704C254.107 17.8107 254.07 17.896 253.995 17.96C253.931 18.024 253.846 18.056 253.739 18.056H252.779C252.203 18.056 251.75 18.2267 251.419 18.568C251.088 18.8987 250.923 19.352 250.923 19.928V24.632C250.923 24.7387 250.886 24.8293 250.811 24.904C250.736 24.968 250.646 25 250.539 25H249.755Z" fill="black"/>
<rect x="0.1" y="0.1" width="38.8" height="38.8" rx="3.9" fill="white"/>
<path d="M29.2433 18.7134C29.2145 18.713 29.1858 18.7178 29.1587 18.7275C29.1246 18.7179 29.0894 18.7131 29.0539 18.7134C28.7195 18.7134 28.4274 19.0559 28.2682 19.5656C28.2375 19.6635 28.1791 19.7503 28.1001 19.8157C28.0211 19.8811 27.9248 19.9223 27.823 19.9343L27.2186 19.9927C27.0843 20.0071 26.9498 19.9687 26.8434 19.8856C26.7369 19.8025 26.667 19.6812 26.6484 19.5475C26.5955 19.1447 26.5085 18.747 26.3885 18.3588C26.3507 18.2311 26.3638 18.0937 26.425 17.9754C26.4862 17.8571 26.5909 17.7671 26.7169 17.7242L26.8177 17.6879C26.9071 17.6581 27.0029 17.6528 27.095 17.6726C27.1872 17.6925 27.2723 17.7367 27.3415 17.8008C27.3964 17.8674 27.469 17.9172 27.551 17.9443C27.633 17.9714 27.721 17.9747 27.8049 17.9539C27.8225 17.9461 27.8394 17.9367 27.8552 17.9257C27.87 17.9273 27.8848 17.9273 27.8995 17.9257C28.101 17.8431 28.0889 17.3878 27.8875 16.9183C27.686 16.4489 27.3636 16.1266 27.1682 16.2112C27.1543 16.2173 27.1414 16.2255 27.1299 16.2354L27.0755 16.2495C27.002 16.2958 26.943 16.362 26.9056 16.4404C26.8681 16.5189 26.8537 16.6064 26.864 16.6927C26.8626 16.7868 26.8356 16.8786 26.7859 16.9585C26.7362 17.0384 26.6657 17.1032 26.582 17.146L26.4893 17.1964C26.3678 17.2566 26.2277 17.2673 26.0985 17.2264C25.9692 17.1854 25.8609 17.096 25.7962 16.9768C25.6247 16.6725 25.4315 16.3809 25.218 16.1044C25.1338 15.9972 25.0948 15.8613 25.1095 15.7258C25.1242 15.5902 25.1913 15.4658 25.2966 15.3791L25.7741 14.9883C25.8533 14.9235 25.95 14.8837 26.0519 14.874C26.1538 14.8643 26.2562 14.8852 26.3462 14.9339C26.8217 15.1797 27.269 15.216 27.5067 14.9802C27.5312 14.9539 27.5534 14.9256 27.5732 14.8956C27.5971 14.8813 27.6194 14.8644 27.6397 14.8453C27.9237 14.5592 27.5973 13.7694 26.9083 13.0804C26.2193 12.3914 25.4296 12.063 25.1415 12.3491C25.1224 12.3695 25.1055 12.3917 25.0911 12.4156C25.0617 12.4354 25.0341 12.4576 25.0085 12.4821C24.7728 12.7178 24.807 13.167 25.0548 13.6425C25.103 13.7327 25.1236 13.835 25.1139 13.9368C25.1042 14.0386 25.0648 14.1352 25.0004 14.2147L24.6096 14.6921C24.5254 14.7959 24.4042 14.8629 24.2715 14.8791C24.1388 14.8953 24.0051 14.8593 23.8984 14.7788C23.5757 14.5297 23.2319 14.3093 22.8709 14.12C22.7538 14.0555 22.666 13.9483 22.6259 13.8207C22.5857 13.6931 22.5963 13.555 22.6554 13.435L22.6997 13.3403C22.7413 13.2558 22.805 13.1841 22.8842 13.133C22.9633 13.0819 23.0548 13.0533 23.149 13.0502C23.2352 13.059 23.3221 13.043 23.3996 13.0041C23.477 12.9652 23.5417 12.905 23.5862 12.8306C23.5939 12.8127 23.5987 12.7936 23.6003 12.7742C23.611 12.7633 23.6193 12.7503 23.6244 12.7359C23.703 12.5344 23.3807 12.2242 22.9032 12.0308C22.4257 11.8374 21.9744 11.8414 21.8959 12.0308C21.8938 12.0448 21.8938 12.0591 21.8959 12.0731C21.886 12.0886 21.8772 12.1047 21.8697 12.1214C21.85 12.206 21.8547 12.2944 21.8832 12.3764C21.9117 12.4585 21.9629 12.5307 22.0308 12.5848C22.0974 12.652 22.1441 12.7363 22.1657 12.8284C22.1874 12.9205 22.1833 13.0167 22.1537 13.1066L22.1235 13.2053C22.0801 13.3337 21.9889 13.4405 21.8689 13.5035C21.7488 13.5665 21.6092 13.5809 21.4788 13.5438C21.1422 13.447 20.7987 13.3756 20.4513 13.3302C20.3821 13.3247 20.3146 13.3054 20.2529 13.2733C20.1912 13.2412 20.1366 13.1971 20.0923 13.1436C20.048 13.0901 20.0148 13.0282 19.9948 12.9616C19.9748 12.8951 19.9684 12.8252 19.9759 12.7561L20.0363 12.1517C20.0476 12.0495 20.0885 11.953 20.154 11.8738C20.2195 11.7947 20.3068 11.7365 20.405 11.7064C20.9147 11.5452 21.2572 11.2531 21.2572 10.9207C21.2575 10.8846 21.2527 10.8487 21.2431 10.8139C21.2527 10.7874 21.2574 10.7595 21.2572 10.7313C21.2572 10.3284 20.4654 10 19.4903 10C18.5152 10 17.7235 10.3264 17.7235 10.7313C17.7242 10.7594 17.729 10.7872 17.7376 10.8139C17.7289 10.8489 17.7242 10.8847 17.7235 10.9207C17.7235 11.2531 18.068 11.5452 18.5777 11.7064C18.6754 11.7367 18.7621 11.7951 18.827 11.8742C18.8918 11.9534 18.9319 12.0499 18.9424 12.1517L19.0048 12.7561C19.0192 12.8905 18.9808 13.0254 18.8978 13.1321C18.8147 13.2388 18.6935 13.3091 18.5596 13.3282C18.1566 13.3796 17.7589 13.4658 17.3709 13.5861C17.2429 13.624 17.1053 13.611 16.9866 13.5498C16.868 13.4886 16.7776 13.3839 16.7343 13.2577L16.7 13.157C16.6695 13.0678 16.6636 12.972 16.6831 12.8798C16.7026 12.7875 16.7468 12.7023 16.8108 12.6332C16.8779 12.5785 16.928 12.5059 16.9555 12.4239C16.9829 12.3419 16.9866 12.2538 16.966 12.1698C16.9578 12.1523 16.9484 12.1355 16.9378 12.1194C16.9387 12.1053 16.9387 12.0912 16.9378 12.0771C16.8532 11.8756 16.3999 11.8857 15.9304 12.0872C15.461 12.2887 15.1387 12.613 15.2233 12.8064C15.2276 12.8212 15.236 12.8344 15.2475 12.8447C15.2491 12.8641 15.2538 12.8832 15.2616 12.9011C15.3092 12.9723 15.3756 13.0289 15.4536 13.0645C15.5315 13.1001 15.6178 13.1133 15.7028 13.1026C15.7963 13.107 15.887 13.1365 15.9653 13.1878C16.0436 13.2392 16.1067 13.3107 16.148 13.3947L16.1944 13.4874C16.2559 13.6082 16.2678 13.7483 16.2276 13.8778C16.1873 14.0072 16.098 14.1158 15.9788 14.1804C15.6733 14.351 15.381 14.5443 15.1044 14.7586C14.9974 14.8423 14.8619 14.8808 14.7268 14.8662C14.5918 14.8515 14.4678 14.7847 14.3812 14.6801L13.9782 14.2026C13.9144 14.1229 13.8752 14.0263 13.8656 13.9246C13.8559 13.823 13.8761 13.7207 13.9238 13.6304C14.1716 13.155 14.2079 12.7057 13.9702 12.47C13.9446 12.4455 13.9169 12.4233 13.8876 12.4035C13.873 12.3792 13.8554 12.3568 13.8352 12.337C13.5511 12.0509 12.7614 12.3793 12.0703 13.0683C11.3793 13.7573 11.063 14.5471 11.341 14.8332C11.3605 14.8532 11.3829 14.8702 11.4075 14.8835C11.4273 14.9135 11.4495 14.9419 11.474 14.9682C11.7097 15.2039 12.157 15.1696 12.6324 14.9218C12.7228 14.8732 12.8256 14.8524 12.9278 14.8621C13.0299 14.8718 13.127 14.9115 13.2066 14.9762L13.6861 15.3751C13.7899 15.4593 13.8569 15.5805 13.8731 15.7132C13.8892 15.8459 13.8532 15.9796 13.7727 16.0863C13.5238 16.4092 13.3021 16.7522 13.1099 17.1118C13.0469 17.2293 12.9406 17.3178 12.8135 17.3584C12.6864 17.399 12.5485 17.3886 12.429 17.3293L12.3343 17.283C12.2497 17.2419 12.1778 17.1785 12.1263 17.0998C12.0749 17.021 12.0458 16.9298 12.0421 16.8357C12.0421 16.6161 11.9595 16.4509 11.8225 16.3966L11.7681 16.3824C11.7571 16.3724 11.7441 16.3649 11.7299 16.3603C11.5284 16.2797 11.2161 16.602 11.0247 17.0815C10.8333 17.561 10.8354 18.0103 11.0247 18.0889C11.0394 18.0908 11.0543 18.0908 11.0691 18.0889C11.0843 18.0998 11.1004 18.1092 11.1174 18.1171C11.2022 18.136 11.2906 18.1308 11.3725 18.1019C11.4544 18.0731 11.5266 18.0218 11.5808 17.9539C11.6482 17.8877 11.7326 17.8414 11.8247 17.8201C11.9167 17.7987 12.0129 17.8032 12.1026 17.833L12.1993 17.8632C12.3279 17.9062 12.4349 17.9974 12.4976 18.1177C12.5604 18.2379 12.574 18.3778 12.5357 18.5079C12.4437 18.8451 12.3764 19.1885 12.3343 19.5354C12.3181 19.6706 12.2495 19.794 12.1432 19.8791C12.037 19.9643 11.9016 20.0043 11.7661 19.9907L11.1617 19.9323C11.0584 19.9227 10.9603 19.8828 10.8796 19.8175C10.7989 19.7523 10.7394 19.6646 10.7084 19.5656C10.5473 19.0559 10.2551 18.7134 9.92271 18.7134C9.88663 18.713 9.85068 18.7178 9.81594 18.7275C9.78946 18.718 9.76149 18.7132 9.73334 18.7134C9.33041 18.7134 9 19.5052 9 20.4783C9 21.4513 9.32839 22.2451 9.73334 22.2451C9.76149 22.2453 9.78946 22.2406 9.81594 22.231C9.85068 22.2408 9.88663 22.2455 9.92271 22.2451C10.2551 22.2451 10.5473 21.9026 10.7084 21.3929C10.7384 21.295 10.7963 21.2079 10.875 21.1424C10.9538 21.0769 11.0499 21.0358 11.1517 21.0242L11.7561 20.9658C11.8925 20.9499 12.0297 20.9886 12.1377 21.0736C12.2457 21.1585 12.3156 21.2827 12.3323 21.4191C12.3852 21.8219 12.4722 22.2196 12.5921 22.6078C12.627 22.7341 12.6125 22.869 12.5515 22.985C12.4905 23.101 12.3876 23.1894 12.2638 23.2323L12.163 23.2686C12.0736 23.2982 11.9778 23.3034 11.8857 23.2836C11.7936 23.2637 11.7085 23.2196 11.6392 23.1557C11.5845 23.0889 11.5118 23.039 11.4298 23.0119C11.3477 22.9847 11.2596 22.9815 11.1758 23.0026C11.1584 23.0108 11.1416 23.0202 11.1255 23.0308C11.111 23.0323 11.0967 23.0357 11.0832 23.0409C10.8817 23.1235 10.8817 23.5788 11.0832 24.0482C11.2846 24.5177 11.607 24.84 11.8024 24.7554C11.8165 24.7497 11.8295 24.7415 11.8407 24.7312L11.8951 24.7171C11.9668 24.6695 12.0237 24.6027 12.0594 24.5244C12.095 24.446 12.1079 24.3592 12.0965 24.2739C12.0979 24.1798 12.1249 24.0879 12.1746 24.0081C12.2243 23.9282 12.2948 23.8634 12.3786 23.8206L12.4733 23.7702C12.5945 23.7101 12.7342 23.6994 12.8632 23.7404C12.9921 23.7813 13.1001 23.8708 13.1643 23.9898C13.3358 24.2941 13.5291 24.5856 13.7425 24.8622C13.8265 24.9693 13.8655 25.1049 13.8512 25.2403C13.8369 25.3757 13.7705 25.5002 13.666 25.5874L13.1885 25.9783C13.1088 26.043 13.0118 26.0827 12.9096 26.0924C12.8074 26.1021 12.7047 26.0813 12.6143 26.0327C12.1388 25.7869 11.6916 25.7506 11.4559 25.9863C11.4314 26.0126 11.4092 26.0409 11.3894 26.071C11.3653 26.0843 11.343 26.1005 11.3229 26.1193C11.0368 26.4074 11.3632 27.1972 12.0522 27.8862C12.7412 28.5752 13.533 28.8935 13.8171 28.6175C13.8373 28.5977 13.8549 28.5753 13.8694 28.551C13.8988 28.5312 13.9264 28.509 13.952 28.4845C14.1898 28.2488 14.1535 27.7995 13.9057 27.3241C13.858 27.2338 13.8378 27.1315 13.8474 27.0299C13.8571 26.9282 13.8962 26.8316 13.9601 26.7519L14.363 26.2744C14.4469 26.1708 14.5678 26.1038 14.7001 26.0877C14.8324 26.0715 14.9658 26.1074 15.0722 26.1878C15.3952 26.4364 15.739 26.6568 16.0997 26.8466C16.2168 26.9111 16.3046 27.0183 16.3448 27.1459C16.3849 27.2735 16.3743 27.4116 16.3152 27.5316L16.2709 27.6263C16.2292 27.7107 16.1654 27.7822 16.0863 27.8333C16.0072 27.8843 15.9157 27.9131 15.8216 27.9164C15.7354 27.9076 15.6485 27.9236 15.5711 27.9625C15.4936 28.0014 15.4289 28.0616 15.3845 28.136C15.3786 28.1545 15.3739 28.1733 15.3704 28.1924C15.3596 28.2032 15.3514 28.2163 15.3462 28.2307C15.2676 28.4321 15.59 28.7424 16.0674 28.9358C16.5449 29.1292 16.9982 29.1252 17.0748 28.9257C17.0768 28.9117 17.0768 28.8975 17.0748 28.8834L17.103 28.8351C17.1222 28.7503 17.1171 28.6618 17.0882 28.5799C17.0593 28.4979 17.0079 28.4257 16.9398 28.3717C16.8736 28.3043 16.8273 28.2199 16.806 28.1278C16.7846 28.0357 16.7891 27.9396 16.8189 27.8499L16.8491 27.7512C16.8917 27.6226 16.9824 27.5156 17.1023 27.4525C17.2221 27.3894 17.3617 27.3751 17.4918 27.4127C17.8285 27.5096 18.1719 27.5809 18.5193 27.6263C18.6544 27.642 18.778 27.7101 18.8635 27.8159C18.9491 27.9218 18.9896 28.057 18.9766 28.1924L18.9142 28.7968C18.9037 28.8986 18.8636 28.9951 18.7988 29.0742C18.7339 29.1534 18.6472 29.2118 18.5495 29.242C18.0398 29.4032 17.6953 29.6953 17.6953 30.0278C17.696 30.0638 17.7007 30.0996 17.7094 30.1345C17.7008 30.1613 17.696 30.1891 17.6953 30.2171C17.6953 30.6201 18.487 30.9485 19.4621 30.9485C20.4372 30.9485 21.229 30.6221 21.229 30.2171C21.2292 30.189 21.2245 30.161 21.2149 30.1345C21.2245 30.0998 21.2293 30.0638 21.229 30.0278C21.229 29.6953 20.8865 29.4032 20.3768 29.242C20.2786 29.212 20.1913 29.1538 20.1258 29.0746C20.0603 28.9955 20.0194 28.8989 20.0081 28.7968L19.9477 28.1924C19.9333 28.0576 19.972 27.9225 20.0554 27.8157C20.1389 27.709 20.2607 27.6388 20.3949 27.6202C20.7972 27.5687 21.1942 27.4824 21.5816 27.3624C21.7096 27.3245 21.8472 27.3375 21.9658 27.3987C22.0845 27.4599 22.1749 27.5645 22.2182 27.6907L22.2524 27.7915C22.2824 27.8807 22.2879 27.9764 22.2684 28.0685C22.2489 28.1606 22.2051 28.2458 22.1416 28.3153C22.0746 28.37 22.0245 28.4425 21.997 28.5245C21.9695 28.6065 21.9659 28.6947 21.9865 28.7787L22.0147 28.829C22.0169 28.8436 22.0209 28.8578 22.0268 28.8713C22.1094 29.0728 22.5627 29.0728 23.0341 28.8713C23.5056 28.6699 23.8239 28.3455 23.7413 28.1521C23.7354 28.1381 23.7272 28.1252 23.7171 28.1138C23.7139 28.0945 23.7085 28.0755 23.701 28.0574C23.6534 27.9862 23.5869 27.9296 23.509 27.894C23.4311 27.8584 23.3448 27.8453 23.2598 27.8559C23.1655 27.8544 23.0735 27.8271 22.9936 27.777C22.9137 27.7269 22.849 27.656 22.8065 27.5719L22.7561 27.4792C22.7259 27.4173 22.7081 27.3501 22.7039 27.2813C22.6997 27.2125 22.7091 27.1436 22.7316 27.0785C22.754 27.0134 22.7891 26.9533 22.8348 26.9018C22.8805 26.8502 22.9359 26.8082 22.9979 26.7781C23.3037 26.608 23.596 26.4147 23.8722 26.1999C23.9796 26.1161 24.1154 26.0775 24.2508 26.0922C24.3862 26.1068 24.5106 26.1737 24.5975 26.2785L24.9884 26.7559C25.0527 26.8354 25.0922 26.9321 25.1018 27.0338C25.1115 27.1356 25.091 27.238 25.0428 27.3281C24.7949 27.8036 24.7607 28.2528 24.9964 28.4886C25.022 28.513 25.0497 28.5352 25.079 28.555C25.0935 28.5789 25.1103 28.6012 25.1294 28.6215C25.4175 28.9076 26.2072 28.5792 26.8962 27.8902C27.5853 27.2012 27.9036 26.4114 27.6276 26.1233C27.6067 26.1055 27.5845 26.0893 27.5611 26.075C27.5413 26.045 27.5191 26.0167 27.4946 25.9904C27.2569 25.7547 26.8096 25.7889 26.3342 26.0367C26.2441 26.0854 26.1417 26.1063 26.0398 26.0966C25.9379 26.0869 25.8412 26.0471 25.762 25.9823L25.2825 25.5915C25.1787 25.5073 25.1117 25.386 25.0955 25.2534C25.0794 25.1207 25.1154 24.987 25.1959 24.8803C25.4455 24.5583 25.6666 24.2152 25.8567 23.8548C25.9209 23.7373 26.0279 23.6491 26.1555 23.6086C26.2831 23.568 26.4214 23.5783 26.5417 23.6372L26.6364 23.6836C26.7204 23.7252 26.7918 23.7887 26.8428 23.8674C26.8939 23.9461 26.9228 24.0371 26.9265 24.1308C26.9265 24.3504 27.0091 24.5156 27.1461 24.57L27.2005 24.5841C27.2115 24.5942 27.2245 24.6017 27.2387 24.6063C27.4402 24.6869 27.7525 24.3645 27.9459 23.8851C28.1393 23.4056 28.1332 22.9563 27.9358 22.8777C27.9211 22.876 27.9062 22.876 27.8915 22.8777L27.8431 22.8495C27.7584 22.8305 27.67 22.8358 27.588 22.8646C27.5061 22.8935 27.4339 22.9448 27.3798 23.0127C27.3128 23.0789 27.2287 23.1253 27.137 23.1466C27.0452 23.1679 26.9493 23.1634 26.86 23.1336L26.7613 23.1034C26.6326 23.0603 26.5255 22.9692 26.4624 22.8491C26.3993 22.7289 26.3851 22.589 26.4228 22.4587C26.5192 22.122 26.5899 21.7785 26.6343 21.4312C26.651 21.2962 26.7198 21.1731 26.8259 21.0881C26.932 21.003 27.0671 20.9628 27.2025 20.9759L27.8069 21.0343C27.9087 21.0463 28.005 21.0875 28.084 21.1529C28.1629 21.2183 28.2213 21.3051 28.2521 21.403C28.4113 21.9127 28.7034 22.2552 29.0378 22.2552C29.0732 22.2555 29.1085 22.2507 29.1426 22.2411C29.1697 22.2508 29.1984 22.2556 29.2272 22.2552C29.6301 22.2552 29.9585 21.4634 29.9585 20.4883C29.9585 19.5132 29.6463 18.7134 29.2433 18.7134ZM24.0354 23.5103C24.5008 22.7029 24.7542 21.7907 24.7718 20.8589C24.7894 19.9271 24.5707 19.006 24.1362 18.1815C24.0862 18.3156 24.0185 18.4423 23.9347 18.5583C23.2799 19.4145 21.8274 19.4024 20.683 18.5341C19.5387 17.6658 19.1418 16.2656 19.7925 15.4094C19.8267 15.3665 19.863 15.3255 19.9013 15.2865C19.0222 15.1822 18.1309 15.2927 17.3038 15.6085C16.4768 15.9243 15.7387 16.436 15.1528 17.0997C15.5391 16.4351 16.0604 15.8588 16.6829 15.4079C17.3055 14.9569 18.0156 14.6413 18.7675 14.4814C19.5194 14.3215 20.2964 14.3208 21.0486 14.4794C21.8008 14.638 22.5114 14.9523 23.1348 15.4021C23.7582 15.8519 24.2804 16.4273 24.668 17.0912C25.0555 17.755 25.2998 18.4927 25.385 19.2567C25.4702 20.0206 25.3945 20.794 25.1628 21.527C24.931 22.2599 24.5484 22.9362 24.0395 23.5123L24.0354 23.5103Z" fill="#564FF5"/>
<path d="M19.8772 15.3059C21.6426 15.4729 22.5738 16.1759 24.1662 18.2242L23.9451 18.9316L23.2819 19.3738L22.088 19.7275L20.3636 18.6663L19.3466 17.2072L19.2582 16.1902L19.6119 15.3943L19.8772 15.3059Z" fill="#564FF5"/>
<rect x="0.1" y="0.1" width="38.8" height="38.8" rx="3.9" stroke="#6E7C90" stroke-width="0.2"/>
</svg>
