<svg width="28" height="28" viewBox="0 0 28 28" fill="none" xmlns="http://www.w3.org/2000/svg">
<path d="M21.8645 7.67666C21.6569 7.67666 21.4492 7.60432 21.2824 7.45499C19.2664 5.65716 16.6799 4.66666 14 4.66666C11.3202 4.66666 8.73368 5.65716 6.71768 7.45499C6.35718 7.77466 5.80302 7.74666 5.48218 7.38382C5.16018 7.02332 5.19168 6.46916 5.55335 6.14832C7.89018 4.06466 10.8897 2.91666 14 2.91666C17.1104 2.91666 20.1099 4.06466 22.4467 6.14832C22.8084 6.47032 22.8399 7.02332 22.5179 7.38382C22.3452 7.57749 22.1049 7.67666 21.8645 7.67666Z" fill="white"/>
<path d="M23.0429 12.1228C22.764 12.1228 22.4899 11.9898 22.3207 11.7425C20.4237 8.97984 17.3134 7.33017 14 7.33017C10.6867 7.33017 7.57636 8.97984 5.67936 11.7437C5.40636 12.1403 4.86386 12.2465 4.46252 11.97C4.06469 11.697 3.96319 11.1522 4.23736 10.7543C6.45986 7.51334 10.1092 5.58017 14 5.58017C17.8909 5.58017 21.5402 7.5145 23.7627 10.7532C24.0357 11.151 23.9342 11.6958 23.5375 11.9688C23.3859 12.0738 23.212 12.1228 23.0429 12.1228Z" fill="white"/>
<path d="M11.8032 25.0833C11.5815 25.0833 11.3587 24.9993 11.1884 24.8313C11.0344 24.6797 7.41418 21.063 7.41418 17.5513C7.41418 13.8868 10.3682 10.906 14.0012 10.906C17.6342 10.906 20.5882 13.8868 20.5882 17.5513C20.5882 18.0343 20.1962 18.4263 19.7132 18.4263C19.2302 18.4263 18.8382 18.0343 18.8382 17.5513C18.8382 14.8528 16.6694 12.656 14.0012 12.656C11.333 12.656 9.16418 14.8517 9.16418 17.5513C9.16418 20.3303 12.3877 23.555 12.4192 23.5865C12.7622 23.9272 12.7657 24.4802 12.4262 24.8243C12.2547 24.997 12.0295 25.0833 11.8032 25.0833Z" fill="white"/>
<path d="M16.1968 25.0833C14.4725 25.0833 10.4778 21.8878 10.0916 18.3283C9.95397 17.045 10.3495 15.7768 11.1766 14.8505C11.9093 14.0292 12.9045 13.5742 13.9801 13.5683C15.0675 13.5905 16.0265 13.9708 16.7755 14.7163C17.5338 15.47 17.9515 16.4768 17.9515 17.5502V17.9935C17.9515 18.9793 18.7425 19.782 19.7131 19.782C20.6838 19.782 21.4748 18.9793 21.4748 17.9935V17.8383C21.4748 13.7037 18.4111 10.2632 14.5005 10.0088C12.4133 9.86882 10.4416 10.5817 8.92264 12.0038C7.40014 13.4307 6.52631 15.4525 6.52631 17.5502C6.52631 19.3037 7.13414 21.0117 8.23547 22.3603C8.54114 22.7348 8.48514 23.2855 8.11181 23.5912C7.73731 23.898 7.18664 23.8408 6.87981 23.4675C5.52414 21.8073 4.77631 19.705 4.77631 17.5502C4.77631 14.9695 5.85197 12.4822 7.72564 10.7263C9.60164 8.96932 12.054 8.09432 14.6113 8.26232C19.4401 8.57849 23.2213 12.7843 23.2213 17.8383V17.9935C23.2213 19.9442 21.6451 21.532 19.7096 21.532C17.7741 21.532 16.198 19.9453 16.198 17.9935V17.5502C16.198 16.9458 15.9635 16.38 15.5388 15.9565C15.1258 15.5447 14.5786 15.3183 13.9988 15.3183C13.9941 15.3183 13.9906 15.3183 13.9871 15.3183C13.2521 15.3218 12.7621 15.6998 12.4798 16.016C11.9886 16.5667 11.746 17.36 11.83 18.1405C12.1216 20.818 15.3451 23.3333 16.1968 23.3333C16.6798 23.3333 17.0718 23.7253 17.0718 24.2083C17.0718 24.6913 16.6798 25.0833 16.1968 25.0833Z" fill="white"/>
<path d="M18.7786 23.7521C16.1933 23.7521 13.0701 20.7876 13.0701 17.1068C13.0701 16.6238 13.4621 16.2318 13.9451 16.2318C14.4281 16.2318 14.8201 16.6238 14.8201 17.1068C14.8201 19.8088 17.2153 22.0021 18.7786 22.0021C19.2616 22.0021 19.6536 22.3941 19.6536 22.8771C19.6536 23.3601 19.2616 23.7521 18.7786 23.7521Z" fill="white"/>
</svg>
