<svg width="189" height="28" viewBox="0 0 189 28" fill="none" xmlns="http://www.w3.org/2000/svg">
<path d="M32.64 22C32.48 22 32.344 21.952 32.232 21.856C32.136 21.744 32.088 21.608 32.088 21.448V5.776C32.088 5.6 32.136 5.464 32.232 5.368C32.344 5.256 32.48 5.2 32.64 5.2H42.432C42.608 5.2 42.744 5.256 42.84 5.368C42.952 5.464 43.008 5.6 43.008 5.776V6.736C43.008 6.896 42.952 7.032 42.84 7.144C42.744 7.24 42.608 7.288 42.432 7.288H34.416V12.88H41.952C42.128 12.88 42.264 12.936 42.36 13.048C42.472 13.144 42.528 13.28 42.528 13.456V14.416C42.528 14.576 42.472 14.712 42.36 14.824C42.248 14.92 42.112 14.968 41.952 14.968H34.416V21.448C34.416 21.608 34.36 21.744 34.248 21.856C34.136 21.952 34 22 33.84 22H32.64ZM45.2876 22C45.1276 22 44.9916 21.952 44.8796 21.856C44.7836 21.744 44.7356 21.608 44.7356 21.448V5.512C44.7356 5.352 44.7836 5.224 44.8796 5.128C44.9916 5.016 45.1276 4.96 45.2876 4.96H46.4156C46.5756 4.96 46.7036 5.016 46.7996 5.128C46.9116 5.224 46.9676 5.352 46.9676 5.512V21.448C46.9676 21.608 46.9116 21.744 46.7996 21.856C46.7036 21.952 46.5756 22 46.4156 22H45.2876ZM54.5796 22.24C52.8196 22.24 51.4516 21.744 50.4756 20.752C49.5156 19.76 49.0036 18.44 48.9396 16.792L48.9156 15.76L48.9396 14.728C49.0036 13.096 49.5236 11.784 50.4996 10.792C51.4756 9.784 52.8356 9.28 54.5796 9.28C56.3236 9.28 57.6836 9.784 58.6596 10.792C59.6356 11.784 60.1556 13.096 60.2196 14.728C60.2356 14.904 60.2436 15.248 60.2436 15.76C60.2436 16.272 60.2356 16.616 60.2196 16.792C60.1556 18.44 59.6356 19.76 58.6596 20.752C57.6996 21.744 56.3396 22.24 54.5796 22.24ZM54.5796 20.392C55.5876 20.392 56.3796 20.072 56.9556 19.432C57.5476 18.792 57.8676 17.872 57.9156 16.672C57.9316 16.512 57.9396 16.208 57.9396 15.76C57.9396 15.312 57.9316 15.008 57.9156 14.848C57.8676 13.648 57.5476 12.728 56.9556 12.088C56.3796 11.448 55.5876 11.128 54.5796 11.128C53.5716 11.128 52.7716 11.448 52.1796 12.088C51.5876 12.728 51.2756 13.648 51.2436 14.848L51.2196 15.76L51.2436 16.672C51.2756 17.872 51.5876 18.792 52.1796 19.432C52.7716 20.072 53.5716 20.392 54.5796 20.392ZM63.8841 26.56C63.7561 26.56 63.6441 26.512 63.5481 26.416C63.4521 26.32 63.4041 26.208 63.4041 26.08C63.4041 25.968 63.4441 25.824 63.5241 25.648L65.3721 21.256L60.7881 10.432C60.7081 10.224 60.6681 10.088 60.6681 10.024C60.6681 9.88 60.7161 9.76 60.8121 9.664C60.9081 9.568 61.0281 9.52 61.1721 9.52H62.3481C62.6041 9.52 62.7961 9.656 62.9241 9.928L66.5721 18.664L70.3161 9.928C70.4441 9.656 70.6441 9.52 70.9161 9.52H72.0441C72.1881 9.52 72.3081 9.568 72.4041 9.664C72.5001 9.76 72.5481 9.872 72.5481 10C72.5481 10.048 72.5081 10.192 72.4281 10.432L65.6121 26.152C65.4841 26.424 65.2841 26.56 65.0121 26.56H63.8841ZM79.3869 22C79.2269 22 79.0909 21.952 78.9789 21.856C78.8829 21.744 78.8349 21.608 78.8349 21.448V11.44H76.7949C76.6349 11.44 76.4989 11.392 76.3869 11.296C76.2909 11.184 76.2429 11.048 76.2429 10.888V10.072C76.2429 9.912 76.2909 9.784 76.3869 9.688C76.4989 9.576 76.6349 9.52 76.7949 9.52H78.8349V8.32C78.8349 5.6 80.2109 4.24 82.9629 4.24H84.4029C84.5629 4.24 84.6909 4.296 84.7869 4.408C84.8989 4.504 84.9549 4.632 84.9549 4.792V5.608C84.9549 5.768 84.8989 5.904 84.7869 6.016C84.6909 6.112 84.5629 6.16 84.4029 6.16H83.0109C82.2909 6.16 81.7869 6.352 81.4989 6.736C81.2109 7.104 81.0669 7.672 81.0669 8.44V9.52H84.1629C84.3229 9.52 84.4509 9.576 84.5469 9.688C84.6589 9.784 84.7149 9.912 84.7149 10.072V10.888C84.7149 11.048 84.6589 11.184 84.5469 11.296C84.4509 11.392 84.3229 11.44 84.1629 11.44H81.0669V21.448C81.0669 21.608 81.0109 21.744 80.8989 21.856C80.8029 21.952 80.6749 22 80.5149 22H79.3869ZM90.6189 22.24C88.8589 22.24 87.4909 21.744 86.5149 20.752C85.5549 19.76 85.0429 18.44 84.9789 16.792L84.9549 15.76L84.9789 14.728C85.0429 13.096 85.5629 11.784 86.5389 10.792C87.5149 9.784 88.8749 9.28 90.6189 9.28C92.3629 9.28 93.7229 9.784 94.6989 10.792C95.6749 11.784 96.1949 13.096 96.2589 14.728C96.2749 14.904 96.2829 15.248 96.2829 15.76C96.2829 16.272 96.2749 16.616 96.2589 16.792C96.1949 18.44 95.6749 19.76 94.6989 20.752C93.7389 21.744 92.3789 22.24 90.6189 22.24ZM90.6189 20.392C91.6269 20.392 92.4189 20.072 92.9949 19.432C93.5869 18.792 93.9069 17.872 93.9549 16.672C93.9709 16.512 93.9789 16.208 93.9789 15.76C93.9789 15.312 93.9709 15.008 93.9549 14.848C93.9069 13.648 93.5869 12.728 92.9949 12.088C92.4189 11.448 91.6269 11.128 90.6189 11.128C89.6109 11.128 88.8109 11.448 88.2189 12.088C87.6269 12.728 87.3149 13.648 87.2829 14.848L87.2589 15.76L87.2829 16.672C87.3149 17.872 87.6269 18.792 88.2189 19.432C88.8109 20.072 89.6109 20.392 90.6189 20.392ZM102.864 22.24C101.344 22.24 100.168 21.752 99.3362 20.776C98.5042 19.784 98.0882 18.472 98.0882 16.84V10.072C98.0882 9.912 98.1362 9.784 98.2322 9.688C98.3442 9.576 98.4802 9.52 98.6402 9.52H99.8402C100 9.52 100.128 9.576 100.224 9.688C100.336 9.784 100.392 9.912 100.392 10.072V16.72C100.392 19.104 101.432 20.296 103.512 20.296C104.52 20.296 105.32 19.984 105.912 19.36C106.504 18.72 106.8 17.84 106.8 16.72V10.072C106.8 9.912 106.848 9.784 106.944 9.688C107.056 9.576 107.192 9.52 107.352 9.52H108.552C108.712 9.52 108.84 9.576 108.936 9.688C109.032 9.784 109.08 9.912 109.08 10.072V21.448C109.08 21.608 109.032 21.744 108.936 21.856C108.84 21.952 108.712 22 108.552 22H107.424C107.264 22 107.128 21.952 107.016 21.856C106.92 21.744 106.872 21.608 106.872 21.448V20.392C106.424 21 105.88 21.464 105.24 21.784C104.6 22.088 103.808 22.24 102.864 22.24ZM112.118 22C111.958 22 111.822 21.952 111.71 21.856C111.614 21.744 111.566 21.608 111.566 21.448V10.072C111.566 9.912 111.614 9.784 111.71 9.688C111.822 9.576 111.958 9.52 112.118 9.52H113.246C113.406 9.52 113.534 9.576 113.63 9.688C113.742 9.784 113.798 9.912 113.798 10.072V11.128C114.262 10.536 114.806 10.08 115.43 9.76C116.07 9.44 116.862 9.28 117.806 9.28C119.342 9.28 120.534 9.776 121.382 10.768C122.246 11.744 122.678 13.048 122.678 14.68V21.448C122.678 21.608 122.622 21.744 122.51 21.856C122.414 21.952 122.286 22 122.126 22H120.926C120.766 22 120.63 21.952 120.518 21.856C120.422 21.744 120.374 21.608 120.374 21.448V14.8C120.374 13.664 120.094 12.784 119.534 12.16C118.99 11.536 118.198 11.224 117.158 11.224C116.15 11.224 115.35 11.544 114.758 12.184C114.166 12.808 113.87 13.68 113.87 14.8V21.448C113.87 21.608 113.814 21.744 113.702 21.856C113.606 21.952 113.478 22 113.318 22H112.118ZM129.6 22.24C127.936 22.24 126.68 21.696 125.832 20.608C124.984 19.52 124.536 18.144 124.488 16.48L124.464 15.76L124.488 15.04C124.536 13.392 124.984 12.024 125.832 10.936C126.68 9.832 127.936 9.28 129.6 9.28C131.248 9.28 132.544 9.864 133.488 11.032V5.512C133.488 5.352 133.536 5.224 133.632 5.128C133.744 5.016 133.88 4.96 134.04 4.96H135.192C135.352 4.96 135.48 5.016 135.576 5.128C135.688 5.224 135.744 5.352 135.744 5.512V21.448C135.744 21.608 135.688 21.744 135.576 21.856C135.48 21.952 135.352 22 135.192 22H134.112C133.952 22 133.816 21.952 133.704 21.856C133.608 21.744 133.56 21.608 133.56 21.448V20.44C132.632 21.64 131.312 22.24 129.6 22.24ZM130.104 20.296C131.208 20.296 132.032 19.936 132.576 19.216C133.136 18.48 133.44 17.608 133.488 16.6C133.504 16.424 133.512 16.12 133.512 15.688C133.512 15.24 133.504 14.928 133.488 14.752C133.456 13.808 133.152 12.984 132.576 12.28C132 11.576 131.176 11.224 130.104 11.224C128.968 11.224 128.136 11.576 127.608 12.28C127.096 12.984 126.816 13.912 126.768 15.064L126.744 15.76C126.744 18.784 127.864 20.296 130.104 20.296ZM141.714 22.24C140.93 22.24 140.202 22.08 139.53 21.76C138.858 21.44 138.322 21.008 137.922 20.464C137.538 19.904 137.346 19.288 137.346 18.616C137.346 17.56 137.778 16.696 138.642 16.024C139.522 15.336 140.706 14.888 142.194 14.68L145.77 14.176V13.48C145.77 11.848 144.834 11.032 142.962 11.032C142.258 11.032 141.682 11.184 141.234 11.488C140.786 11.776 140.45 12.12 140.226 12.52C140.178 12.664 140.114 12.768 140.034 12.832C139.97 12.896 139.874 12.928 139.746 12.928H138.714C138.57 12.928 138.442 12.88 138.33 12.784C138.234 12.672 138.186 12.544 138.186 12.4C138.202 12.016 138.378 11.584 138.714 11.104C139.066 10.608 139.602 10.184 140.322 9.832C141.042 9.464 141.93 9.28 142.986 9.28C144.778 9.28 146.066 9.704 146.85 10.552C147.634 11.384 148.026 12.424 148.026 13.672V21.448C148.026 21.608 147.97 21.744 147.858 21.856C147.762 21.952 147.634 22 147.474 22H146.37C146.21 22 146.074 21.952 145.962 21.856C145.866 21.744 145.818 21.608 145.818 21.448V20.416C145.466 20.928 144.954 21.36 144.282 21.712C143.61 22.064 142.754 22.24 141.714 22.24ZM142.218 20.44C143.258 20.44 144.106 20.104 144.762 19.432C145.434 18.744 145.77 17.76 145.77 16.48V15.808L142.986 16.216C141.85 16.376 140.994 16.648 140.418 17.032C139.842 17.4 139.554 17.872 139.554 18.448C139.554 19.088 139.818 19.584 140.346 19.936C140.874 20.272 141.498 20.44 142.218 20.44ZM155.151 22C152.623 22 151.359 20.592 151.359 17.776V11.44H149.487C149.327 11.44 149.191 11.392 149.079 11.296C148.983 11.184 148.935 11.048 148.935 10.888V10.072C148.935 9.912 148.983 9.784 149.079 9.688C149.191 9.576 149.327 9.52 149.487 9.52H151.359V5.512C151.359 5.352 151.407 5.224 151.503 5.128C151.615 5.016 151.751 4.96 151.911 4.96H153.039C153.199 4.96 153.327 5.016 153.423 5.128C153.535 5.224 153.591 5.352 153.591 5.512V9.52H156.567C156.727 9.52 156.855 9.576 156.951 9.688C157.063 9.784 157.119 9.912 157.119 10.072V10.888C157.119 11.048 157.063 11.184 156.951 11.296C156.855 11.392 156.727 11.44 156.567 11.44H153.591V17.608C153.591 18.408 153.727 19.016 153.999 19.432C154.271 19.832 154.719 20.032 155.343 20.032H156.807C156.967 20.032 157.095 20.088 157.191 20.2C157.303 20.296 157.359 20.424 157.359 20.584V21.448C157.359 21.608 157.303 21.744 157.191 21.856C157.095 21.952 156.967 22 156.807 22H155.151ZM158.934 7.192C158.774 7.192 158.638 7.144 158.526 7.048C158.43 6.936 158.382 6.8 158.382 6.64V5.344C158.382 5.184 158.43 5.048 158.526 4.936C158.638 4.824 158.774 4.768 158.934 4.768H160.446C160.606 4.768 160.742 4.824 160.854 4.936C160.966 5.048 161.022 5.184 161.022 5.344V6.64C161.022 6.8 160.966 6.936 160.854 7.048C160.742 7.144 160.606 7.192 160.446 7.192H158.934ZM159.126 22C158.966 22 158.83 21.952 158.718 21.856C158.622 21.744 158.574 21.608 158.574 21.448V10.072C158.574 9.912 158.622 9.784 158.718 9.688C158.83 9.576 158.966 9.52 159.126 9.52H160.278C160.438 9.52 160.566 9.576 160.662 9.688C160.774 9.784 160.83 9.912 160.83 10.072V21.448C160.83 21.608 160.774 21.744 160.662 21.856C160.566 21.952 160.438 22 160.278 22H159.126ZM168.418 22.24C166.658 22.24 165.29 21.744 164.314 20.752C163.354 19.76 162.842 18.44 162.778 16.792L162.754 15.76L162.778 14.728C162.842 13.096 163.362 11.784 164.338 10.792C165.314 9.784 166.674 9.28 168.418 9.28C170.162 9.28 171.522 9.784 172.498 10.792C173.474 11.784 173.994 13.096 174.058 14.728C174.074 14.904 174.082 15.248 174.082 15.76C174.082 16.272 174.074 16.616 174.058 16.792C173.994 18.44 173.474 19.76 172.498 20.752C171.538 21.744 170.178 22.24 168.418 22.24ZM168.418 20.392C169.426 20.392 170.218 20.072 170.794 19.432C171.386 18.792 171.706 17.872 171.754 16.672C171.77 16.512 171.778 16.208 171.778 15.76C171.778 15.312 171.77 15.008 171.754 14.848C171.706 13.648 171.386 12.728 170.794 12.088C170.218 11.448 169.426 11.128 168.418 11.128C167.41 11.128 166.61 11.448 166.018 12.088C165.426 12.728 165.114 13.648 165.082 14.848L165.058 15.76L165.082 16.672C165.114 17.872 165.426 18.792 166.018 19.432C166.61 20.072 167.41 20.392 168.418 20.392ZM176.56 22C176.4 22 176.264 21.952 176.152 21.856C176.056 21.744 176.008 21.608 176.008 21.448V10.072C176.008 9.912 176.056 9.784 176.152 9.688C176.264 9.576 176.4 9.52 176.56 9.52H177.688C177.848 9.52 177.976 9.576 178.072 9.688C178.184 9.784 178.24 9.912 178.24 10.072V11.128C178.704 10.536 179.248 10.08 179.872 9.76C180.512 9.44 181.304 9.28 182.248 9.28C183.784 9.28 184.976 9.776 185.824 10.768C186.688 11.744 187.12 13.048 187.12 14.68V21.448C187.12 21.608 187.064 21.744 186.952 21.856C186.856 21.952 186.728 22 186.568 22H185.368C185.208 22 185.072 21.952 184.96 21.856C184.864 21.744 184.816 21.608 184.816 21.448V14.8C184.816 13.664 184.536 12.784 183.976 12.16C183.432 11.536 182.64 11.224 181.6 11.224C180.592 11.224 179.792 11.544 179.2 12.184C178.608 12.808 178.312 13.68 178.312 14.8V21.448C178.312 21.608 178.256 21.744 178.144 21.856C178.048 21.952 177.92 22 177.76 22H176.56Z" fill="white"/>
<path d="M32.232 21.856L31.4727 22.5068L31.5228 22.5652L31.5812 22.6153L32.232 21.856ZM32.232 5.368L32.9391 6.07511L32.9391 6.0751L32.232 5.368ZM42.84 5.368L42.0807 6.01879L42.1308 6.0772L42.1892 6.12726L42.84 5.368ZM34.416 7.288V6.288H33.416V7.288H34.416ZM34.416 12.88H33.416V13.88H34.416V12.88ZM42.36 13.048L41.6007 13.6988L41.6508 13.7572L41.7092 13.8073L42.36 13.048ZM42.36 14.824L43.0108 15.5833L43.04 15.5583L43.0671 15.5311L42.36 14.824ZM34.416 14.968V13.968H33.416V14.968H34.416ZM34.248 21.856L34.8988 22.6153L34.928 22.5903L34.9551 22.5631L34.248 21.856ZM32.64 21C32.661 21 32.7009 21.0034 32.7508 21.021C32.8019 21.039 32.8472 21.0663 32.8828 21.0967L31.5812 22.6153C31.8903 22.8802 32.2631 23 32.64 23V21ZM32.9913 21.2052C33.0217 21.2408 33.049 21.2861 33.067 21.3372C33.0846 21.3871 33.088 21.427 33.088 21.448H31.088C31.088 21.8249 31.2078 22.1977 31.4727 22.5068L32.9913 21.2052ZM33.088 21.448V5.776H31.088V21.448H33.088ZM33.088 5.776C33.088 5.77724 33.088 5.81531 33.067 5.87482C33.0445 5.93866 33.0032 6.011 32.9391 6.07511L31.5249 4.66089C31.1904 4.99539 31.088 5.41679 31.088 5.776H33.088ZM32.9391 6.0751C32.909 6.10521 32.862 6.14064 32.7988 6.16668C32.7357 6.19263 32.6791 6.2 32.64 6.2V4.2C32.2178 4.2 31.8266 4.35923 31.5249 4.66089L32.9391 6.0751ZM32.64 6.2H42.432V4.2H32.64V6.2ZM42.432 6.2C42.4145 6.2 42.3593 6.19716 42.2852 6.16668C42.2068 6.13436 42.1352 6.08232 42.0807 6.01879L43.5993 4.71721C43.2763 4.34045 42.8379 4.2 42.432 4.2V6.2ZM42.1892 6.12726C42.1257 6.0728 42.0736 6.00123 42.0413 5.92275C42.0108 5.84871 42.008 5.79347 42.008 5.776H44.008C44.008 5.37007 43.8675 4.93167 43.4908 4.60874L42.1892 6.12726ZM42.008 5.776V6.736H44.008V5.776H42.008ZM42.008 6.736C42.008 6.69693 42.0154 6.64027 42.0413 6.57725C42.0674 6.51403 42.1028 6.46699 42.1329 6.43689L43.5471 7.85111C43.8488 7.54944 44.008 7.15819 44.008 6.736H42.008ZM42.1329 6.43689C42.197 6.37278 42.2693 6.33154 42.3332 6.30901C42.3927 6.288 42.4308 6.288 42.432 6.288V8.288C42.7912 8.288 43.2126 8.18561 43.5471 7.85111L42.1329 6.43689ZM42.432 6.288H34.416V8.288H42.432V6.288ZM33.416 7.288V12.88H35.416V7.288H33.416ZM34.416 13.88H41.952V11.88H34.416V13.88ZM41.952 13.88C41.9345 13.88 41.8793 13.8772 41.8053 13.8467C41.7268 13.8144 41.6552 13.7623 41.6007 13.6988L43.1193 12.3972C42.7963 12.0205 42.3579 11.88 41.952 11.88V13.88ZM41.7092 13.8073C41.6457 13.7528 41.5936 13.6812 41.5613 13.6027C41.5308 13.5287 41.528 13.4735 41.528 13.456H43.528C43.528 13.0501 43.3875 12.6117 43.0108 12.2887L41.7092 13.8073ZM41.528 13.456V14.416H43.528V13.456H41.528ZM41.528 14.416C41.528 14.3769 41.5354 14.3203 41.5613 14.2573C41.5874 14.194 41.6228 14.147 41.6529 14.1169L43.0671 15.5311C43.3688 15.2294 43.528 14.8382 43.528 14.416H41.528ZM41.7092 14.0647C41.7448 14.0343 41.7901 14.007 41.8412 13.989C41.8911 13.9714 41.931 13.968 41.952 13.968V15.968C42.3289 15.968 42.7017 15.8482 43.0108 15.5833L41.7092 14.0647ZM41.952 13.968H34.416V15.968H41.952V13.968ZM33.416 14.968V21.448H35.416V14.968H33.416ZM33.416 21.448C33.416 21.4089 33.4234 21.3523 33.4493 21.2892C33.4754 21.226 33.5108 21.179 33.5409 21.1489L34.9551 22.5631C35.2568 22.2614 35.416 21.8702 35.416 21.448H33.416ZM33.5972 21.0967C33.6328 21.0663 33.6781 21.039 33.7292 21.021C33.7791 21.0034 33.819 21 33.84 21V23C34.2169 23 34.5897 22.8802 34.8988 22.6153L33.5972 21.0967ZM33.84 21H32.64V23H33.84V21ZM44.8796 21.856L44.1204 22.5068L44.1704 22.5652L44.2288 22.6153L44.8796 21.856ZM44.8796 5.128L45.5867 5.83511L45.5867 5.83511L44.8796 5.128ZM46.7996 5.128L46.0404 5.77879L46.0904 5.8372L46.1488 5.88726L46.7996 5.128ZM46.7996 21.856L47.5067 22.5631L47.5067 22.5631L46.7996 21.856ZM45.2876 21C45.3087 21 45.3485 21.0034 45.3984 21.021C45.4495 21.039 45.4949 21.0663 45.5304 21.0967L44.2288 22.6153C44.538 22.8802 44.9107 23 45.2876 23V21ZM45.6389 21.2052C45.6694 21.2408 45.6966 21.2861 45.7146 21.3372C45.7322 21.3871 45.7356 21.427 45.7356 21.448H43.7356C43.7356 21.8249 43.8554 22.1977 44.1204 22.5068L45.6389 21.2052ZM45.7356 21.448V5.512H43.7356V21.448H45.7356ZM45.7356 5.512C45.7356 5.53186 45.7326 5.58149 45.708 5.64712C45.6822 5.71583 45.6404 5.78145 45.5867 5.83511L44.1725 4.42089C43.8558 4.73763 43.7356 5.13774 43.7356 5.512H45.7356ZM45.5867 5.83511C45.5566 5.86521 45.5096 5.90064 45.4464 5.92668C45.3834 5.95263 45.3267 5.96 45.2876 5.96V3.96C44.8654 3.96 44.4742 4.11923 44.1725 4.42089L45.5867 5.83511ZM45.2876 5.96H46.4156V3.96H45.2876V5.96ZM46.4156 5.96C46.3776 5.96 46.3103 5.95292 46.2308 5.91816C46.1492 5.88245 46.0847 5.83056 46.0404 5.77879L47.5589 4.47721C47.2554 4.12318 46.8396 3.96 46.4156 3.96V5.96ZM46.1488 5.88726C46.0971 5.84288 46.0452 5.77843 46.0095 5.69682C45.9747 5.61736 45.9676 5.55002 45.9676 5.512H47.9676C47.9676 5.08804 47.8044 4.6722 47.4504 4.36874L46.1488 5.88726ZM45.9676 5.512V21.448H47.9676V5.512H45.9676ZM45.9676 21.448C45.9676 21.4089 45.975 21.3523 46.0009 21.2893C46.027 21.226 46.0624 21.179 46.0925 21.1489L47.5067 22.5631C47.8084 22.2614 47.9676 21.8702 47.9676 21.448H45.9676ZM46.0925 21.1489C46.1462 21.0952 46.2118 21.0534 46.2805 21.0277C46.3461 21.0031 46.3958 21 46.4156 21V23C46.7899 23 47.19 22.8798 47.5067 22.5631L46.0925 21.1489ZM46.4156 21H45.2876V23H46.4156V21ZM50.4756 20.752L49.7569 21.4474L49.7627 21.4533L50.4756 20.752ZM48.9396 16.792L47.9398 16.8152L47.94 16.823L47.9403 16.8308L48.9396 16.792ZM48.9156 15.76L47.9158 15.7368L47.9153 15.76L47.9158 15.7832L48.9156 15.76ZM48.9396 14.728L47.9403 14.6888L47.94 14.6968L47.9398 14.7048L48.9396 14.728ZM50.4996 10.792L51.2124 11.4934L51.218 11.4876L50.4996 10.792ZM58.6596 10.792L57.9411 11.4876L57.9467 11.4933L58.6596 10.792ZM60.2196 14.728L59.2203 14.7672L59.2213 14.7929L59.2237 14.8185L60.2196 14.728ZM60.2196 16.792L59.2237 16.7015L59.2213 16.7273L59.2203 16.7532L60.2196 16.792ZM58.6596 20.752L57.9467 20.0506L57.941 20.0566L58.6596 20.752ZM56.9556 19.432L56.2214 18.7529L56.2123 18.763L56.9556 19.432ZM57.9156 16.672L56.9205 16.5725L56.9176 16.6022L56.9164 16.632L57.9156 16.672ZM57.9156 14.848L56.9164 14.888L56.9176 14.9178L56.9205 14.9475L57.9156 14.848ZM56.9556 12.088L56.2122 12.757L56.2215 12.767L56.9556 12.088ZM51.2436 14.848L50.2439 14.8213L50.2439 14.8217L51.2436 14.848ZM51.2196 15.76L50.2199 15.7337L50.2192 15.76L50.2199 15.7863L51.2196 15.76ZM51.2436 16.672L50.2439 16.6983L50.2439 16.6987L51.2436 16.672ZM52.1796 19.432L52.9137 18.753L52.9137 18.753L52.1796 19.432ZM54.5796 21.24C53.0128 21.24 51.9297 20.8041 51.1884 20.0507L49.7627 21.4533C50.9734 22.6839 52.6264 23.24 54.5796 23.24V21.24ZM51.1942 20.0566C50.4375 19.2747 49.9952 18.2057 49.9388 16.7532L47.9403 16.8308C48.0119 18.6743 48.5936 20.2453 49.757 21.4474L51.1942 20.0566ZM49.9393 16.7688L49.9153 15.7368L47.9158 15.7832L47.9398 16.8152L49.9393 16.7688ZM49.9153 15.7832L49.9393 14.7512L47.9398 14.7048L47.9158 15.7368L49.9153 15.7832ZM49.9388 14.7672C49.9948 13.338 50.4406 12.2777 51.2124 11.4933L49.7867 10.0907C48.6065 11.2903 48.0123 12.854 47.9403 14.6888L49.9388 14.7672ZM51.218 11.4876C51.9619 10.7193 53.0364 10.28 54.5796 10.28V8.28C52.6347 8.28 50.9892 8.84872 49.7811 10.0964L51.218 11.4876ZM54.5796 10.28C56.1227 10.28 57.1972 10.7193 57.9411 11.4876L59.378 10.0964C58.1699 8.84872 56.5244 8.28 54.5796 8.28V10.28ZM57.9467 11.4933C58.7185 12.2777 59.1643 13.338 59.2203 14.7672L61.2188 14.6888C61.1468 12.854 60.5526 11.2903 59.3724 10.0907L57.9467 11.4933ZM59.2237 14.8185C59.2349 14.9422 59.2436 15.2416 59.2436 15.76H61.2436C61.2436 15.2544 61.2362 14.8658 61.2155 14.6375L59.2237 14.8185ZM59.2436 15.76C59.2436 16.2784 59.2349 16.5778 59.2237 16.7015L61.2155 16.8825C61.2362 16.6542 61.2436 16.2656 61.2436 15.76H59.2436ZM59.2203 16.7532C59.1641 18.2012 58.7166 19.2681 57.9467 20.0507L59.3724 21.4533C60.5545 20.2519 61.147 18.6788 61.2188 16.8308L59.2203 16.7532ZM57.941 20.0566C57.2178 20.8039 56.1472 21.24 54.5796 21.24V23.24C56.5319 23.24 58.1814 22.6841 59.3782 21.4474L57.941 20.0566ZM54.5796 21.392C55.818 21.392 56.9004 20.9882 57.6989 20.101L56.2123 18.763C55.8587 19.1558 55.3572 19.392 54.5796 19.392V21.392ZM57.6897 20.111C58.4952 19.2402 58.8608 18.0602 58.9148 16.712L56.9164 16.632C56.8743 17.6838 56.5999 18.3438 56.2215 18.753L57.6897 20.111ZM58.9106 16.7715C58.9323 16.5546 58.9396 16.2024 58.9396 15.76H56.9396C56.9396 16.2136 56.9308 16.4694 56.9205 16.5725L58.9106 16.7715ZM58.9396 15.76C58.9396 15.3176 58.9323 14.9654 58.9106 14.7485L56.9205 14.9475C56.9308 15.0506 56.9396 15.3064 56.9396 15.76H58.9396ZM58.9148 14.808C58.8608 13.4598 58.4952 12.2798 57.6897 11.409L56.2215 12.767C56.5999 13.1762 56.8743 13.8362 56.9164 14.888L58.9148 14.808ZM57.6989 11.419C56.9004 10.5318 55.818 10.128 54.5796 10.128V12.128C55.3572 12.128 55.8587 12.3642 56.2123 12.757L57.6989 11.419ZM54.5796 10.128C53.3406 10.128 52.2569 10.5317 51.4455 11.409L52.9137 12.767C53.2862 12.3643 53.8026 12.128 54.5796 12.128V10.128ZM51.4455 11.409C50.6357 12.2844 50.2799 13.4704 50.2439 14.8213L52.2432 14.8747C52.2712 13.8256 52.5394 13.1716 52.9137 12.767L51.4455 11.409ZM50.2439 14.8217L50.2199 15.7337L52.2192 15.7863L52.2432 14.8743L50.2439 14.8217ZM50.2199 15.7863L50.2439 16.6983L52.2432 16.6457L52.2192 15.7337L50.2199 15.7863ZM50.2439 16.6987C50.2799 18.0496 50.6357 19.2356 51.4455 20.111L52.9137 18.753C52.5394 18.3484 52.2712 17.6944 52.2432 16.6453L50.2439 16.6987ZM51.4455 20.111C52.2569 20.9883 53.3406 21.392 54.5796 21.392V19.392C53.8026 19.392 53.2862 19.1557 52.9137 18.753L51.4455 20.111ZM63.5481 26.416L62.841 27.1231L62.841 27.1231L63.5481 26.416ZM63.5241 25.648L64.4344 26.0618L64.4403 26.0489L64.4458 26.0358L63.5241 25.648ZM65.3721 21.256L66.2938 21.6438L66.4575 21.2547L66.2929 20.866L65.3721 21.256ZM60.7881 10.432L59.8547 10.791L59.8607 10.8066L59.8672 10.822L60.7881 10.432ZM60.8121 9.664L61.5192 10.3711L61.5192 10.3711L60.8121 9.664ZM62.9241 9.928L63.8468 9.54266L63.8383 9.52223L63.8289 9.5022L62.9241 9.928ZM66.5721 18.664L65.6493 19.0493L66.5601 21.2305L67.4912 19.0579L66.5721 18.664ZM70.3161 9.928L69.4112 9.5022L69.4038 9.51802L69.3969 9.53408L70.3161 9.928ZM72.4281 10.432L73.3455 10.8298L73.3629 10.7897L73.3767 10.7482L72.4281 10.432ZM65.6121 26.152L66.5169 26.5778L66.5234 26.5639L66.5295 26.5498L65.6121 26.152ZM63.8841 25.56C63.9485 25.56 64.0233 25.5728 64.098 25.6049C64.1715 25.6364 64.2235 25.6772 64.2552 25.7089L62.841 27.1231C63.1119 27.394 63.4735 27.56 63.8841 27.56V25.56ZM64.2552 25.7089C64.2869 25.7406 64.3277 25.7925 64.3592 25.8661C64.3912 25.9408 64.4041 26.0155 64.4041 26.08H62.4041C62.4041 26.4906 62.57 26.8522 62.841 27.1231L64.2552 25.7089ZM64.4041 26.08C64.4041 26.111 64.4013 26.133 64.3996 26.1444C64.3978 26.1558 64.3964 26.1599 64.3976 26.1556C64.3987 26.1515 64.4017 26.1415 64.4079 26.1251C64.414 26.1088 64.4226 26.0878 64.4344 26.0618L62.6137 25.2342C62.5115 25.4591 62.4041 25.7571 62.4041 26.08H64.4041ZM64.4458 26.0358L66.2938 21.6438L64.4503 20.8682L62.6023 25.2602L64.4458 26.0358ZM66.2929 20.866L61.7089 10.042L59.8672 10.822L64.4512 21.646L66.2929 20.866ZM61.7214 10.073C61.7044 10.0288 61.6906 9.99131 61.6798 9.96013C61.6688 9.9286 61.6617 9.90626 61.6574 9.89183C61.6528 9.87616 61.6536 9.8767 61.6561 9.88938C61.6575 9.89624 61.6602 9.91039 61.6626 9.93032C61.6649 9.94936 61.6681 9.98189 61.6681 10.024H59.6681C59.6681 10.2109 59.7163 10.38 59.7387 10.4562C59.7693 10.5604 59.8098 10.6742 59.8547 10.791L61.7214 10.073ZM61.6681 10.024C61.6681 10.0647 61.6609 10.1265 61.6325 10.1974C61.6037 10.2694 61.562 10.3283 61.5192 10.3711L60.105 8.95689C59.8092 9.25269 59.6681 9.63264 59.6681 10.024H61.6681ZM61.5192 10.3711C61.4763 10.4139 61.4175 10.4557 61.3455 10.4845C61.2746 10.5128 61.2128 10.52 61.1721 10.52V8.52C60.7807 8.52 60.4007 8.6611 60.105 8.9569L61.5192 10.3711ZM61.1721 10.52H62.3481V8.52H61.1721V10.52ZM62.3481 10.52C62.2882 10.52 62.194 10.5003 62.106 10.438C62.0274 10.3823 62.0087 10.3314 62.0192 10.3538L63.8289 9.5022C63.7114 9.25255 63.5327 8.99768 63.2621 8.80598C62.9821 8.60766 62.664 8.52 62.3481 8.52V10.52ZM62.0013 10.3133L65.6493 19.0493L67.4948 18.2787L63.8468 9.54266L62.0013 10.3133ZM67.4912 19.0579L71.2352 10.3219L69.3969 9.53408L65.6529 18.2701L67.4912 19.0579ZM71.2209 10.3538C71.227 10.3407 71.2044 10.3945 71.1244 10.4489C71.0383 10.5074 70.9547 10.52 70.9161 10.52V8.52C70.6054 8.52 70.2858 8.60056 69.9998 8.79507C69.7197 8.98548 69.5331 9.24327 69.4112 9.5022L71.2209 10.3538ZM70.9161 10.52H72.0441V8.52H70.9161V10.52ZM72.0441 10.52C72.0033 10.52 71.9415 10.5128 71.8707 10.4845C71.7986 10.4557 71.7398 10.4139 71.697 10.3711L73.1112 8.95689C72.8154 8.6611 72.4354 8.52 72.0441 8.52V10.52ZM71.697 10.3711C71.6653 10.3394 71.6244 10.2875 71.5929 10.2139C71.5609 10.1392 71.5481 10.0645 71.5481 10H73.5481C73.5481 9.58945 73.3821 9.22781 73.1112 8.95689L71.697 10.3711ZM71.5481 10C71.5481 9.96937 71.5496 9.94436 71.551 9.92708C71.5525 9.90934 71.5543 9.89498 71.5557 9.88493C71.5584 9.86555 71.561 9.85301 71.5616 9.85005C71.5627 9.84468 71.5614 9.85175 71.5545 9.87636C71.5411 9.92472 71.5171 10.0025 71.4794 10.1158L73.3767 10.7482C73.419 10.6215 73.455 10.5073 73.4816 10.4116C73.4942 10.3663 73.5481 10.1843 73.5481 10H71.5481ZM71.5106 10.0342L64.6946 25.7542L66.5295 26.5498L73.3455 10.8298L71.5106 10.0342ZM64.7072 25.7262C64.7011 25.7393 64.7237 25.6855 64.8038 25.6311C64.8898 25.5726 64.9734 25.56 65.0121 25.56V27.56C65.3227 27.56 65.6423 27.4794 65.9284 27.2849C66.2084 27.0945 66.395 26.8367 66.5169 26.5778L64.7072 25.7262ZM65.0121 25.56H63.8841V27.56H65.0121V25.56ZM78.9789 21.856L78.2197 22.5068L78.2697 22.5652L78.3281 22.6153L78.9789 21.856ZM78.8349 11.44H79.8349V10.44H78.8349V11.44ZM76.3869 11.296L75.6277 11.9468L75.6777 12.0052L75.7361 12.0553L76.3869 11.296ZM76.3869 9.688L77.094 10.3951L77.094 10.3951L76.3869 9.688ZM78.8349 9.52V10.52H79.8349V9.52H78.8349ZM84.7869 4.408L84.0277 5.05879L84.0777 5.1172L84.1361 5.16726L84.7869 4.408ZM84.7869 6.016L85.494 6.72311L85.494 6.72311L84.7869 6.016ZM81.4989 6.736L82.2864 7.35231L82.2928 7.34422L82.2989 7.336L81.4989 6.736ZM81.0669 9.52H80.0669V10.52H81.0669V9.52ZM84.5469 9.688L83.7877 10.3388L83.8377 10.3972L83.8961 10.4473L84.5469 9.688ZM84.5469 11.296L85.254 12.0031L85.254 12.0031L84.5469 11.296ZM81.0669 11.44V10.44H80.0669V11.44H81.0669ZM80.8989 21.856L80.1918 21.1489L80.1918 21.1489L80.8989 21.856ZM79.3869 21C79.408 21 79.4478 21.0034 79.4978 21.021C79.5489 21.039 79.5942 21.0663 79.6297 21.0967L78.3281 22.6153C78.6373 22.8802 79.01 23 79.3869 23V21ZM79.7382 21.2052C79.7687 21.2408 79.7959 21.2861 79.8139 21.3372C79.8316 21.3871 79.8349 21.427 79.8349 21.448H77.8349C77.8349 21.8249 77.9547 22.1977 78.2197 22.5068L79.7382 21.2052ZM79.8349 21.448V11.44H77.8349V21.448H79.8349ZM78.8349 10.44H76.7949V12.44H78.8349V10.44ZM76.7949 10.44C76.816 10.44 76.8558 10.4434 76.9058 10.461C76.9569 10.479 77.0022 10.5063 77.0377 10.5367L75.7361 12.0553C76.0453 12.3202 76.418 12.44 76.7949 12.44V10.44ZM77.1462 10.6452C77.1767 10.6808 77.2039 10.7261 77.2219 10.7772C77.2396 10.8271 77.2429 10.867 77.2429 10.888H75.2429C75.2429 11.2649 75.3627 11.6377 75.6277 11.9468L77.1462 10.6452ZM77.2429 10.888V10.072H75.2429V10.888H77.2429ZM77.2429 10.072C77.2429 10.0919 77.2399 10.1415 77.2153 10.2071C77.1895 10.2758 77.1477 10.3414 77.094 10.3951L75.6798 8.98089C75.3631 9.29763 75.2429 9.69774 75.2429 10.072H77.2429ZM77.094 10.3951C77.0639 10.4252 77.0169 10.4606 76.9537 10.4867C76.8907 10.5126 76.834 10.52 76.7949 10.52V8.52C76.3727 8.52 75.9815 8.67923 75.6798 8.98089L77.094 10.3951ZM76.7949 10.52H78.8349V8.52H76.7949V10.52ZM79.8349 9.52V8.32H77.8349V9.52H79.8349ZM79.8349 8.32C79.8349 7.11712 80.1381 6.39799 80.5699 5.97123C81.0038 5.54234 81.7382 5.24 82.9629 5.24V3.24C81.4357 3.24 80.106 3.61766 79.164 4.54877C78.2198 5.48201 77.8349 6.80288 77.8349 8.32H79.8349ZM82.9629 5.24H84.4029V3.24H82.9629V5.24ZM84.4029 5.24C84.3649 5.24 84.2976 5.23292 84.2181 5.19816C84.1365 5.16245 84.0721 5.11056 84.0277 5.05879L85.5462 3.75721C85.2427 3.40318 84.8269 3.24 84.4029 3.24V5.24ZM84.1361 5.16726C84.0844 5.12288 84.0325 5.05843 83.9968 4.97682C83.962 4.89736 83.9549 4.83002 83.9549 4.792H85.9549C85.9549 4.36804 85.7918 3.9522 85.4377 3.64874L84.1361 5.16726ZM83.9549 4.792V5.608H85.9549V4.792H83.9549ZM83.9549 5.608C83.9549 5.56893 83.9623 5.51227 83.9883 5.44925C84.0143 5.38603 84.0497 5.339 84.0798 5.30889L85.494 6.72311C85.7957 6.42144 85.9549 6.03019 85.9549 5.608H83.9549ZM84.0798 5.30889C84.1335 5.25523 84.1991 5.21343 84.2678 5.18767C84.3334 5.16306 84.3831 5.16 84.4029 5.16V7.16C84.7772 7.16 85.1773 7.03984 85.494 6.72311L84.0798 5.30889ZM84.4029 5.16H83.0109V7.16H84.4029V5.16ZM83.0109 5.16C82.1393 5.16 81.2559 5.39337 80.6989 6.136L82.2989 7.336C82.318 7.31063 82.4426 7.16 83.0109 7.16V5.16ZM80.7114 6.11969C80.2219 6.74523 80.0669 7.58088 80.0669 8.44H82.0669C82.0669 7.76312 82.2 7.46277 82.2864 7.35231L80.7114 6.11969ZM80.0669 8.44V9.52H82.0669V8.44H80.0669ZM81.0669 10.52H84.1629V8.52H81.0669V10.52ZM84.1629 10.52C84.1249 10.52 84.0576 10.5129 83.9781 10.4782C83.8965 10.4425 83.8321 10.3906 83.7877 10.3388L85.3062 9.03721C85.0027 8.68318 84.5869 8.52 84.1629 8.52V10.52ZM83.8961 10.4473C83.8444 10.4029 83.7925 10.3384 83.7568 10.2568C83.722 10.1774 83.7149 10.11 83.7149 10.072H85.7149C85.7149 9.64804 85.5518 9.2322 85.1977 8.92874L83.8961 10.4473ZM83.7149 10.072V10.888H85.7149V10.072H83.7149ZM83.7149 10.888C83.7149 10.8489 83.7223 10.7923 83.7483 10.7293C83.7743 10.666 83.8097 10.619 83.8398 10.5889L85.254 12.0031C85.5557 11.7014 85.7149 11.3102 85.7149 10.888H83.7149ZM83.8398 10.5889C83.8935 10.5352 83.9591 10.4934 84.0278 10.4677C84.0934 10.4431 84.1431 10.44 84.1629 10.44V12.44C84.5372 12.44 84.9373 12.3198 85.254 12.0031L83.8398 10.5889ZM84.1629 10.44H81.0669V12.44H84.1629V10.44ZM80.0669 11.44V21.448H82.0669V11.44H80.0669ZM80.0669 21.448C80.0669 21.4089 80.0743 21.3523 80.1003 21.2893C80.1263 21.226 80.1617 21.179 80.1918 21.1489L81.606 22.5631C81.9077 22.2614 82.0669 21.8702 82.0669 21.448H80.0669ZM80.1918 21.1489C80.2455 21.0952 80.3111 21.0534 80.3798 21.0277C80.4454 21.0031 80.4951 21 80.5149 21V23C80.8892 23 81.2893 22.8798 81.606 22.5631L80.1918 21.1489ZM80.5149 21H79.3869V23H80.5149V21ZM86.5149 20.752L85.7963 21.4474L85.8021 21.4533L86.5149 20.752ZM84.9789 16.792L83.9792 16.8152L83.9794 16.823L83.9797 16.8308L84.9789 16.792ZM84.9549 15.76L83.9552 15.7368L83.9547 15.76L83.9552 15.7832L84.9549 15.76ZM84.9789 14.728L83.9797 14.6888L83.9794 14.6968L83.9792 14.7048L84.9789 14.728ZM86.5389 10.792L87.2518 11.4934L87.2574 11.4876L86.5389 10.792ZM94.6989 10.792L93.9805 11.4876L93.9861 11.4933L94.6989 10.792ZM96.2589 14.728L95.2597 14.7672L95.2607 14.7929L95.263 14.8185L96.2589 14.728ZM96.2589 16.792L95.263 16.7015L95.2607 16.7273L95.2597 16.7532L96.2589 16.792ZM94.6989 20.752L93.9861 20.0506L93.9803 20.0566L94.6989 20.752ZM92.9949 19.432L92.2608 18.7529L92.2516 18.763L92.9949 19.432ZM93.9549 16.672L92.9599 16.5725L92.9569 16.6022L92.9557 16.632L93.9549 16.672ZM93.9549 14.848L92.9557 14.888L92.9569 14.9178L92.9599 14.9475L93.9549 14.848ZM92.9949 12.088L92.2516 12.757L92.2608 12.767L92.9949 12.088ZM87.2829 14.848L86.2833 14.8213L86.2833 14.8217L87.2829 14.848ZM87.2589 15.76L86.2593 15.7337L86.2586 15.76L86.2593 15.7863L87.2589 15.76ZM87.2829 16.672L86.2833 16.6983L86.2833 16.6987L87.2829 16.672ZM88.2189 19.432L88.953 18.753L88.953 18.753L88.2189 19.432ZM90.6189 21.24C89.0521 21.24 87.9691 20.8041 87.2278 20.0507L85.8021 21.4533C87.0128 22.6839 88.6657 23.24 90.6189 23.24V21.24ZM87.2335 20.0566C86.4769 19.2747 86.0346 18.2057 85.9782 16.7532L83.9797 16.8308C84.0513 18.6743 84.633 20.2453 85.7963 21.4474L87.2335 20.0566ZM85.9787 16.7688L85.9547 15.7368L83.9552 15.7832L83.9792 16.8152L85.9787 16.7688ZM85.9547 15.7832L85.9787 14.7512L83.9792 14.7048L83.9552 15.7368L85.9547 15.7832ZM85.9782 14.7672C86.0342 13.338 86.48 12.2777 87.2518 11.4933L85.8261 10.0907C84.6459 11.2903 84.0517 12.854 83.9797 14.6888L85.9782 14.7672ZM87.2574 11.4876C88.0013 10.7193 89.0758 10.28 90.6189 10.28V8.28C88.6741 8.28 87.0286 8.84872 85.8205 10.0964L87.2574 11.4876ZM90.6189 10.28C92.1621 10.28 93.2366 10.7193 93.9805 11.4876L95.4174 10.0964C94.2093 8.84872 92.5638 8.28 90.6189 8.28V10.28ZM93.9861 11.4933C94.7579 12.2777 95.2037 13.338 95.2597 14.7672L97.2582 14.6888C97.1862 12.854 96.592 11.2903 95.4118 10.0907L93.9861 11.4933ZM95.263 14.8185C95.2743 14.9422 95.2829 15.2416 95.2829 15.76H97.2829C97.2829 15.2544 97.2756 14.8658 97.2548 14.6375L95.263 14.8185ZM95.2829 15.76C95.2829 16.2784 95.2743 16.5778 95.263 16.7015L97.2548 16.8825C97.2756 16.6542 97.2829 16.2656 97.2829 15.76H95.2829ZM95.2597 16.7532C95.2035 18.2012 94.756 19.2681 93.9861 20.0507L95.4118 21.4533C96.5939 20.2519 97.1864 18.6788 97.2582 16.8308L95.2597 16.7532ZM93.9803 20.0566C93.2571 20.8039 92.1866 21.24 90.6189 21.24V23.24C92.5713 23.24 94.2207 22.6841 95.4175 21.4474L93.9803 20.0566ZM90.6189 21.392C91.8573 21.392 92.9398 20.9882 93.7382 20.101L92.2516 18.763C91.8981 19.1558 91.3965 19.392 90.6189 19.392V21.392ZM93.729 20.111C94.5346 19.2402 94.9002 18.0602 94.9541 16.712L92.9557 16.632C92.9137 17.6838 92.6393 18.3438 92.2608 18.753L93.729 20.111ZM94.95 16.7715C94.9717 16.5546 94.9789 16.2024 94.9789 15.76H92.9789C92.9789 16.2136 92.9702 16.4694 92.9599 16.5725L94.95 16.7715ZM94.9789 15.76C94.9789 15.3176 94.9717 14.9654 94.95 14.7485L92.9599 14.9475C92.9702 15.0506 92.9789 15.3064 92.9789 15.76H94.9789ZM94.9541 14.808C94.9002 13.4598 94.5346 12.2798 93.729 11.409L92.2608 12.767C92.6393 13.1762 92.9137 13.8362 92.9557 14.888L94.9541 14.808ZM93.7382 11.419C92.9398 10.5318 91.8573 10.128 90.6189 10.128V12.128C91.3965 12.128 91.8981 12.3642 92.2516 12.757L93.7382 11.419ZM90.6189 10.128C89.3799 10.128 88.2963 10.5317 87.4848 11.409L88.953 12.767C89.3256 12.3643 89.8419 12.128 90.6189 12.128V10.128ZM87.4848 11.409C86.6751 12.2844 86.3193 13.4704 86.2833 14.8213L88.2826 14.8747C88.3106 13.8256 88.5788 13.1716 88.953 12.767L87.4848 11.409ZM86.2833 14.8217L86.2593 15.7337L88.2586 15.7863L88.2826 14.8743L86.2833 14.8217ZM86.2593 15.7863L86.2833 16.6983L88.2826 16.6457L88.2586 15.7337L86.2593 15.7863ZM86.2833 16.6987C86.3193 18.0496 86.6751 19.2356 87.4848 20.111L88.953 18.753C88.5788 18.3484 88.3106 17.6944 88.2826 16.6453L86.2833 16.6987ZM87.4848 20.111C88.2963 20.9883 89.3799 21.392 90.6189 21.392V19.392C89.8419 19.392 89.3256 19.1557 88.953 18.753L87.4848 20.111ZM99.3362 20.776L98.57 21.4186L98.5752 21.4247L99.3362 20.776ZM98.2322 9.688L98.9393 10.3951L98.9393 10.3951L98.2322 9.688ZM100.224 9.688L99.4649 10.3388L99.515 10.3972L99.5734 10.4473L100.224 9.688ZM105.912 19.36L106.638 20.0483L106.646 20.039L105.912 19.36ZM106.944 9.688L107.651 10.3951L107.651 10.3951L106.944 9.688ZM108.936 9.688L108.177 10.3388L108.202 10.3679L108.229 10.3951L108.936 9.688ZM108.936 21.856L109.643 22.5631L109.67 22.5359L109.695 22.5068L108.936 21.856ZM107.016 21.856L106.257 22.5068L106.307 22.5652L106.365 22.6153L107.016 21.856ZM106.872 20.392H107.872V17.3491L106.067 19.7988L106.872 20.392ZM105.24 21.784L105.669 22.6873L105.678 22.6829L105.687 22.6784L105.24 21.784ZM102.864 21.24C101.577 21.24 100.704 20.8386 100.097 20.1273L98.5752 21.4247C99.6328 22.6654 101.111 23.24 102.864 23.24V21.24ZM100.102 20.1334C99.4574 19.3644 99.0882 18.2998 99.0882 16.84H97.0882C97.0882 18.6442 97.551 20.2036 98.57 21.4186L100.102 20.1334ZM99.0882 16.84V10.072H97.0882V16.84H99.0882ZM99.0882 10.072C99.0882 10.0919 99.0851 10.1415 99.0605 10.2071C99.0348 10.2758 98.993 10.3414 98.9393 10.3951L97.5251 8.98089C97.2083 9.29763 97.0882 9.69774 97.0882 10.072H99.0882ZM98.9393 10.3951C98.9092 10.4252 98.8622 10.4606 98.7989 10.4867C98.7359 10.5126 98.6793 10.52 98.6402 10.52V8.52C98.218 8.52 97.8267 8.67923 97.5251 8.98089L98.9393 10.3951ZM98.6402 10.52H99.8402V8.52H98.6402V10.52ZM99.8402 10.52C99.8022 10.52 99.7348 10.5129 99.6554 10.4782C99.5738 10.4425 99.5093 10.3906 99.4649 10.3388L100.983 9.03721C100.68 8.68318 100.264 8.52 99.8402 8.52V10.52ZM99.5734 10.4473C99.5216 10.4029 99.4697 10.3384 99.434 10.2568C99.3993 10.1774 99.3922 10.11 99.3922 10.072H101.392C101.392 9.64804 101.229 9.2322 100.875 8.92874L99.5734 10.4473ZM99.3922 10.072V16.72H101.392V10.072H99.3922ZM99.3922 16.72C99.3922 18.0352 99.6761 19.2083 100.419 20.0594C101.184 20.9366 102.28 21.296 103.512 21.296V19.296C102.665 19.296 102.2 19.0594 101.926 18.7446C101.628 18.4037 101.392 17.7888 101.392 16.72H99.3922ZM103.512 21.296C104.743 21.296 105.824 20.9057 106.638 20.0483L105.187 18.6717C104.816 19.0623 104.297 19.296 103.512 19.296V21.296ZM106.646 20.039C107.454 19.1662 107.8 18.0176 107.8 16.72H105.8C105.8 17.6624 105.555 18.2738 105.178 18.681L106.646 20.039ZM107.8 16.72V10.072H105.8V16.72H107.8ZM107.8 10.072C107.8 10.0919 107.797 10.1415 107.773 10.2071C107.747 10.2758 107.705 10.3414 107.651 10.3951L106.237 8.98089C105.92 9.29763 105.8 9.69774 105.8 10.072H107.8ZM107.651 10.3951C107.621 10.4252 107.574 10.4606 107.511 10.4867C107.448 10.5126 107.391 10.52 107.352 10.52V8.52C106.93 8.52 106.539 8.67923 106.237 8.98089L107.651 10.3951ZM107.352 10.52H108.552V8.52H107.352V10.52ZM108.552 10.52C108.514 10.52 108.447 10.5129 108.367 10.4782C108.286 10.4425 108.221 10.3906 108.177 10.3388L109.695 9.03721C109.392 8.68318 108.976 8.52 108.552 8.52V10.52ZM108.229 10.3951C108.175 10.3414 108.134 10.2758 108.108 10.2071C108.083 10.1415 108.08 10.0919 108.08 10.072H110.08C110.08 9.69775 109.96 9.29763 109.643 8.98089L108.229 10.3951ZM108.08 10.072V21.448H110.08V10.072H108.08ZM108.08 21.448C108.08 21.427 108.084 21.3871 108.101 21.3372C108.119 21.2861 108.146 21.2408 108.177 21.2052L109.695 22.5068C109.96 22.1977 110.08 21.8249 110.08 21.448H108.08ZM108.229 21.1489C108.283 21.0952 108.348 21.0534 108.417 21.0277C108.483 21.0031 108.532 21 108.552 21V23C108.926 23 109.327 22.8798 109.643 22.5631L108.229 21.1489ZM108.552 21H107.424V23H108.552V21ZM107.424 21C107.445 21 107.485 21.0034 107.535 21.021C107.586 21.039 107.631 21.0663 107.667 21.0967L106.365 22.6153C106.675 22.8802 107.047 23 107.424 23V21ZM107.775 21.2052C107.806 21.2408 107.833 21.2861 107.851 21.3372C107.869 21.3871 107.872 21.427 107.872 21.448H105.872C105.872 21.8249 105.992 22.1977 106.257 22.5068L107.775 21.2052ZM107.872 21.448V20.392H105.872V21.448H107.872ZM106.067 19.7988C105.708 20.2868 105.284 20.6442 104.793 20.8896L105.687 22.6784C106.477 22.2838 107.141 21.7132 107.677 20.9852L106.067 19.7988ZM104.811 20.8807C104.342 21.1036 103.707 21.24 102.864 21.24V23.24C103.91 23.24 104.858 23.0724 105.669 22.6873L104.811 20.8807ZM111.71 21.856L110.95 22.5068L111 22.5652L111.059 22.6153L111.71 21.856ZM111.71 9.688L112.417 10.3951L112.417 10.3951L111.71 9.688ZM113.63 9.688L112.87 10.3388L112.92 10.3972L112.979 10.4473L113.63 9.688ZM113.798 11.128H112.798V14.0249L114.585 11.7449L113.798 11.128ZM115.43 9.76L114.982 8.86552L114.973 8.87018L115.43 9.76ZM121.382 10.768L120.622 11.4178L120.627 11.4244L120.633 11.4308L121.382 10.768ZM122.51 21.856L123.217 22.5631L123.217 22.5631L122.51 21.856ZM120.518 21.856L119.758 22.5068L119.808 22.5652L119.867 22.6153L120.518 21.856ZM119.534 12.16L118.78 12.8171L118.785 12.8226L118.789 12.8279L119.534 12.16ZM114.758 12.184L115.483 12.8723L115.492 12.863L114.758 12.184ZM113.702 21.856L112.995 21.1489L112.995 21.1489L113.702 21.856ZM112.118 21C112.139 21 112.179 21.0034 112.229 21.021C112.28 21.039 112.325 21.0663 112.36 21.0967L111.059 22.6153C111.368 22.8802 111.741 23 112.118 23V21ZM112.469 21.2052C112.499 21.2408 112.527 21.2861 112.545 21.3372C112.562 21.3871 112.566 21.427 112.566 21.448H110.566C110.566 21.8249 110.685 22.1977 110.95 22.5068L112.469 21.2052ZM112.566 21.448V10.072H110.566V21.448H112.566ZM112.566 10.072C112.566 10.0919 112.563 10.1415 112.538 10.2071C112.512 10.2758 112.47 10.3414 112.417 10.3951L111.003 8.98089C110.686 9.29763 110.566 9.69774 110.566 10.072H112.566ZM112.417 10.3951C112.387 10.4252 112.34 10.4606 112.276 10.4867C112.213 10.5126 112.157 10.52 112.118 10.52V8.52C111.695 8.52 111.304 8.67923 111.003 8.98089L112.417 10.3951ZM112.118 10.52H113.246V8.52H112.118V10.52ZM113.246 10.52C113.208 10.52 113.14 10.5129 113.061 10.4782C112.979 10.4425 112.915 10.3906 112.87 10.3388L114.389 9.03721C114.085 8.68318 113.67 8.52 113.246 8.52V10.52ZM112.979 10.4473C112.927 10.4029 112.875 10.3384 112.84 10.2568C112.805 10.1774 112.798 10.11 112.798 10.072H114.798C114.798 9.64804 114.635 9.2322 114.28 8.92874L112.979 10.4473ZM112.798 10.072V11.128H114.798V10.072H112.798ZM114.585 11.7449C114.966 11.2583 115.4 10.8991 115.886 10.6498L114.973 8.87018C114.212 9.26088 113.557 9.8137 113.011 10.5111L114.585 11.7449ZM115.877 10.6544C116.341 10.4224 116.969 10.28 117.806 10.28V8.28C116.754 8.28 115.798 8.45761 114.982 8.86557L115.877 10.6544ZM117.806 10.28C119.106 10.28 119.998 10.6881 120.622 11.4178L122.142 10.1182C121.07 8.8639 119.577 8.28 117.806 8.28V10.28ZM120.633 11.4308C121.297 12.1813 121.678 13.2284 121.678 14.68H123.678C123.678 12.8676 123.194 11.3067 122.13 10.1052L120.633 11.4308ZM121.678 14.68V21.448H123.678V14.68H121.678ZM121.678 21.448C121.678 21.4089 121.685 21.3523 121.711 21.2893C121.737 21.226 121.772 21.179 121.803 21.1489L123.217 22.5631C123.518 22.2614 123.678 21.8702 123.678 21.448H121.678ZM121.803 21.1489C121.856 21.0952 121.922 21.0534 121.991 21.0277C122.056 21.0031 122.106 21 122.126 21V23C122.5 23 122.9 22.8798 123.217 22.5631L121.803 21.1489ZM122.126 21H120.926V23H122.126V21ZM120.926 21C120.947 21 120.987 21.0034 121.037 21.021C121.088 21.039 121.133 21.0663 121.168 21.0967L119.867 22.6153C120.176 22.8802 120.549 23 120.926 23V21ZM121.277 21.2052C121.307 21.2408 121.335 21.2861 121.353 21.3372C121.37 21.3871 121.374 21.427 121.374 21.448H119.374C119.374 21.8249 119.493 22.1977 119.758 22.5068L121.277 21.2052ZM121.374 21.448V14.8H119.374V21.448H121.374ZM121.374 14.8C121.374 13.5059 121.053 12.3562 120.278 11.4921L118.789 12.8279C119.134 13.2118 119.374 13.8221 119.374 14.8H121.374ZM120.287 11.5029C119.507 10.6073 118.407 10.224 117.158 10.224V12.224C117.989 12.224 118.473 12.4647 118.78 12.8171L120.287 11.5029ZM117.158 10.224C115.919 10.224 114.835 10.6277 114.024 11.505L115.492 12.863C115.864 12.4603 116.381 12.224 117.158 12.224V10.224ZM114.032 11.4957C113.216 12.3564 112.87 13.5038 112.87 14.8H114.87C114.87 13.8561 115.116 13.2596 115.483 12.8723L114.032 11.4957ZM112.87 14.8V21.448H114.87V14.8H112.87ZM112.87 21.448C112.87 21.4089 112.877 21.3523 112.903 21.2893C112.929 21.226 112.964 21.179 112.995 21.1489L114.409 22.5631C114.71 22.2614 114.87 21.8702 114.87 21.448H112.87ZM112.995 21.1489C113.048 21.0952 113.114 21.0534 113.183 21.0277C113.248 21.0031 113.298 21 113.318 21V23C113.692 23 114.092 22.8798 114.409 22.5631L112.995 21.1489ZM113.318 21H112.118V23H113.318V21ZM125.832 20.608L126.621 19.9933L126.621 19.9933L125.832 20.608ZM124.488 16.48L125.488 16.4512L125.488 16.4467L124.488 16.48ZM124.464 15.76L123.465 15.7267L123.464 15.76L123.465 15.7933L124.464 15.76ZM124.488 15.04L125.488 15.0733L125.488 15.0691L124.488 15.04ZM125.832 10.936L126.621 11.5508L126.625 11.5452L125.832 10.936ZM133.488 11.032L132.711 11.6606L134.488 13.8602V11.032H133.488ZM133.632 5.128L134.339 5.83511L134.339 5.83511L133.632 5.128ZM135.576 5.128L134.817 5.77879L134.867 5.8372L134.926 5.88726L135.576 5.128ZM135.576 21.856L134.869 21.1489L134.869 21.1489L135.576 21.856ZM133.704 21.856L132.945 22.5068L132.995 22.5652L133.054 22.6153L133.704 21.856ZM133.56 20.44H134.56V17.5122L132.769 19.8283L133.56 20.44ZM132.576 19.216L131.781 18.6105L131.779 18.6132L132.576 19.216ZM133.488 16.6L132.492 16.5095L132.491 16.5309L132.49 16.5524L133.488 16.6ZM133.488 14.752L132.489 14.7859L132.49 14.8143L132.492 14.8425L133.488 14.752ZM132.576 12.28L131.802 12.9132L131.802 12.9132L132.576 12.28ZM127.608 12.28L126.808 11.68L126.804 11.6859L126.8 11.6918L127.608 12.28ZM126.768 15.064L125.769 15.0224L125.769 15.0295L126.768 15.064ZM126.744 15.76L125.745 15.7255L125.744 15.7428V15.76H126.744ZM129.6 21.24C128.174 21.24 127.24 20.7872 126.621 19.9933L125.044 21.2227C126.121 22.6048 127.699 23.24 129.6 23.24V21.24ZM126.621 19.9933C125.929 19.1055 125.531 17.9475 125.488 16.4512L123.489 16.5088C123.542 18.3405 124.04 19.9345 125.044 21.2227L126.621 19.9933ZM125.488 16.4467L125.464 15.7267L123.465 15.7933L123.489 16.5133L125.488 16.4467ZM125.464 15.7933L125.488 15.0733L123.489 15.0067L123.465 15.7267L125.464 15.7933ZM125.488 15.0691C125.531 13.5911 125.928 12.4402 126.621 11.5507L125.044 10.3213C124.041 11.6078 123.542 13.1929 123.489 15.0109L125.488 15.0691ZM126.625 11.5452C127.246 10.7369 128.179 10.28 129.6 10.28V8.28C127.694 8.28 126.114 8.92709 125.039 10.3268L126.625 11.5452ZM129.6 10.28C130.98 10.28 131.977 10.7524 132.711 11.6606L134.266 10.4034C133.112 8.97563 131.517 8.28 129.6 8.28V10.28ZM134.488 11.032V5.512H132.488V11.032H134.488ZM134.488 5.512C134.488 5.53186 134.485 5.58149 134.461 5.64712C134.435 5.71583 134.393 5.78145 134.339 5.83511L132.925 4.42089C132.609 4.73763 132.488 5.13774 132.488 5.512H134.488ZM134.339 5.83511C134.309 5.86521 134.262 5.90064 134.199 5.92668C134.136 5.95263 134.079 5.96 134.04 5.96V3.96C133.618 3.96 133.227 4.11923 132.925 4.42089L134.339 5.83511ZM134.04 5.96H135.192V3.96H134.04V5.96ZM135.192 5.96C135.154 5.96 135.087 5.95292 135.008 5.91816C134.926 5.88245 134.861 5.83056 134.817 5.77879L136.336 4.47721C136.032 4.12318 135.616 3.96 135.192 3.96V5.96ZM134.926 5.88726C134.874 5.84288 134.822 5.77843 134.786 5.69682C134.751 5.61736 134.744 5.55002 134.744 5.512H136.744C136.744 5.08803 136.581 4.6722 136.227 4.36874L134.926 5.88726ZM134.744 5.512V21.448H136.744V5.512H134.744ZM134.744 21.448C134.744 21.4089 134.752 21.3523 134.778 21.2892C134.804 21.226 134.839 21.179 134.869 21.1489L136.283 22.5631C136.585 22.2614 136.744 21.8702 136.744 21.448H134.744ZM134.869 21.1489C134.923 21.0952 134.989 21.0534 135.057 21.0277C135.123 21.0031 135.173 21 135.192 21V23C135.567 23 135.967 22.8798 136.283 22.5631L134.869 21.1489ZM135.192 21H134.112V23H135.192V21ZM134.112 21C134.133 21 134.173 21.0034 134.223 21.021C134.274 21.039 134.32 21.0663 134.355 21.0967L133.054 22.6153C133.363 22.8802 133.735 23 134.112 23V21ZM134.464 21.2052C134.494 21.2408 134.521 21.2861 134.539 21.3372C134.557 21.3871 134.56 21.427 134.56 21.448H132.56C132.56 21.8249 132.68 22.1977 132.945 22.5068L134.464 21.2052ZM134.56 21.448V20.44H132.56V21.448H134.56ZM132.769 19.8283C132.057 20.7496 131.048 21.24 129.6 21.24V23.24C131.577 23.24 133.208 22.5304 134.351 21.0517L132.769 19.8283ZM130.104 21.296C131.444 21.296 132.599 20.8454 133.374 19.8188L131.779 18.6132C131.466 19.0266 130.973 19.296 130.104 19.296V21.296ZM133.372 19.8215C134.066 18.9096 134.431 17.8385 134.487 16.6476L132.49 16.5524C132.45 17.3775 132.207 18.0504 131.781 18.6105L133.372 19.8215ZM134.484 16.6905C134.505 16.4645 134.512 16.1195 134.512 15.688H132.512C132.512 16.1205 132.504 16.3835 132.492 16.5095L134.484 16.6905ZM134.512 15.688C134.512 15.2418 134.505 14.8881 134.484 14.6615L132.492 14.8425C132.504 14.9679 132.512 15.2382 132.512 15.688H134.512ZM134.488 14.7181C134.449 13.5641 134.071 12.5273 133.35 11.6468L131.802 12.9132C132.234 13.4407 132.464 14.0519 132.489 14.7859L134.488 14.7181ZM133.35 11.6468C132.55 10.6681 131.417 10.224 130.104 10.224V12.224C130.936 12.224 131.451 12.4839 131.802 12.9132L133.35 11.6468ZM130.104 10.224C128.754 10.224 127.578 10.6534 126.808 11.68L128.408 12.88C128.694 12.4986 129.183 12.224 130.104 12.224V10.224ZM126.8 11.6918C126.14 12.5994 125.823 13.7362 125.769 15.0224L127.768 15.1056C127.81 14.0878 128.053 13.3686 128.417 12.8682L126.8 11.6918ZM125.769 15.0295L125.745 15.7255L127.744 15.7945L127.768 15.0985L125.769 15.0295ZM125.744 15.76C125.744 17.3662 126.037 18.7526 126.781 19.7572C127.567 20.818 128.736 21.296 130.104 21.296V19.296C129.233 19.296 128.722 19.018 128.388 18.5668C128.012 18.0594 127.744 17.1778 127.744 15.76H125.744ZM139.53 21.76L139.96 20.8571L139.96 20.8571L139.53 21.76ZM137.922 20.464L137.097 21.0295L137.106 21.0431L137.116 21.0564L137.922 20.464ZM138.642 16.024L139.256 16.8134L139.258 16.8118L138.642 16.024ZM142.194 14.68L142.332 15.6704L142.333 15.6702L142.194 14.68ZM145.77 14.176L145.909 15.1662L146.77 15.0449V14.176H145.77ZM141.234 11.488L141.775 12.3292L141.785 12.3225L141.795 12.3155L141.234 11.488ZM140.226 12.52L139.353 12.0314L139.307 12.114L139.277 12.2038L140.226 12.52ZM140.034 12.832L139.409 12.0511L139.366 12.0857L139.327 12.1249L140.034 12.832ZM138.33 12.784L137.571 13.4348L137.621 13.4932L137.679 13.5433L138.33 12.784ZM138.186 12.4L137.187 12.3584L137.186 12.3792V12.4H138.186ZM138.714 11.104L137.898 10.5252L137.895 10.5305L138.714 11.104ZM140.322 9.832L140.761 10.7304L140.769 10.7265L140.777 10.7224L140.322 9.832ZM146.85 10.552L146.116 11.2309L146.122 11.2378L146.85 10.552ZM147.858 21.856L148.565 22.5631L148.565 22.5631L147.858 21.856ZM145.962 21.856L145.203 22.5068L145.253 22.5652L145.311 22.6153L145.962 21.856ZM145.818 20.416H146.818V17.1963L144.994 19.8495L145.818 20.416ZM144.282 21.712L143.818 20.8262L143.818 20.8262L144.282 21.712ZM144.762 19.432L144.046 18.7333L144.046 18.7335L144.762 19.432ZM145.77 15.808H146.77V14.6508L145.625 14.8186L145.77 15.808ZM142.986 16.216L143.125 17.2062L143.131 17.2054L142.986 16.216ZM140.418 17.032L140.956 17.8747L140.964 17.8695L140.973 17.864L140.418 17.032ZM140.346 19.936L139.791 20.7681L139.8 20.774L139.809 20.7797L140.346 19.936ZM141.714 21.24C141.07 21.24 140.49 21.1098 139.96 20.8571L139.1 22.6629C139.913 23.0502 140.789 23.24 141.714 23.24V21.24ZM139.96 20.8571C139.421 20.6007 139.02 20.2695 138.727 19.8716L137.116 21.0564C137.624 21.7465 138.294 22.2793 139.1 22.6629L139.96 20.8571ZM138.747 19.8985C138.475 19.5031 138.346 19.0839 138.346 18.616H136.346C136.346 19.4921 136.6 20.3049 137.097 21.0295L138.747 19.8985ZM138.346 18.616C138.346 17.8815 138.625 17.304 139.256 16.8134L138.028 15.2346C136.931 16.088 136.346 17.2385 136.346 18.616H138.346ZM139.258 16.8118C139.959 16.2632 140.961 15.8621 142.332 15.6704L142.055 13.6896C140.451 13.9139 139.084 14.4087 138.026 15.2362L139.258 16.8118ZM142.333 15.6702L145.909 15.1662L145.63 13.1858L142.054 13.6898L142.333 15.6702ZM146.77 14.176V13.48H144.77V14.176H146.77ZM146.77 13.48C146.77 12.4714 146.474 11.5435 145.725 10.8902C145.002 10.2599 144.021 10.032 142.962 10.032V12.032C143.775 12.032 144.198 12.2121 144.411 12.3978C144.597 12.5605 144.77 12.8566 144.77 13.48H146.77ZM142.962 10.032C142.117 10.032 141.329 10.2148 140.672 10.6605L141.795 12.3155C142.034 12.1532 142.398 12.032 142.962 12.032V10.032ZM140.693 10.6468C140.13 11.009 139.669 11.4669 139.353 12.0314L141.098 13.0086C141.23 12.7731 141.442 12.543 141.775 12.3292L140.693 10.6468ZM139.277 12.2038C139.272 12.2198 139.274 12.2088 139.29 12.1819C139.307 12.1542 139.344 12.1033 139.409 12.0511L140.659 13.6129C140.945 13.3836 141.093 13.0803 141.174 12.8362L139.277 12.2038ZM139.327 12.1249C139.516 11.9352 139.72 11.928 139.746 11.928V13.928C140.028 13.928 140.423 13.8568 140.741 13.5391L139.327 12.1249ZM139.746 11.928H138.714V13.928H139.746V11.928ZM138.714 11.928C138.755 11.928 138.807 11.9354 138.861 11.9557C138.915 11.9759 138.955 12.0027 138.981 12.0247L137.679 13.5433C137.967 13.7905 138.325 13.928 138.714 13.928V11.928ZM139.089 12.1332C139.111 12.1589 139.138 12.199 139.158 12.2529C139.178 12.3071 139.186 12.3586 139.186 12.4H137.186C137.186 12.789 137.323 13.1464 137.571 13.4348L139.089 12.1332ZM139.185 12.4416C139.19 12.3239 139.253 12.0772 139.533 11.6775L137.895 10.5305C137.502 11.0908 137.214 11.7081 137.187 12.3584L139.185 12.4416ZM139.529 11.6827C139.759 11.3595 140.145 11.0315 140.761 10.7304L139.883 8.93362C139.059 9.3365 138.373 9.85645 137.898 10.5253L139.529 11.6827ZM140.777 10.7224C141.32 10.4451 142.041 10.28 142.986 10.28V8.28C141.818 8.28 140.764 8.48294 139.867 8.94156L140.777 10.7224ZM142.986 10.28C144.651 10.28 145.604 10.6773 146.116 11.2309L147.584 9.87314C146.528 8.73067 144.905 8.28 142.986 8.28V10.28ZM146.122 11.2378C146.714 11.8665 147.026 12.6534 147.026 13.672H149.026C149.026 12.1946 148.553 10.9015 147.578 9.8662L146.122 11.2378ZM147.026 13.672V21.448H149.026V13.672H147.026ZM147.026 21.448C147.026 21.4089 147.033 21.3523 147.059 21.2893C147.085 21.226 147.121 21.179 147.151 21.1489L148.565 22.5631C148.867 22.2614 149.026 21.8702 149.026 21.448H147.026ZM147.151 21.1489C147.204 21.0952 147.27 21.0534 147.339 21.0277C147.404 21.0031 147.454 21 147.474 21V23C147.848 23 148.248 22.8798 148.565 22.5631L147.151 21.1489ZM147.474 21H146.37V23H147.474V21ZM146.37 21C146.391 21 146.431 21.0034 146.481 21.021C146.532 21.039 146.577 21.0663 146.613 21.0967L145.311 22.6153C145.62 22.8802 145.993 23 146.37 23V21ZM146.721 21.2052C146.752 21.2408 146.779 21.2861 146.797 21.3372C146.814 21.3871 146.818 21.427 146.818 21.448H144.818C144.818 21.8249 144.938 22.1977 145.203 22.5068L146.721 21.2052ZM146.818 21.448V20.416H144.818V21.448H146.818ZM144.994 19.8495C144.752 20.2008 144.377 20.5332 143.818 20.8262L144.746 22.5978C145.531 22.1868 146.179 21.6552 146.642 20.9825L144.994 19.8495ZM143.818 20.8262C143.332 21.0806 142.649 21.24 141.714 21.24V23.24C142.858 23.24 143.888 23.0474 144.746 22.5978L143.818 20.8262ZM142.218 21.44C143.495 21.44 144.612 21.017 145.477 20.1305L144.046 18.7335C143.6 19.191 143.02 19.44 142.218 19.44V21.44ZM145.477 20.1307C146.386 19.2007 146.77 17.9321 146.77 16.48H144.77C144.77 17.5879 144.482 18.2873 144.046 18.7333L145.477 20.1307ZM146.77 16.48V15.808H144.77V16.48H146.77ZM145.625 14.8186L142.841 15.2266L143.131 17.2054L145.915 16.7974L145.625 14.8186ZM142.846 15.2258C141.647 15.3946 140.62 15.6953 139.863 16.1999L140.973 17.864C141.368 17.6007 142.052 17.3574 143.125 17.2062L142.846 15.2258ZM139.879 16.1893C139.078 16.7012 138.554 17.4628 138.554 18.448H140.554C140.554 18.2812 140.605 18.0988 140.956 17.8747L139.879 16.1893ZM138.554 18.448C138.554 19.4189 138.982 20.2287 139.791 20.7681L140.901 19.1039C140.654 18.9393 140.554 18.7571 140.554 18.448H138.554ZM139.809 20.7797C140.52 21.2324 141.337 21.44 142.218 21.44V19.44C141.659 19.44 141.227 19.3116 140.883 19.0923L139.809 20.7797ZM151.359 11.44H152.359V10.44H151.359V11.44ZM149.079 11.296L148.32 11.9468L148.37 12.0052L148.428 12.0553L149.079 11.296ZM149.079 9.688L149.786 10.3951L149.786 10.3951L149.079 9.688ZM151.359 9.52V10.52H152.359V9.52H151.359ZM151.503 5.128L152.21 5.83511L152.21 5.83511L151.503 5.128ZM153.423 5.128L152.664 5.77879L152.714 5.8372L152.772 5.88726L153.423 5.128ZM153.591 9.52H152.591V10.52H153.591V9.52ZM156.951 9.688L156.192 10.3388L156.242 10.3972L156.3 10.4473L156.951 9.688ZM156.951 11.296L157.658 12.0031L157.658 12.0031L156.951 11.296ZM153.591 11.44V10.44H152.591V11.44H153.591ZM153.999 19.432L153.162 19.9792L153.167 19.9868L153.172 19.9943L153.999 19.432ZM157.191 20.2L156.432 20.8508L156.482 20.9092L156.54 20.9593L157.191 20.2ZM157.191 21.856L157.898 22.5631L157.898 22.5631L157.191 21.856ZM155.151 21C154.071 21 153.435 20.7041 153.051 20.276C152.648 19.8273 152.359 19.0549 152.359 17.776H150.359C150.359 19.3131 150.701 20.6527 151.563 21.612C152.442 22.5919 153.703 23 155.151 23V21ZM152.359 17.776V11.44H150.359V17.776H152.359ZM151.359 10.44H149.487V12.44H151.359V10.44ZM149.487 10.44C149.508 10.44 149.548 10.4434 149.598 10.461C149.649 10.479 149.694 10.5063 149.73 10.5367L148.428 12.0553C148.737 12.3202 149.11 12.44 149.487 12.44V10.44ZM149.838 10.6452C149.869 10.6808 149.896 10.7261 149.914 10.7772C149.931 10.8271 149.935 10.867 149.935 10.888H147.935C147.935 11.2649 148.055 11.6377 148.32 11.9468L149.838 10.6452ZM149.935 10.888V10.072H147.935V10.888H149.935ZM149.935 10.072C149.935 10.0919 149.932 10.1415 149.907 10.2071C149.881 10.2758 149.84 10.3414 149.786 10.3951L148.372 8.98089C148.055 9.29763 147.935 9.69774 147.935 10.072H149.935ZM149.786 10.3951C149.756 10.4252 149.709 10.4606 149.646 10.4867C149.583 10.5126 149.526 10.52 149.487 10.52V8.52C149.065 8.52 148.673 8.67923 148.372 8.98089L149.786 10.3951ZM149.487 10.52H151.359V8.52H149.487V10.52ZM152.359 9.52V5.512H150.359V9.52H152.359ZM152.359 5.512C152.359 5.53186 152.356 5.58149 152.331 5.64712C152.305 5.71583 152.264 5.78145 152.21 5.83511L150.796 4.42089C150.479 4.73763 150.359 5.13774 150.359 5.512H152.359ZM152.21 5.83511C152.18 5.86521 152.133 5.90064 152.07 5.92668C152.007 5.95263 151.95 5.96 151.911 5.96V3.96C151.489 3.96 151.097 4.11923 150.796 4.42089L152.21 5.83511ZM151.911 5.96H153.039V3.96H151.911V5.96ZM153.039 5.96C153.001 5.96 152.933 5.95292 152.854 5.91816C152.772 5.88245 152.708 5.83056 152.664 5.77879L154.182 4.47721C153.879 4.12318 153.463 3.96 153.039 3.96V5.96ZM152.772 5.88726C152.72 5.84288 152.668 5.77843 152.633 5.69682C152.598 5.61736 152.591 5.55002 152.591 5.512H154.591C154.591 5.08804 154.428 4.6722 154.074 4.36874L152.772 5.88726ZM152.591 5.512V9.52H154.591V5.512H152.591ZM153.591 10.52H156.567V8.52H153.591V10.52ZM156.567 10.52C156.529 10.52 156.461 10.5129 156.382 10.4782C156.3 10.4425 156.236 10.3906 156.192 10.3388L157.71 9.03721C157.407 8.68318 156.991 8.52 156.567 8.52V10.52ZM156.3 10.4473C156.248 10.4029 156.196 10.3384 156.161 10.2568C156.126 10.1774 156.119 10.11 156.119 10.072H158.119C158.119 9.64804 157.956 9.2322 157.602 8.92874L156.3 10.4473ZM156.119 10.072V10.888H158.119V10.072H156.119ZM156.119 10.888C156.119 10.8489 156.126 10.7923 156.152 10.7293C156.178 10.666 156.214 10.619 156.244 10.5889L157.658 12.0031C157.96 11.7014 158.119 11.3102 158.119 10.888H156.119ZM156.244 10.5889C156.297 10.5352 156.363 10.4934 156.432 10.4677C156.497 10.4431 156.547 10.44 156.567 10.44V12.44C156.941 12.44 157.341 12.3198 157.658 12.0031L156.244 10.5889ZM156.567 10.44H153.591V12.44H156.567V10.44ZM152.591 11.44V17.608H154.591V11.44H152.591ZM152.591 17.608C152.591 18.4945 152.737 19.3292 153.162 19.9792L154.836 18.8848C154.717 18.7028 154.591 18.3215 154.591 17.608H152.591ZM153.172 19.9943C153.683 20.7463 154.495 21.032 155.343 21.032V19.032C154.943 19.032 154.858 18.9177 154.826 18.8697L153.172 19.9943ZM155.343 21.032H156.807V19.032H155.343V21.032ZM156.807 21.032C156.769 21.032 156.701 21.0249 156.622 20.9902C156.54 20.9545 156.476 20.9026 156.432 20.8508L157.95 19.5492C157.647 19.1952 157.231 19.032 156.807 19.032V21.032ZM156.54 20.9593C156.488 20.9149 156.436 20.8504 156.401 20.7688C156.366 20.6894 156.359 20.622 156.359 20.584H158.359C158.359 20.16 158.196 19.7442 157.842 19.4407L156.54 20.9593ZM156.359 20.584V21.448H158.359V20.584H156.359ZM156.359 21.448C156.359 21.4089 156.366 21.3523 156.392 21.2893C156.418 21.226 156.454 21.179 156.484 21.1489L157.898 22.5631C158.2 22.2614 158.359 21.8702 158.359 21.448H156.359ZM156.484 21.1489C156.537 21.0952 156.603 21.0534 156.672 21.0277C156.737 21.0031 156.787 21 156.807 21V23C157.181 23 157.581 22.8798 157.898 22.5631L156.484 21.1489ZM156.807 21H155.151V23H156.807V21ZM158.526 7.048L157.767 7.69879L157.817 7.7572L157.875 7.80726L158.526 7.048ZM158.526 4.936L157.819 4.22889L157.792 4.25605L157.767 4.28521L158.526 4.936ZM160.854 4.936L160.147 5.64311L160.147 5.64311L160.854 4.936ZM160.854 7.048L161.505 7.80726L161.534 7.78226L161.561 7.7551L160.854 7.048ZM158.718 21.856L157.959 22.5068L158.009 22.5652L158.067 22.6153L158.718 21.856ZM158.718 9.688L159.425 10.3951L159.425 10.3951L158.718 9.688ZM160.662 9.688L159.903 10.3388L159.953 10.3972L160.011 10.4473L160.662 9.688ZM160.662 21.856L161.369 22.5631L161.369 22.5631L160.662 21.856ZM158.934 6.192C158.955 6.192 158.995 6.19538 159.045 6.21301C159.096 6.23104 159.141 6.25826 159.177 6.28874L157.875 7.80726C158.184 8.07222 158.557 8.192 158.934 8.192V6.192ZM159.285 6.39721C159.316 6.43277 159.343 6.47808 159.361 6.52918C159.378 6.57912 159.382 6.61896 159.382 6.64H157.382C157.382 7.01692 157.502 7.38966 157.767 7.69879L159.285 6.39721ZM159.382 6.64V5.344H157.382V6.64H159.382ZM159.382 5.344C159.382 5.36504 159.378 5.40487 159.361 5.45482C159.343 5.50592 159.316 5.55123 159.285 5.58679L157.767 4.28521C157.502 4.59433 157.382 4.96708 157.382 5.344H159.382ZM159.233 5.6431C159.203 5.67321 159.156 5.70864 159.093 5.73468C159.03 5.76063 158.973 5.768 158.934 5.768V3.768C158.512 3.768 158.12 3.92723 157.819 4.22889L159.233 5.6431ZM158.934 5.768H160.446V3.768H158.934V5.768ZM160.446 5.768C160.407 5.768 160.35 5.76063 160.287 5.73468C160.224 5.70864 160.177 5.67321 160.147 5.64311L161.561 4.22889C161.259 3.92723 160.868 3.768 160.446 3.768V5.768ZM160.147 5.64311C160.117 5.613 160.081 5.56597 160.055 5.50275C160.029 5.43973 160.022 5.38306 160.022 5.344H162.022C162.022 4.92181 161.863 4.53056 161.561 4.22889L160.147 5.64311ZM160.022 5.344V6.64H162.022V5.344H160.022ZM160.022 6.64C160.022 6.60093 160.029 6.54427 160.055 6.48125C160.081 6.41803 160.117 6.371 160.147 6.34089L161.561 7.7551C161.863 7.45344 162.022 7.06219 162.022 6.64H160.022ZM160.203 6.28874C160.239 6.25826 160.284 6.23104 160.335 6.21301C160.385 6.19538 160.425 6.192 160.446 6.192V8.192C160.823 8.192 161.195 8.07222 161.505 7.80726L160.203 6.28874ZM160.446 6.192H158.934V8.192H160.446V6.192ZM159.126 21C159.147 21 159.187 21.0034 159.237 21.021C159.288 21.039 159.333 21.0663 159.369 21.0967L158.067 22.6153C158.376 22.8802 158.749 23 159.126 23V21ZM159.477 21.2052C159.508 21.2408 159.535 21.2861 159.553 21.3372C159.57 21.3871 159.574 21.427 159.574 21.448H157.574C157.574 21.8249 157.694 22.1977 157.959 22.5068L159.477 21.2052ZM159.574 21.448V10.072H157.574V21.448H159.574ZM159.574 10.072C159.574 10.0919 159.571 10.1415 159.546 10.2071C159.52 10.2758 159.479 10.3414 159.425 10.3951L158.011 8.98089C157.694 9.29763 157.574 9.69774 157.574 10.072H159.574ZM159.425 10.3951C159.395 10.4252 159.348 10.4606 159.285 10.4867C159.222 10.5126 159.165 10.52 159.126 10.52V8.52C158.704 8.52 158.312 8.67923 158.011 8.98089L159.425 10.3951ZM159.126 10.52H160.278V8.52H159.126V10.52ZM160.278 10.52C160.24 10.52 160.172 10.5129 160.093 10.4782C160.011 10.4425 159.947 10.3906 159.903 10.3388L161.421 9.03721C161.118 8.68318 160.702 8.52 160.278 8.52V10.52ZM160.011 10.4473C159.959 10.4029 159.907 10.3384 159.872 10.2568C159.837 10.1774 159.83 10.11 159.83 10.072H161.83C161.83 9.64804 161.667 9.2322 161.313 8.92874L160.011 10.4473ZM159.83 10.072V21.448H161.83V10.072H159.83ZM159.83 21.448C159.83 21.4089 159.837 21.3523 159.863 21.2893C159.889 21.226 159.925 21.179 159.955 21.1489L161.369 22.5631C161.671 22.2614 161.83 21.8702 161.83 21.448H159.83ZM159.955 21.1489C160.008 21.0952 160.074 21.0534 160.143 21.0277C160.208 21.0031 160.258 21 160.278 21V23C160.652 23 161.052 22.8798 161.369 22.5631L159.955 21.1489ZM160.278 21H159.126V23H160.278V21ZM164.314 20.752L163.596 21.4474L163.601 21.4533L164.314 20.752ZM162.778 16.792L161.779 16.8152L161.779 16.823L161.779 16.8308L162.778 16.792ZM162.754 15.76L161.755 15.7368L161.754 15.76L161.755 15.7832L162.754 15.76ZM162.778 14.728L161.779 14.6888L161.779 14.6968L161.779 14.7048L162.778 14.728ZM164.338 10.792L165.051 11.4934L165.057 11.4876L164.338 10.792ZM172.498 10.792L171.78 11.4876L171.785 11.4933L172.498 10.792ZM174.058 14.728L173.059 14.7672L173.06 14.7929L173.062 14.8185L174.058 14.728ZM174.058 16.792L173.062 16.7015L173.06 16.7273L173.059 16.7532L174.058 16.792ZM172.498 20.752L171.785 20.0506L171.78 20.0566L172.498 20.752ZM170.794 19.432L170.06 18.7529L170.051 18.763L170.794 19.432ZM171.754 16.672L170.759 16.5725L170.756 16.6022L170.755 16.632L171.754 16.672ZM171.754 14.848L170.755 14.888L170.756 14.9178L170.759 14.9475L171.754 14.848ZM170.794 12.088L170.051 12.757L170.06 12.767L170.794 12.088ZM165.082 14.848L164.083 14.8213L164.083 14.8217L165.082 14.848ZM165.058 15.76L164.059 15.7337L164.058 15.76L164.059 15.7863L165.058 15.76ZM165.082 16.672L164.083 16.6983L164.083 16.6987L165.082 16.672ZM166.018 19.432L166.752 18.753L166.752 18.753L166.018 19.432ZM168.418 21.24C166.852 21.24 165.768 20.8041 165.027 20.0507L163.601 21.4533C164.812 22.6839 166.465 23.24 168.418 23.24V21.24ZM165.033 20.0566C164.276 19.2747 163.834 18.2057 163.778 16.7532L161.779 16.8308C161.851 18.6743 162.432 20.2453 163.596 21.4474L165.033 20.0566ZM163.778 16.7688L163.754 15.7368L161.755 15.7832L161.779 16.8152L163.778 16.7688ZM163.754 15.7832L163.778 14.7512L161.779 14.7048L161.755 15.7368L163.754 15.7832ZM163.778 14.7672C163.834 13.338 164.279 12.2777 165.051 11.4933L163.625 10.0907C162.445 11.2903 161.851 12.854 161.779 14.6888L163.778 14.7672ZM165.057 11.4876C165.801 10.7193 166.875 10.28 168.418 10.28V8.28C166.473 8.28 164.828 8.84872 163.62 10.0964L165.057 11.4876ZM168.418 10.28C169.961 10.28 171.036 10.7193 171.78 11.4876L173.217 10.0964C172.009 8.84872 170.363 8.28 168.418 8.28V10.28ZM171.785 11.4933C172.557 12.2777 173.003 13.338 173.059 14.7672L175.058 14.6888C174.986 12.854 174.391 11.2903 173.211 10.0907L171.785 11.4933ZM173.062 14.8185C173.074 14.9422 173.082 15.2416 173.082 15.76H175.082C175.082 15.2544 175.075 14.8658 175.054 14.6375L173.062 14.8185ZM173.082 15.76C173.082 16.2784 173.074 16.5778 173.062 16.7015L175.054 16.8825C175.075 16.6542 175.082 16.2656 175.082 15.76H173.082ZM173.059 16.7532C173.003 18.2012 172.555 19.2681 171.785 20.0507L173.211 21.4533C174.393 20.2519 174.986 18.6788 175.058 16.8308L173.059 16.7532ZM171.78 20.0566C171.057 20.8039 169.986 21.24 168.418 21.24V23.24C170.371 23.24 172.02 22.6841 173.217 21.4474L171.78 20.0566ZM168.418 21.392C169.657 21.392 170.739 20.9882 171.538 20.101L170.051 18.763C169.697 19.1558 169.196 19.392 168.418 19.392V21.392ZM171.528 20.111C172.334 19.2402 172.7 18.0602 172.754 16.712L170.755 16.632C170.713 17.6838 170.439 18.3438 170.06 18.753L171.528 20.111ZM172.749 16.7715C172.771 16.5546 172.778 16.2024 172.778 15.76H170.778C170.778 16.2136 170.77 16.4694 170.759 16.5725L172.749 16.7715ZM172.778 15.76C172.778 15.3176 172.771 14.9654 172.749 14.7485L170.759 14.9475C170.77 15.0506 170.778 15.3064 170.778 15.76H172.778ZM172.754 14.808C172.7 13.4598 172.334 12.2798 171.528 11.409L170.06 12.767C170.439 13.1762 170.713 13.8362 170.755 14.888L172.754 14.808ZM171.538 11.419C170.739 10.5318 169.657 10.128 168.418 10.128V12.128C169.196 12.128 169.697 12.3642 170.051 12.757L171.538 11.419ZM168.418 10.128C167.179 10.128 166.096 10.5317 165.284 11.409L166.752 12.767C167.125 12.3643 167.641 12.128 168.418 12.128V10.128ZM165.284 11.409C164.474 12.2844 164.119 13.4704 164.083 14.8213L166.082 14.8747C166.11 13.8256 166.378 13.1716 166.752 12.767L165.284 11.409ZM164.083 14.8217L164.059 15.7337L166.058 15.7863L166.082 14.8743L164.083 14.8217ZM164.059 15.7863L164.083 16.6983L166.082 16.6457L166.058 15.7337L164.059 15.7863ZM164.083 16.6987C164.119 18.0496 164.474 19.2356 165.284 20.111L166.752 18.753C166.378 18.3484 166.11 17.6944 166.082 16.6453L164.083 16.6987ZM165.284 20.111C166.096 20.9883 167.179 21.392 168.418 21.392V19.392C167.641 19.392 167.125 19.1557 166.752 18.753L165.284 20.111ZM176.152 21.856L175.392 22.5068L175.442 22.5652L175.501 22.6153L176.152 21.856ZM176.152 9.688L176.859 10.3951L176.859 10.3951L176.152 9.688ZM178.072 9.688L177.312 10.3388L177.362 10.3972L177.421 10.4473L178.072 9.688ZM178.24 11.128H177.24V14.0249L179.027 11.7449L178.24 11.128ZM179.872 9.76L179.424 8.86552L179.415 8.87018L179.872 9.76ZM185.824 10.768L185.063 11.4178L185.069 11.4244L185.075 11.4308L185.824 10.768ZM186.952 21.856L187.659 22.5631L187.659 22.5631L186.952 21.856ZM184.96 21.856L184.2 22.5068L184.25 22.5652L184.309 22.6153L184.96 21.856ZM183.976 12.16L183.222 12.8171L183.227 12.8226L183.231 12.8279L183.976 12.16ZM179.2 12.184L179.925 12.8723L179.934 12.863L179.2 12.184ZM178.144 21.856L177.436 21.1489L177.436 21.1489L178.144 21.856ZM176.56 21C176.581 21 176.62 21.0034 176.67 21.021C176.721 21.039 176.767 21.0663 176.802 21.0967L175.501 22.6153C175.81 22.8802 176.183 23 176.56 23V21ZM176.911 21.2052C176.941 21.2408 176.969 21.2861 176.987 21.3372C177.004 21.3871 177.008 21.427 177.008 21.448H175.008C175.008 21.8249 175.127 22.1977 175.392 22.5068L176.911 21.2052ZM177.008 21.448V10.072H175.008V21.448H177.008ZM177.008 10.072C177.008 10.0919 177.005 10.1415 176.98 10.2071C176.954 10.2758 176.912 10.3414 176.859 10.3951L175.444 8.98089C175.128 9.29763 175.008 9.69774 175.008 10.072H177.008ZM176.859 10.3951C176.829 10.4252 176.782 10.4606 176.718 10.4867C176.655 10.5126 176.599 10.52 176.56 10.52V8.52C176.137 8.52 175.746 8.67923 175.444 8.98089L176.859 10.3951ZM176.56 10.52H177.688V8.52H176.56V10.52ZM177.688 10.52C177.65 10.52 177.582 10.5129 177.503 10.4782C177.421 10.4425 177.357 10.3906 177.312 10.3388L178.831 9.03721C178.527 8.68318 178.112 8.52 177.688 8.52V10.52ZM177.421 10.4473C177.369 10.4029 177.317 10.3384 177.281 10.2568C177.247 10.1774 177.24 10.11 177.24 10.072H179.24C179.24 9.64804 179.076 9.2322 178.722 8.92874L177.421 10.4473ZM177.24 10.072V11.128H179.24V10.072H177.24ZM179.027 11.7449C179.408 11.2583 179.842 10.8991 180.328 10.6498L179.415 8.87018C178.653 9.26088 177.999 9.8137 177.453 10.5111L179.027 11.7449ZM180.319 10.6544C180.783 10.4224 181.411 10.28 182.248 10.28V8.28C181.196 8.28 180.24 8.45761 179.424 8.86557L180.319 10.6544ZM182.248 10.28C183.548 10.28 184.44 10.6881 185.063 11.4178L186.584 10.1182C185.511 8.8639 184.019 8.28 182.248 8.28V10.28ZM185.075 11.4308C185.739 12.1813 186.12 13.2284 186.12 14.68H188.12C188.12 12.8676 187.636 11.3067 186.572 10.1052L185.075 11.4308ZM186.12 14.68V21.448H188.12V14.68H186.12ZM186.12 21.448C186.12 21.4089 186.127 21.3523 186.153 21.2893C186.179 21.226 186.214 21.179 186.244 21.1489L187.659 22.5631C187.96 22.2614 188.12 21.8702 188.12 21.448H186.12ZM186.244 21.1489C186.298 21.0952 186.364 21.0534 186.432 21.0277C186.498 21.0031 186.548 21 186.568 21V23C186.942 23 187.342 22.8798 187.659 22.5631L186.244 21.1489ZM186.568 21H185.368V23H186.568V21ZM185.368 21C185.389 21 185.428 21.0034 185.478 21.021C185.529 21.039 185.575 21.0663 185.61 21.0967L184.309 22.6153C184.618 22.8802 184.991 23 185.368 23V21ZM185.719 21.2052C185.749 21.2408 185.777 21.2861 185.795 21.3372C185.812 21.3871 185.816 21.427 185.816 21.448H183.816C183.816 21.8249 183.935 22.1977 184.2 22.5068L185.719 21.2052ZM185.816 21.448V14.8H183.816V21.448H185.816ZM185.816 14.8C185.816 13.5059 185.495 12.3562 184.72 11.4921L183.231 12.8279C183.576 13.2118 183.816 13.8221 183.816 14.8H185.816ZM184.729 11.5029C183.949 10.6073 182.849 10.224 181.6 10.224V12.224C182.43 12.224 182.915 12.4647 183.222 12.8171L184.729 11.5029ZM181.6 10.224C180.361 10.224 179.277 10.6277 178.465 11.505L179.934 12.863C180.306 12.4603 180.823 12.224 181.6 12.224V10.224ZM178.474 11.4957C177.658 12.3564 177.312 13.5038 177.312 14.8H179.312C179.312 13.8561 179.558 13.2596 179.925 12.8723L178.474 11.4957ZM177.312 14.8V21.448H179.312V14.8H177.312ZM177.312 21.448C177.312 21.4089 177.319 21.3523 177.345 21.2893C177.371 21.226 177.406 21.179 177.436 21.1489L178.851 22.5631C179.152 22.2614 179.312 21.8702 179.312 21.448H177.312ZM177.436 21.1489C177.49 21.0952 177.556 21.0534 177.624 21.0277C177.69 21.0031 177.74 21 177.76 21V23C178.134 23 178.534 22.8798 178.851 22.5631L177.436 21.1489ZM177.76 21H176.56V23H177.76V21Z" fill="white"/>
<path d="M21.8645 7.67666C21.6569 7.67666 21.4492 7.60432 21.2824 7.45499C19.2664 5.65716 16.6799 4.66666 14 4.66666C11.3202 4.66666 8.73368 5.65716 6.71768 7.45499C6.35718 7.77466 5.80302 7.74666 5.48218 7.38382C5.16018 7.02332 5.19168 6.46916 5.55335 6.14832C7.89018 4.06466 10.8897 2.91666 14 2.91666C17.1104 2.91666 20.1099 4.06466 22.4467 6.14832C22.8084 6.47032 22.8399 7.02332 22.5179 7.38382C22.3452 7.57749 22.1049 7.67666 21.8645 7.67666Z" fill="white"/>
<path d="M23.0429 12.1228C22.764 12.1228 22.4899 11.9898 22.3207 11.7425C20.4237 8.97984 17.3134 7.33017 14 7.33017C10.6867 7.33017 7.57636 8.97984 5.67936 11.7437C5.40636 12.1403 4.86386 12.2465 4.46252 11.97C4.06469 11.697 3.96319 11.1522 4.23736 10.7543C6.45986 7.51334 10.1092 5.58017 14 5.58017C17.8909 5.58017 21.5402 7.5145 23.7627 10.7532C24.0357 11.151 23.9342 11.6958 23.5375 11.9688C23.3859 12.0738 23.212 12.1228 23.0429 12.1228Z" fill="white"/>
<path d="M11.8032 25.0833C11.5815 25.0833 11.3587 24.9993 11.1884 24.8313C11.0344 24.6797 7.41418 21.063 7.41418 17.5513C7.41418 13.8868 10.3682 10.906 14.0012 10.906C17.6342 10.906 20.5882 13.8868 20.5882 17.5513C20.5882 18.0343 20.1962 18.4263 19.7132 18.4263C19.2302 18.4263 18.8382 18.0343 18.8382 17.5513C18.8382 14.8528 16.6694 12.656 14.0012 12.656C11.333 12.656 9.16418 14.8517 9.16418 17.5513C9.16418 20.3303 12.3877 23.555 12.4192 23.5865C12.7622 23.9272 12.7657 24.4802 12.4262 24.8243C12.2547 24.997 12.0295 25.0833 11.8032 25.0833Z" fill="white"/>
<path d="M16.1968 25.0833C14.4725 25.0833 10.4778 21.8878 10.0916 18.3283C9.95397 17.045 10.3495 15.7768 11.1766 14.8505C11.9093 14.0292 12.9045 13.5742 13.9801 13.5683C15.0675 13.5905 16.0265 13.9708 16.7755 14.7163C17.5338 15.47 17.9515 16.4768 17.9515 17.5502V17.9935C17.9515 18.9793 18.7425 19.782 19.7131 19.782C20.6838 19.782 21.4748 18.9793 21.4748 17.9935V17.8383C21.4748 13.7037 18.4111 10.2632 14.5005 10.0088C12.4133 9.86882 10.4416 10.5817 8.92264 12.0038C7.40014 13.4307 6.52631 15.4525 6.52631 17.5502C6.52631 19.3037 7.13414 21.0117 8.23547 22.3603C8.54114 22.7348 8.48514 23.2855 8.11181 23.5912C7.73731 23.898 7.18664 23.8408 6.87981 23.4675C5.52414 21.8073 4.77631 19.705 4.77631 17.5502C4.77631 14.9695 5.85197 12.4822 7.72564 10.7263C9.60164 8.96932 12.054 8.09432 14.6113 8.26232C19.4401 8.57849 23.2213 12.7843 23.2213 17.8383V17.9935C23.2213 19.9442 21.6451 21.532 19.7096 21.532C17.7741 21.532 16.198 19.9453 16.198 17.9935V17.5502C16.198 16.9458 15.9635 16.38 15.5388 15.9565C15.1258 15.5447 14.5786 15.3183 13.9988 15.3183C13.9941 15.3183 13.9906 15.3183 13.9871 15.3183C13.2521 15.3218 12.7621 15.6998 12.4798 16.016C11.9886 16.5667 11.746 17.36 11.83 18.1405C12.1216 20.818 15.3451 23.3333 16.1968 23.3333C16.6798 23.3333 17.0718 23.7253 17.0718 24.2083C17.0718 24.6913 16.6798 25.0833 16.1968 25.0833Z" fill="white"/>
<path d="M18.7786 23.7521C16.1933 23.7521 13.0701 20.7876 13.0701 17.1068C13.0701 16.6238 13.4621 16.2318 13.9451 16.2318C14.4281 16.2318 14.8201 16.6238 14.8201 17.1068C14.8201 19.8088 17.2153 22.0021 18.7786 22.0021C19.2616 22.0021 19.6536 22.3941 19.6536 22.8771C19.6536 23.3601 19.2616 23.7521 18.7786 23.7521Z" fill="white"/>
<rect x="0.0273438" y="0.0273438" width="27.9453" height="27.9453" stroke="white" stroke-width="0.0546875"/>
</svg>
