<svg width="189" height="28" viewBox="0 0 189 28" fill="none" xmlns="http://www.w3.org/2000/svg">
<path d="M32.64 22C32.48 22 32.344 21.952 32.232 21.856C32.136 21.744 32.088 21.608 32.088 21.448V5.776C32.088 5.6 32.136 5.464 32.232 5.368C32.344 5.256 32.48 5.2 32.64 5.2H42.432C42.608 5.2 42.744 5.256 42.84 5.368C42.952 5.464 43.008 5.6 43.008 5.776V6.736C43.008 6.896 42.952 7.032 42.84 7.144C42.744 7.24 42.608 7.288 42.432 7.288H34.416V12.88H41.952C42.128 12.88 42.264 12.936 42.36 13.048C42.472 13.144 42.528 13.28 42.528 13.456V14.416C42.528 14.576 42.472 14.712 42.36 14.824C42.248 14.92 42.112 14.968 41.952 14.968H34.416V21.448C34.416 21.608 34.36 21.744 34.248 21.856C34.136 21.952 34 22 33.84 22H32.64ZM45.2876 22C45.1276 22 44.9916 21.952 44.8796 21.856C44.7836 21.744 44.7356 21.608 44.7356 21.448V5.512C44.7356 5.352 44.7836 5.224 44.8796 5.128C44.9916 5.016 45.1276 4.96 45.2876 4.96H46.4156C46.5756 4.96 46.7036 5.016 46.7996 5.128C46.9116 5.224 46.9676 5.352 46.9676 5.512V21.448C46.9676 21.608 46.9116 21.744 46.7996 21.856C46.7036 21.952 46.5756 22 46.4156 22H45.2876ZM54.5796 22.24C52.8196 22.24 51.4516 21.744 50.4756 20.752C49.5156 19.76 49.0036 18.44 48.9396 16.792L48.9156 15.76L48.9396 14.728C49.0036 13.096 49.5236 11.784 50.4996 10.792C51.4756 9.784 52.8356 9.28 54.5796 9.28C56.3236 9.28 57.6836 9.784 58.6596 10.792C59.6356 11.784 60.1556 13.096 60.2196 14.728C60.2356 14.904 60.2436 15.248 60.2436 15.76C60.2436 16.272 60.2356 16.616 60.2196 16.792C60.1556 18.44 59.6356 19.76 58.6596 20.752C57.6996 21.744 56.3396 22.24 54.5796 22.24ZM54.5796 20.392C55.5876 20.392 56.3796 20.072 56.9556 19.432C57.5476 18.792 57.8676 17.872 57.9156 16.672C57.9316 16.512 57.9396 16.208 57.9396 15.76C57.9396 15.312 57.9316 15.008 57.9156 14.848C57.8676 13.648 57.5476 12.728 56.9556 12.088C56.3796 11.448 55.5876 11.128 54.5796 11.128C53.5716 11.128 52.7716 11.448 52.1796 12.088C51.5876 12.728 51.2756 13.648 51.2436 14.848L51.2196 15.76L51.2436 16.672C51.2756 17.872 51.5876 18.792 52.1796 19.432C52.7716 20.072 53.5716 20.392 54.5796 20.392ZM63.8841 26.56C63.7561 26.56 63.6441 26.512 63.5481 26.416C63.4521 26.32 63.4041 26.208 63.4041 26.08C63.4041 25.968 63.4441 25.824 63.5241 25.648L65.3721 21.256L60.7881 10.432C60.7081 10.224 60.6681 10.088 60.6681 10.024C60.6681 9.88 60.7161 9.76 60.8121 9.664C60.9081 9.568 61.0281 9.52 61.1721 9.52H62.3481C62.6041 9.52 62.7961 9.656 62.9241 9.928L66.5721 18.664L70.3161 9.928C70.4441 9.656 70.6441 9.52 70.9161 9.52H72.0441C72.1881 9.52 72.3081 9.568 72.4041 9.664C72.5001 9.76 72.5481 9.872 72.5481 10C72.5481 10.048 72.5081 10.192 72.4281 10.432L65.6121 26.152C65.4841 26.424 65.2841 26.56 65.0121 26.56H63.8841ZM79.3869 22C79.2269 22 79.0909 21.952 78.9789 21.856C78.8829 21.744 78.8349 21.608 78.8349 21.448V11.44H76.7949C76.6349 11.44 76.4989 11.392 76.3869 11.296C76.2909 11.184 76.2429 11.048 76.2429 10.888V10.072C76.2429 9.912 76.2909 9.784 76.3869 9.688C76.4989 9.576 76.6349 9.52 76.7949 9.52H78.8349V8.32C78.8349 5.6 80.2109 4.24 82.9629 4.24H84.4029C84.5629 4.24 84.6909 4.296 84.7869 4.408C84.8989 4.504 84.9549 4.632 84.9549 4.792V5.608C84.9549 5.768 84.8989 5.904 84.7869 6.016C84.6909 6.112 84.5629 6.16 84.4029 6.16H83.0109C82.2909 6.16 81.7869 6.352 81.4989 6.736C81.2109 7.104 81.0669 7.672 81.0669 8.44V9.52H84.1629C84.3229 9.52 84.4509 9.576 84.5469 9.688C84.6589 9.784 84.7149 9.912 84.7149 10.072V10.888C84.7149 11.048 84.6589 11.184 84.5469 11.296C84.4509 11.392 84.3229 11.44 84.1629 11.44H81.0669V21.448C81.0669 21.608 81.0109 21.744 80.8989 21.856C80.8029 21.952 80.6749 22 80.5149 22H79.3869ZM90.6189 22.24C88.8589 22.24 87.4909 21.744 86.5149 20.752C85.5549 19.76 85.0429 18.44 84.9789 16.792L84.9549 15.76L84.9789 14.728C85.0429 13.096 85.5629 11.784 86.5389 10.792C87.5149 9.784 88.8749 9.28 90.6189 9.28C92.3629 9.28 93.7229 9.784 94.6989 10.792C95.6749 11.784 96.1949 13.096 96.2589 14.728C96.2749 14.904 96.2829 15.248 96.2829 15.76C96.2829 16.272 96.2749 16.616 96.2589 16.792C96.1949 18.44 95.6749 19.76 94.6989 20.752C93.7389 21.744 92.3789 22.24 90.6189 22.24ZM90.6189 20.392C91.6269 20.392 92.4189 20.072 92.9949 19.432C93.5869 18.792 93.9069 17.872 93.9549 16.672C93.9709 16.512 93.9789 16.208 93.9789 15.76C93.9789 15.312 93.9709 15.008 93.9549 14.848C93.9069 13.648 93.5869 12.728 92.9949 12.088C92.4189 11.448 91.6269 11.128 90.6189 11.128C89.6109 11.128 88.8109 11.448 88.2189 12.088C87.6269 12.728 87.3149 13.648 87.2829 14.848L87.2589 15.76L87.2829 16.672C87.3149 17.872 87.6269 18.792 88.2189 19.432C88.8109 20.072 89.6109 20.392 90.6189 20.392ZM102.864 22.24C101.344 22.24 100.168 21.752 99.3362 20.776C98.5042 19.784 98.0882 18.472 98.0882 16.84V10.072C98.0882 9.912 98.1362 9.784 98.2322 9.688C98.3442 9.576 98.4802 9.52 98.6402 9.52H99.8402C100 9.52 100.128 9.576 100.224 9.688C100.336 9.784 100.392 9.912 100.392 10.072V16.72C100.392 19.104 101.432 20.296 103.512 20.296C104.52 20.296 105.32 19.984 105.912 19.36C106.504 18.72 106.8 17.84 106.8 16.72V10.072C106.8 9.912 106.848 9.784 106.944 9.688C107.056 9.576 107.192 9.52 107.352 9.52H108.552C108.712 9.52 108.84 9.576 108.936 9.688C109.032 9.784 109.08 9.912 109.08 10.072V21.448C109.08 21.608 109.032 21.744 108.936 21.856C108.84 21.952 108.712 22 108.552 22H107.424C107.264 22 107.128 21.952 107.016 21.856C106.92 21.744 106.872 21.608 106.872 21.448V20.392C106.424 21 105.88 21.464 105.24 21.784C104.6 22.088 103.808 22.24 102.864 22.24ZM112.118 22C111.958 22 111.822 21.952 111.71 21.856C111.614 21.744 111.566 21.608 111.566 21.448V10.072C111.566 9.912 111.614 9.784 111.71 9.688C111.822 9.576 111.958 9.52 112.118 9.52H113.246C113.406 9.52 113.534 9.576 113.63 9.688C113.742 9.784 113.798 9.912 113.798 10.072V11.128C114.262 10.536 114.806 10.08 115.43 9.76C116.07 9.44 116.862 9.28 117.806 9.28C119.342 9.28 120.534 9.776 121.382 10.768C122.246 11.744 122.678 13.048 122.678 14.68V21.448C122.678 21.608 122.622 21.744 122.51 21.856C122.414 21.952 122.286 22 122.126 22H120.926C120.766 22 120.63 21.952 120.518 21.856C120.422 21.744 120.374 21.608 120.374 21.448V14.8C120.374 13.664 120.094 12.784 119.534 12.16C118.99 11.536 118.198 11.224 117.158 11.224C116.15 11.224 115.35 11.544 114.758 12.184C114.166 12.808 113.87 13.68 113.87 14.8V21.448C113.87 21.608 113.814 21.744 113.702 21.856C113.606 21.952 113.478 22 113.318 22H112.118ZM129.6 22.24C127.936 22.24 126.68 21.696 125.832 20.608C124.984 19.52 124.536 18.144 124.488 16.48L124.464 15.76L124.488 15.04C124.536 13.392 124.984 12.024 125.832 10.936C126.68 9.832 127.936 9.28 129.6 9.28C131.248 9.28 132.544 9.864 133.488 11.032V5.512C133.488 5.352 133.536 5.224 133.632 5.128C133.744 5.016 133.88 4.96 134.04 4.96H135.192C135.352 4.96 135.48 5.016 135.576 5.128C135.688 5.224 135.744 5.352 135.744 5.512V21.448C135.744 21.608 135.688 21.744 135.576 21.856C135.48 21.952 135.352 22 135.192 22H134.112C133.952 22 133.816 21.952 133.704 21.856C133.608 21.744 133.56 21.608 133.56 21.448V20.44C132.632 21.64 131.312 22.24 129.6 22.24ZM130.104 20.296C131.208 20.296 132.032 19.936 132.576 19.216C133.136 18.48 133.44 17.608 133.488 16.6C133.504 16.424 133.512 16.12 133.512 15.688C133.512 15.24 133.504 14.928 133.488 14.752C133.456 13.808 133.152 12.984 132.576 12.28C132 11.576 131.176 11.224 130.104 11.224C128.968 11.224 128.136 11.576 127.608 12.28C127.096 12.984 126.816 13.912 126.768 15.064L126.744 15.76C126.744 18.784 127.864 20.296 130.104 20.296ZM141.714 22.24C140.93 22.24 140.202 22.08 139.53 21.76C138.858 21.44 138.322 21.008 137.922 20.464C137.538 19.904 137.346 19.288 137.346 18.616C137.346 17.56 137.778 16.696 138.642 16.024C139.522 15.336 140.706 14.888 142.194 14.68L145.77 14.176V13.48C145.77 11.848 144.834 11.032 142.962 11.032C142.258 11.032 141.682 11.184 141.234 11.488C140.786 11.776 140.45 12.12 140.226 12.52C140.178 12.664 140.114 12.768 140.034 12.832C139.97 12.896 139.874 12.928 139.746 12.928H138.714C138.57 12.928 138.442 12.88 138.33 12.784C138.234 12.672 138.186 12.544 138.186 12.4C138.202 12.016 138.378 11.584 138.714 11.104C139.066 10.608 139.602 10.184 140.322 9.832C141.042 9.464 141.93 9.28 142.986 9.28C144.778 9.28 146.066 9.704 146.85 10.552C147.634 11.384 148.026 12.424 148.026 13.672V21.448C148.026 21.608 147.97 21.744 147.858 21.856C147.762 21.952 147.634 22 147.474 22H146.37C146.21 22 146.074 21.952 145.962 21.856C145.866 21.744 145.818 21.608 145.818 21.448V20.416C145.466 20.928 144.954 21.36 144.282 21.712C143.61 22.064 142.754 22.24 141.714 22.24ZM142.218 20.44C143.258 20.44 144.106 20.104 144.762 19.432C145.434 18.744 145.77 17.76 145.77 16.48V15.808L142.986 16.216C141.85 16.376 140.994 16.648 140.418 17.032C139.842 17.4 139.554 17.872 139.554 18.448C139.554 19.088 139.818 19.584 140.346 19.936C140.874 20.272 141.498 20.44 142.218 20.44ZM155.151 22C152.623 22 151.359 20.592 151.359 17.776V11.44H149.487C149.327 11.44 149.191 11.392 149.079 11.296C148.983 11.184 148.935 11.048 148.935 10.888V10.072C148.935 9.912 148.983 9.784 149.079 9.688C149.191 9.576 149.327 9.52 149.487 9.52H151.359V5.512C151.359 5.352 151.407 5.224 151.503 5.128C151.615 5.016 151.751 4.96 151.911 4.96H153.039C153.199 4.96 153.327 5.016 153.423 5.128C153.535 5.224 153.591 5.352 153.591 5.512V9.52H156.567C156.727 9.52 156.855 9.576 156.951 9.688C157.063 9.784 157.119 9.912 157.119 10.072V10.888C157.119 11.048 157.063 11.184 156.951 11.296C156.855 11.392 156.727 11.44 156.567 11.44H153.591V17.608C153.591 18.408 153.727 19.016 153.999 19.432C154.271 19.832 154.719 20.032 155.343 20.032H156.807C156.967 20.032 157.095 20.088 157.191 20.2C157.303 20.296 157.359 20.424 157.359 20.584V21.448C157.359 21.608 157.303 21.744 157.191 21.856C157.095 21.952 156.967 22 156.807 22H155.151ZM158.934 7.192C158.774 7.192 158.638 7.144 158.526 7.048C158.43 6.936 158.382 6.8 158.382 6.64V5.344C158.382 5.184 158.43 5.048 158.526 4.936C158.638 4.824 158.774 4.768 158.934 4.768H160.446C160.606 4.768 160.742 4.824 160.854 4.936C160.966 5.048 161.022 5.184 161.022 5.344V6.64C161.022 6.8 160.966 6.936 160.854 7.048C160.742 7.144 160.606 7.192 160.446 7.192H158.934ZM159.126 22C158.966 22 158.83 21.952 158.718 21.856C158.622 21.744 158.574 21.608 158.574 21.448V10.072C158.574 9.912 158.622 9.784 158.718 9.688C158.83 9.576 158.966 9.52 159.126 9.52H160.278C160.438 9.52 160.566 9.576 160.662 9.688C160.774 9.784 160.83 9.912 160.83 10.072V21.448C160.83 21.608 160.774 21.744 160.662 21.856C160.566 21.952 160.438 22 160.278 22H159.126ZM168.418 22.24C166.658 22.24 165.29 21.744 164.314 20.752C163.354 19.76 162.842 18.44 162.778 16.792L162.754 15.76L162.778 14.728C162.842 13.096 163.362 11.784 164.338 10.792C165.314 9.784 166.674 9.28 168.418 9.28C170.162 9.28 171.522 9.784 172.498 10.792C173.474 11.784 173.994 13.096 174.058 14.728C174.074 14.904 174.082 15.248 174.082 15.76C174.082 16.272 174.074 16.616 174.058 16.792C173.994 18.44 173.474 19.76 172.498 20.752C171.538 21.744 170.178 22.24 168.418 22.24ZM168.418 20.392C169.426 20.392 170.218 20.072 170.794 19.432C171.386 18.792 171.706 17.872 171.754 16.672C171.77 16.512 171.778 16.208 171.778 15.76C171.778 15.312 171.77 15.008 171.754 14.848C171.706 13.648 171.386 12.728 170.794 12.088C170.218 11.448 169.426 11.128 168.418 11.128C167.41 11.128 166.61 11.448 166.018 12.088C165.426 12.728 165.114 13.648 165.082 14.848L165.058 15.76L165.082 16.672C165.114 17.872 165.426 18.792 166.018 19.432C166.61 20.072 167.41 20.392 168.418 20.392ZM176.56 22C176.4 22 176.264 21.952 176.152 21.856C176.056 21.744 176.008 21.608 176.008 21.448V10.072C176.008 9.912 176.056 9.784 176.152 9.688C176.264 9.576 176.4 9.52 176.56 9.52H177.688C177.848 9.52 177.976 9.576 178.072 9.688C178.184 9.784 178.24 9.912 178.24 10.072V11.128C178.704 10.536 179.248 10.08 179.872 9.76C180.512 9.44 181.304 9.28 182.248 9.28C183.784 9.28 184.976 9.776 185.824 10.768C186.688 11.744 187.12 13.048 187.12 14.68V21.448C187.12 21.608 187.064 21.744 186.952 21.856C186.856 21.952 186.728 22 186.568 22H185.368C185.208 22 185.072 21.952 184.96 21.856C184.864 21.744 184.816 21.608 184.816 21.448V14.8C184.816 13.664 184.536 12.784 183.976 12.16C183.432 11.536 182.64 11.224 181.6 11.224C180.592 11.224 179.792 11.544 179.2 12.184C178.608 12.808 178.312 13.68 178.312 14.8V21.448C178.312 21.608 178.256 21.744 178.144 21.856C178.048 21.952 177.92 22 177.76 22H176.56Z" fill="black"/>
<path d="M21.8645 7.67666C21.6569 7.67666 21.4492 7.60432 21.2824 7.45499C19.2664 5.65716 16.6799 4.66666 14 4.66666C11.3202 4.66666 8.73368 5.65716 6.71768 7.45499C6.35718 7.77466 5.80302 7.74666 5.48218 7.38382C5.16018 7.02332 5.19168 6.46916 5.55335 6.14832C7.89018 4.06466 10.8897 2.91666 14 2.91666C17.1104 2.91666 20.1099 4.06466 22.4467 6.14832C22.8084 6.47032 22.8399 7.02332 22.5179 7.38382C22.3452 7.57749 22.1049 7.67666 21.8645 7.67666Z" fill="black"/>
<path d="M23.0429 12.1228C22.764 12.1228 22.4899 11.9898 22.3207 11.7425C20.4237 8.97984 17.3134 7.33017 14 7.33017C10.6867 7.33017 7.57636 8.97984 5.67936 11.7437C5.40636 12.1403 4.86386 12.2465 4.46252 11.97C4.06469 11.697 3.96319 11.1522 4.23736 10.7543C6.45986 7.51334 10.1092 5.58017 14 5.58017C17.8909 5.58017 21.5402 7.5145 23.7627 10.7532C24.0357 11.151 23.9342 11.6958 23.5375 11.9688C23.3859 12.0738 23.212 12.1228 23.0429 12.1228Z" fill="black"/>
<path d="M11.8032 25.0833C11.5815 25.0833 11.3587 24.9993 11.1884 24.8313C11.0344 24.6797 7.41418 21.063 7.41418 17.5513C7.41418 13.8868 10.3682 10.906 14.0012 10.906C17.6342 10.906 20.5882 13.8868 20.5882 17.5513C20.5882 18.0343 20.1962 18.4263 19.7132 18.4263C19.2302 18.4263 18.8382 18.0343 18.8382 17.5513C18.8382 14.8528 16.6694 12.656 14.0012 12.656C11.333 12.656 9.16418 14.8517 9.16418 17.5513C9.16418 20.3303 12.3877 23.555 12.4192 23.5865C12.7622 23.9272 12.7657 24.4802 12.4262 24.8243C12.2547 24.997 12.0295 25.0833 11.8032 25.0833Z" fill="black"/>
<path d="M16.1968 25.0833C14.4725 25.0833 10.4778 21.8878 10.0916 18.3283C9.95397 17.045 10.3495 15.7768 11.1766 14.8505C11.9093 14.0292 12.9045 13.5742 13.9801 13.5683C15.0675 13.5905 16.0265 13.9708 16.7755 14.7163C17.5338 15.47 17.9515 16.4768 17.9515 17.5502V17.9935C17.9515 18.9793 18.7425 19.782 19.7131 19.782C20.6838 19.782 21.4748 18.9793 21.4748 17.9935V17.8383C21.4748 13.7037 18.4111 10.2632 14.5005 10.0088C12.4133 9.86882 10.4416 10.5817 8.92264 12.0038C7.40014 13.4307 6.52631 15.4525 6.52631 17.5502C6.52631 19.3037 7.13414 21.0117 8.23547 22.3603C8.54114 22.7348 8.48514 23.2855 8.11181 23.5912C7.73731 23.898 7.18664 23.8408 6.87981 23.4675C5.52414 21.8073 4.77631 19.705 4.77631 17.5502C4.77631 14.9695 5.85197 12.4822 7.72564 10.7263C9.60164 8.96932 12.054 8.09432 14.6113 8.26232C19.4401 8.57849 23.2213 12.7843 23.2213 17.8383V17.9935C23.2213 19.9442 21.6451 21.532 19.7096 21.532C17.7741 21.532 16.198 19.9453 16.198 17.9935V17.5502C16.198 16.9458 15.9635 16.38 15.5388 15.9565C15.1258 15.5447 14.5786 15.3183 13.9988 15.3183C13.9941 15.3183 13.9906 15.3183 13.9871 15.3183C13.2521 15.3218 12.7621 15.6998 12.4798 16.016C11.9886 16.5667 11.746 17.36 11.83 18.1405C12.1216 20.818 15.3451 23.3333 16.1968 23.3333C16.6798 23.3333 17.0718 23.7253 17.0718 24.2083C17.0718 24.6913 16.6798 25.0833 16.1968 25.0833Z" fill="black"/>
<path d="M18.7786 23.7521C16.1933 23.7521 13.0701 20.7876 13.0701 17.1068C13.0701 16.6238 13.4621 16.2318 13.9451 16.2318C14.4281 16.2318 14.8201 16.6238 14.8201 17.1068C14.8201 19.8088 17.2153 22.0021 18.7786 22.0021C19.2616 22.0021 19.6536 22.3941 19.6536 22.8771C19.6536 23.3601 19.2616 23.7521 18.7786 23.7521Z" fill="black"/>
</svg>
