<svg width="194" height="29" viewBox="0 0 194 29" fill="none" xmlns="http://www.w3.org/2000/svg">
<path d="M14.3431 0L0 8.29212V15.3292L20.3941 3.49614L14.3431 0Z" fill="#FD3C65"/>
<path d="M0.0446777 24.1592V17.1221L11.6536 10.4884L17.6598 13.9397L0.0446777 24.1592Z" fill="#000D35"/>
<path d="M6.72332 22.0526L0.761963 25.5039L6.72332 29V22.0526Z" fill="#000D35"/>
<path d="M28.64 22C28.48 22 28.344 21.952 28.232 21.856C28.136 21.744 28.088 21.608 28.088 21.448V5.776C28.088 5.6 28.136 5.464 28.232 5.368C28.344 5.256 28.48 5.2 28.64 5.2H38.432C38.608 5.2 38.744 5.256 38.84 5.368C38.952 5.464 39.008 5.6 39.008 5.776V6.736C39.008 6.896 38.952 7.032 38.84 7.144C38.744 7.24 38.608 7.288 38.432 7.288H30.416V12.88H37.952C38.128 12.88 38.264 12.936 38.36 13.048C38.472 13.144 38.528 13.28 38.528 13.456V14.416C38.528 14.576 38.472 14.712 38.36 14.824C38.248 14.92 38.112 14.968 37.952 14.968H30.416V21.448C30.416 21.608 30.36 21.744 30.248 21.856C30.136 21.952 30 22 29.84 22H28.64ZM41.8876 22C41.7276 22 41.5916 21.952 41.4796 21.856C41.3836 21.744 41.3356 21.608 41.3356 21.448V5.512C41.3356 5.352 41.3836 5.224 41.4796 5.128C41.5916 5.016 41.7276 4.96 41.8876 4.96H43.0156C43.1756 4.96 43.3036 5.016 43.3996 5.128C43.5116 5.224 43.5676 5.352 43.5676 5.512V21.448C43.5676 21.608 43.5116 21.744 43.3996 21.856C43.3036 21.952 43.1756 22 43.0156 22H41.8876ZM51.7796 22.24C50.0196 22.24 48.6516 21.744 47.6756 20.752C46.7156 19.76 46.2036 18.44 46.1396 16.792L46.1156 15.76L46.1396 14.728C46.2036 13.096 46.7236 11.784 47.6996 10.792C48.6756 9.784 50.0356 9.28 51.7796 9.28C53.5236 9.28 54.8836 9.784 55.8596 10.792C56.8356 11.784 57.3556 13.096 57.4196 14.728C57.4356 14.904 57.4436 15.248 57.4436 15.76C57.4436 16.272 57.4356 16.616 57.4196 16.792C57.3556 18.44 56.8356 19.76 55.8596 20.752C54.8996 21.744 53.5396 22.24 51.7796 22.24ZM51.7796 20.392C52.7876 20.392 53.5796 20.072 54.1556 19.432C54.7476 18.792 55.0676 17.872 55.1156 16.672C55.1316 16.512 55.1396 16.208 55.1396 15.76C55.1396 15.312 55.1316 15.008 55.1156 14.848C55.0676 13.648 54.7476 12.728 54.1556 12.088C53.5796 11.448 52.7876 11.128 51.7796 11.128C50.7716 11.128 49.9716 11.448 49.3796 12.088C48.7876 12.728 48.4756 13.648 48.4436 14.848L48.4196 15.76L48.4436 16.672C48.4756 17.872 48.7876 18.792 49.3796 19.432C49.9716 20.072 50.7716 20.392 51.7796 20.392ZM61.6841 26.56C61.5561 26.56 61.4441 26.512 61.3481 26.416C61.2521 26.32 61.2041 26.208 61.2041 26.08C61.2041 25.968 61.2441 25.824 61.3241 25.648L63.1721 21.256L58.5881 10.432C58.5081 10.224 58.4681 10.088 58.4681 10.024C58.4681 9.88 58.5161 9.76 58.6121 9.664C58.7081 9.568 58.8281 9.52 58.9721 9.52H60.1481C60.4041 9.52 60.5961 9.656 60.7241 9.928L64.3721 18.664L68.1161 9.928C68.2441 9.656 68.4441 9.52 68.7161 9.52H69.8441C69.9881 9.52 70.1081 9.568 70.2041 9.664C70.3001 9.76 70.3481 9.872 70.3481 10C70.3481 10.048 70.3081 10.192 70.2281 10.432L63.4121 26.152C63.2841 26.424 63.0841 26.56 62.8121 26.56H61.6841ZM78.3869 22C78.2269 22 78.0909 21.952 77.9789 21.856C77.8829 21.744 77.8349 21.608 77.8349 21.448V11.44H75.7949C75.6349 11.44 75.4989 11.392 75.3869 11.296C75.2909 11.184 75.2429 11.048 75.2429 10.888V10.072C75.2429 9.912 75.2909 9.784 75.3869 9.688C75.4989 9.576 75.6349 9.52 75.7949 9.52H77.8349V8.32C77.8349 5.6 79.2109 4.24 81.9629 4.24H83.4029C83.5629 4.24 83.6909 4.296 83.7869 4.408C83.8989 4.504 83.9549 4.632 83.9549 4.792V5.608C83.9549 5.768 83.8989 5.904 83.7869 6.016C83.6909 6.112 83.5629 6.16 83.4029 6.16H82.0109C81.2909 6.16 80.7869 6.352 80.4989 6.736C80.2109 7.104 80.0669 7.672 80.0669 8.44V9.52H83.1629C83.3229 9.52 83.4509 9.576 83.5469 9.688C83.6589 9.784 83.7149 9.912 83.7149 10.072V10.888C83.7149 11.048 83.6589 11.184 83.5469 11.296C83.4509 11.392 83.3229 11.44 83.1629 11.44H80.0669V21.448C80.0669 21.608 80.0109 21.744 79.8989 21.856C79.8029 21.952 79.6749 22 79.5149 22H78.3869ZM90.2189 22.24C88.4589 22.24 87.0909 21.744 86.1149 20.752C85.1549 19.76 84.6429 18.44 84.5789 16.792L84.5549 15.76L84.5789 14.728C84.6429 13.096 85.1629 11.784 86.1389 10.792C87.1149 9.784 88.4749 9.28 90.2189 9.28C91.9629 9.28 93.3229 9.784 94.2989 10.792C95.2749 11.784 95.7949 13.096 95.8589 14.728C95.8749 14.904 95.8829 15.248 95.8829 15.76C95.8829 16.272 95.8749 16.616 95.8589 16.792C95.7949 18.44 95.2749 19.76 94.2989 20.752C93.3389 21.744 91.9789 22.24 90.2189 22.24ZM90.2189 20.392C91.2269 20.392 92.0189 20.072 92.5949 19.432C93.1869 18.792 93.5069 17.872 93.5549 16.672C93.5709 16.512 93.5789 16.208 93.5789 15.76C93.5789 15.312 93.5709 15.008 93.5549 14.848C93.5069 13.648 93.1869 12.728 92.5949 12.088C92.0189 11.448 91.2269 11.128 90.2189 11.128C89.2109 11.128 88.4109 11.448 87.8189 12.088C87.2269 12.728 86.9149 13.648 86.8829 14.848L86.8589 15.76L86.8829 16.672C86.9149 17.872 87.2269 18.792 87.8189 19.432C88.4109 20.072 89.2109 20.392 90.2189 20.392ZM103.064 22.24C101.544 22.24 100.368 21.752 99.5362 20.776C98.7042 19.784 98.2882 18.472 98.2882 16.84V10.072C98.2882 9.912 98.3362 9.784 98.4322 9.688C98.5442 9.576 98.6802 9.52 98.8402 9.52H100.04C100.2 9.52 100.328 9.576 100.424 9.688C100.536 9.784 100.592 9.912 100.592 10.072V16.72C100.592 19.104 101.632 20.296 103.712 20.296C104.72 20.296 105.52 19.984 106.112 19.36C106.704 18.72 107 17.84 107 16.72V10.072C107 9.912 107.048 9.784 107.144 9.688C107.256 9.576 107.392 9.52 107.552 9.52H108.752C108.912 9.52 109.04 9.576 109.136 9.688C109.232 9.784 109.28 9.912 109.28 10.072V21.448C109.28 21.608 109.232 21.744 109.136 21.856C109.04 21.952 108.912 22 108.752 22H107.624C107.464 22 107.328 21.952 107.216 21.856C107.12 21.744 107.072 21.608 107.072 21.448V20.392C106.624 21 106.08 21.464 105.44 21.784C104.8 22.088 104.008 22.24 103.064 22.24ZM112.918 22C112.758 22 112.622 21.952 112.51 21.856C112.414 21.744 112.366 21.608 112.366 21.448V10.072C112.366 9.912 112.414 9.784 112.51 9.688C112.622 9.576 112.758 9.52 112.918 9.52H114.046C114.206 9.52 114.334 9.576 114.43 9.688C114.542 9.784 114.598 9.912 114.598 10.072V11.128C115.062 10.536 115.606 10.08 116.23 9.76C116.87 9.44 117.662 9.28 118.606 9.28C120.142 9.28 121.334 9.776 122.182 10.768C123.046 11.744 123.478 13.048 123.478 14.68V21.448C123.478 21.608 123.422 21.744 123.31 21.856C123.214 21.952 123.086 22 122.926 22H121.726C121.566 22 121.43 21.952 121.318 21.856C121.222 21.744 121.174 21.608 121.174 21.448V14.8C121.174 13.664 120.894 12.784 120.334 12.16C119.79 11.536 118.998 11.224 117.958 11.224C116.95 11.224 116.15 11.544 115.558 12.184C114.966 12.808 114.67 13.68 114.67 14.8V21.448C114.67 21.608 114.614 21.744 114.502 21.856C114.406 21.952 114.278 22 114.118 22H112.918ZM131 22.24C129.336 22.24 128.08 21.696 127.232 20.608C126.384 19.52 125.936 18.144 125.888 16.48L125.864 15.76L125.888 15.04C125.936 13.392 126.384 12.024 127.232 10.936C128.08 9.832 129.336 9.28 131 9.28C132.648 9.28 133.944 9.864 134.888 11.032V5.512C134.888 5.352 134.936 5.224 135.032 5.128C135.144 5.016 135.28 4.96 135.44 4.96H136.592C136.752 4.96 136.88 5.016 136.976 5.128C137.088 5.224 137.144 5.352 137.144 5.512V21.448C137.144 21.608 137.088 21.744 136.976 21.856C136.88 21.952 136.752 22 136.592 22H135.512C135.352 22 135.216 21.952 135.104 21.856C135.008 21.744 134.96 21.608 134.96 21.448V20.44C134.032 21.64 132.712 22.24 131 22.24ZM131.504 20.296C132.608 20.296 133.432 19.936 133.976 19.216C134.536 18.48 134.84 17.608 134.888 16.6C134.904 16.424 134.912 16.12 134.912 15.688C134.912 15.24 134.904 14.928 134.888 14.752C134.856 13.808 134.552 12.984 133.976 12.28C133.4 11.576 132.576 11.224 131.504 11.224C130.368 11.224 129.536 11.576 129.008 12.28C128.496 12.984 128.216 13.912 128.168 15.064L128.144 15.76C128.144 18.784 129.264 20.296 131.504 20.296ZM143.714 22.24C142.93 22.24 142.202 22.08 141.53 21.76C140.858 21.44 140.322 21.008 139.922 20.464C139.538 19.904 139.346 19.288 139.346 18.616C139.346 17.56 139.778 16.696 140.642 16.024C141.522 15.336 142.706 14.888 144.194 14.68L147.77 14.176V13.48C147.77 11.848 146.834 11.032 144.962 11.032C144.258 11.032 143.682 11.184 143.234 11.488C142.786 11.776 142.45 12.12 142.226 12.52C142.178 12.664 142.114 12.768 142.034 12.832C141.97 12.896 141.874 12.928 141.746 12.928H140.714C140.57 12.928 140.442 12.88 140.33 12.784C140.234 12.672 140.186 12.544 140.186 12.4C140.202 12.016 140.378 11.584 140.714 11.104C141.066 10.608 141.602 10.184 142.322 9.832C143.042 9.464 143.93 9.28 144.986 9.28C146.778 9.28 148.066 9.704 148.85 10.552C149.634 11.384 150.026 12.424 150.026 13.672V21.448C150.026 21.608 149.97 21.744 149.858 21.856C149.762 21.952 149.634 22 149.474 22H148.37C148.21 22 148.074 21.952 147.962 21.856C147.866 21.744 147.818 21.608 147.818 21.448V20.416C147.466 20.928 146.954 21.36 146.282 21.712C145.61 22.064 144.754 22.24 143.714 22.24ZM144.218 20.44C145.258 20.44 146.106 20.104 146.762 19.432C147.434 18.744 147.77 17.76 147.77 16.48V15.808L144.986 16.216C143.85 16.376 142.994 16.648 142.418 17.032C141.842 17.4 141.554 17.872 141.554 18.448C141.554 19.088 141.818 19.584 142.346 19.936C142.874 20.272 143.498 20.44 144.218 20.44ZM157.751 22C155.223 22 153.959 20.592 153.959 17.776V11.44H152.087C151.927 11.44 151.791 11.392 151.679 11.296C151.583 11.184 151.535 11.048 151.535 10.888V10.072C151.535 9.912 151.583 9.784 151.679 9.688C151.791 9.576 151.927 9.52 152.087 9.52H153.959V5.512C153.959 5.352 154.007 5.224 154.103 5.128C154.215 5.016 154.351 4.96 154.511 4.96H155.639C155.799 4.96 155.927 5.016 156.023 5.128C156.135 5.224 156.191 5.352 156.191 5.512V9.52H159.167C159.327 9.52 159.455 9.576 159.551 9.688C159.663 9.784 159.719 9.912 159.719 10.072V10.888C159.719 11.048 159.663 11.184 159.551 11.296C159.455 11.392 159.327 11.44 159.167 11.44H156.191V17.608C156.191 18.408 156.327 19.016 156.599 19.432C156.871 19.832 157.319 20.032 157.943 20.032H159.407C159.567 20.032 159.695 20.088 159.791 20.2C159.903 20.296 159.959 20.424 159.959 20.584V21.448C159.959 21.608 159.903 21.744 159.791 21.856C159.695 21.952 159.567 22 159.407 22H157.751ZM162.134 7.192C161.974 7.192 161.838 7.144 161.726 7.048C161.63 6.936 161.582 6.8 161.582 6.64V5.344C161.582 5.184 161.63 5.048 161.726 4.936C161.838 4.824 161.974 4.768 162.134 4.768H163.646C163.806 4.768 163.942 4.824 164.054 4.936C164.166 5.048 164.222 5.184 164.222 5.344V6.64C164.222 6.8 164.166 6.936 164.054 7.048C163.942 7.144 163.806 7.192 163.646 7.192H162.134ZM162.326 22C162.166 22 162.03 21.952 161.918 21.856C161.822 21.744 161.774 21.608 161.774 21.448V10.072C161.774 9.912 161.822 9.784 161.918 9.688C162.03 9.576 162.166 9.52 162.326 9.52H163.478C163.638 9.52 163.766 9.576 163.862 9.688C163.974 9.784 164.03 9.912 164.03 10.072V21.448C164.03 21.608 163.974 21.744 163.862 21.856C163.766 21.952 163.638 22 163.478 22H162.326ZM172.218 22.24C170.458 22.24 169.09 21.744 168.114 20.752C167.154 19.76 166.642 18.44 166.578 16.792L166.554 15.76L166.578 14.728C166.642 13.096 167.162 11.784 168.138 10.792C169.114 9.784 170.474 9.28 172.218 9.28C173.962 9.28 175.322 9.784 176.298 10.792C177.274 11.784 177.794 13.096 177.858 14.728C177.874 14.904 177.882 15.248 177.882 15.76C177.882 16.272 177.874 16.616 177.858 16.792C177.794 18.44 177.274 19.76 176.298 20.752C175.338 21.744 173.978 22.24 172.218 22.24ZM172.218 20.392C173.226 20.392 174.018 20.072 174.594 19.432C175.186 18.792 175.506 17.872 175.554 16.672C175.57 16.512 175.578 16.208 175.578 15.76C175.578 15.312 175.57 15.008 175.554 14.848C175.506 13.648 175.186 12.728 174.594 12.088C174.018 11.448 173.226 11.128 172.218 11.128C171.21 11.128 170.41 11.448 169.818 12.088C169.226 12.728 168.914 13.648 168.882 14.848L168.858 15.76L168.882 16.672C168.914 17.872 169.226 18.792 169.818 19.432C170.41 20.072 171.21 20.392 172.218 20.392ZM180.96 22C180.8 22 180.664 21.952 180.552 21.856C180.456 21.744 180.408 21.608 180.408 21.448V10.072C180.408 9.912 180.456 9.784 180.552 9.688C180.664 9.576 180.8 9.52 180.96 9.52H182.088C182.248 9.52 182.376 9.576 182.472 9.688C182.584 9.784 182.64 9.912 182.64 10.072V11.128C183.104 10.536 183.648 10.08 184.272 9.76C184.912 9.44 185.704 9.28 186.648 9.28C188.184 9.28 189.376 9.776 190.224 10.768C191.088 11.744 191.52 13.048 191.52 14.68V21.448C191.52 21.608 191.464 21.744 191.352 21.856C191.256 21.952 191.128 22 190.968 22H189.768C189.608 22 189.472 21.952 189.36 21.856C189.264 21.744 189.216 21.608 189.216 21.448V14.8C189.216 13.664 188.936 12.784 188.376 12.16C187.832 11.536 187.04 11.224 186 11.224C184.992 11.224 184.192 11.544 183.6 12.184C183.008 12.808 182.712 13.68 182.712 14.8V21.448C182.712 21.608 182.656 21.744 182.544 21.856C182.448 21.952 182.32 22 182.16 22H180.96Z" fill="black"/>
</svg>
