<svg width="20" height="20" viewBox="0 0 20 20" fill="none" xmlns="http://www.w3.org/2000/svg">
<g clip-path="url(#clip0)">
<path d="M0.00176034 10.0022C0.0262361 10.4142 0.299548 10.7609 0.695239 10.8792L8.02163 13.0943L8.29087 18.1444C8.3031 18.3443 8.43772 18.5197 8.62945 18.585C8.68248 18.6054 8.73959 18.6135 8.79262 18.6135C8.93539 18.6135 9.07001 18.5564 9.16791 18.4463L11.7583 15.5786L15.4296 18.12C15.5928 18.2342 15.7845 18.2954 15.9844 18.2954C16.4454 18.2954 16.8451 17.969 16.943 17.5121L19.9903 1.9823C20.027 1.80282 19.9576 1.61517 19.8189 1.50095C19.6761 1.38265 19.4844 1.35409 19.3131 1.42344L0.589177 9.04355C0.209804 9.21488 -0.0227154 9.59017 0.00176034 10.0022ZM9.22094 16.8921L9.05369 13.7062L10.9302 15.0034L9.22094 16.8921ZM15.9681 17.2796L9.28621 12.6537L18.6563 3.58954L15.9681 17.2796ZM17.6283 3.18977L8.36429 12.152L1.04606 9.94099L17.6283 3.18977Z" fill="white"/>
</g>
<defs>
<clipPath id="clip0">
<rect width="20" height="20" fill="white"/>
</clipPath>
</defs>
</svg>
