<svg width="183" height="39" viewBox="0 0 183 39" fill="none" xmlns="http://www.w3.org/2000/svg">
<path d="M52.208 25C52.1013 25 52.0107 24.968 51.936 24.904C51.872 24.8293 51.84 24.7387 51.84 24.632V15.224H48.768C48.6613 15.224 48.5707 15.192 48.496 15.128C48.432 15.0533 48.4 14.9627 48.4 14.856V14.184C48.4 14.0773 48.432 13.9867 48.496 13.912C48.5707 13.8373 48.6613 13.8 48.768 13.8H56.48C56.5973 13.8 56.688 13.8373 56.752 13.912C56.8267 13.976 56.864 14.0667 56.864 14.184V14.856C56.864 14.9627 56.8267 15.0533 56.752 15.128C56.6773 15.192 56.5867 15.224 56.48 15.224H53.424V24.632C53.424 24.7387 53.3867 24.8293 53.312 24.904C53.2373 24.968 53.1467 25 53.04 25H52.208ZM60.2464 25.16C59.1477 25.16 58.2677 24.824 57.6064 24.152C56.9557 23.4693 56.5984 22.5413 56.5344 21.368L56.5184 20.824L56.5344 20.296C56.609 19.144 56.9717 18.2267 57.6224 17.544C58.2837 16.8613 59.153 16.52 60.2304 16.52C61.4144 16.52 62.3317 16.8987 62.9824 17.656C63.633 18.4027 63.9584 19.416 63.9584 20.696V20.968C63.9584 21.0747 63.921 21.1653 63.8464 21.24C63.7824 21.304 63.697 21.336 63.5904 21.336H58.0544V21.48C58.0864 22.1733 58.2944 22.7653 58.6784 23.256C59.073 23.736 59.5904 23.976 60.2304 23.976C60.721 23.976 61.121 23.88 61.4304 23.688C61.7504 23.4853 61.985 23.2773 62.1344 23.064C62.2304 22.936 62.2997 22.8613 62.3424 22.84C62.3957 22.808 62.4864 22.792 62.6144 22.792H63.3984C63.4944 22.792 63.5744 22.8187 63.6384 22.872C63.7024 22.9253 63.7344 23 63.7344 23.096C63.7344 23.3307 63.585 23.6133 63.2864 23.944C62.9984 24.2747 62.5877 24.5627 62.0544 24.808C61.5317 25.0427 60.929 25.16 60.2464 25.16ZM62.4384 20.232V20.184C62.4384 19.448 62.2357 18.8507 61.8304 18.392C61.4357 17.9227 60.9024 17.688 60.2304 17.688C59.5584 17.688 59.025 17.9227 58.6304 18.392C58.2464 18.8507 58.0544 19.448 58.0544 20.184V20.232H62.4384ZM68.1915 25.16C67.6688 25.16 67.1835 25.0533 66.7355 24.84C66.2875 24.6267 65.9302 24.3387 65.6635 23.976C65.4075 23.6027 65.2795 23.192 65.2795 22.744C65.2795 22.04 65.5675 21.464 66.1435 21.016C66.7302 20.5573 67.5195 20.2587 68.5115 20.12L70.8955 19.784V19.32C70.8955 18.232 70.2715 17.688 69.0235 17.688C68.5542 17.688 68.1702 17.7893 67.8715 17.992C67.5728 18.184 67.3488 18.4133 67.1995 18.68C67.1675 18.776 67.1248 18.8453 67.0715 18.888C67.0288 18.9307 66.9648 18.952 66.8795 18.952H66.1915C66.0955 18.952 66.0102 18.92 65.9355 18.856C65.8715 18.7813 65.8395 18.696 65.8395 18.6C65.8502 18.344 65.9675 18.056 66.1915 17.736C66.4262 17.4053 66.7835 17.1227 67.2635 16.888C67.7435 16.6427 68.3355 16.52 69.0395 16.52C70.2342 16.52 71.0928 16.8027 71.6155 17.368C72.1382 17.9227 72.3995 18.616 72.3995 19.448V24.632C72.3995 24.7387 72.3622 24.8293 72.2875 24.904C72.2235 24.968 72.1382 25 72.0315 25H71.2955C71.1888 25 71.0982 24.968 71.0235 24.904C70.9595 24.8293 70.9275 24.7387 70.9275 24.632V23.944C70.6928 24.2853 70.3515 24.5733 69.9035 24.808C69.4555 25.0427 68.8848 25.16 68.1915 25.16ZM68.5275 23.96C69.2208 23.96 69.7862 23.736 70.2235 23.288C70.6715 22.8293 70.8955 22.1733 70.8955 21.32V20.872L69.0395 21.144C68.2822 21.2507 67.7115 21.432 67.3275 21.688C66.9435 21.9333 66.7515 22.248 66.7515 22.632C66.7515 23.0587 66.9275 23.3893 67.2795 23.624C67.6315 23.848 68.0475 23.96 68.5275 23.96ZM75.0676 25C74.961 25 74.8703 24.968 74.7956 24.904C74.7316 24.8293 74.6996 24.7387 74.6996 24.632V17.048C74.6996 16.9413 74.7316 16.856 74.7956 16.792C74.8703 16.7173 74.961 16.68 75.0676 16.68H75.7876C75.8943 16.68 75.9796 16.7173 76.0436 16.792C76.1183 16.856 76.1556 16.9413 76.1556 17.048V17.608C76.7103 16.8827 77.4836 16.52 78.4756 16.52C79.6596 16.52 80.497 17.0107 80.9876 17.992C81.2436 17.544 81.6063 17.1867 82.0756 16.92C82.545 16.6533 83.073 16.52 83.6596 16.52C84.5343 16.52 85.249 16.8187 85.8036 17.416C86.3583 18.0133 86.6356 18.8773 86.6356 20.008V24.632C86.6356 24.7387 86.5983 24.8293 86.5236 24.904C86.4596 24.968 86.3743 25 86.2676 25H85.5156C85.409 25 85.3183 24.968 85.2436 24.904C85.1796 24.8293 85.1476 24.7387 85.1476 24.632V20.152C85.1476 19.32 84.9716 18.7227 84.6196 18.36C84.2783 17.9973 83.825 17.816 83.2596 17.816C82.7583 17.816 82.3263 18.0027 81.9636 18.376C81.601 18.7387 81.4196 19.3307 81.4196 20.152V24.632C81.4196 24.7387 81.3823 24.8293 81.3076 24.904C81.2436 24.968 81.1583 25 81.0516 25H80.2996C80.193 25 80.1023 24.968 80.0276 24.904C79.9636 24.8293 79.9316 24.7387 79.9316 24.632V20.152C79.9316 19.32 79.7503 18.7227 79.3876 18.36C79.0356 17.9973 78.5876 17.816 78.0436 17.816C77.5423 17.816 77.1103 18.0027 76.7476 18.376C76.385 18.7387 76.2036 19.3253 76.2036 20.136V24.632C76.2036 24.7387 76.1663 24.8293 76.0916 24.904C76.0276 24.968 75.9423 25 75.8356 25H75.0676ZM92.3264 28.52C91.4517 28.52 90.7477 28.3707 90.2144 28.072C89.681 27.784 89.3024 27.4533 89.0784 27.08C88.8544 26.7067 88.7317 26.3707 88.7104 26.072C88.6997 25.9653 88.7317 25.8747 88.8064 25.8C88.8917 25.7253 88.9824 25.688 89.0784 25.688H89.8464C89.9424 25.688 90.0224 25.7093 90.0864 25.752C90.1504 25.8053 90.2037 25.896 90.2464 26.024C90.3744 26.3653 90.5824 26.6587 90.8704 26.904C91.169 27.16 91.6277 27.288 92.2464 27.288C93.0357 27.288 93.617 27.1173 93.9904 26.776C94.3637 26.4453 94.5504 25.8533 94.5504 25V23.912C94.273 24.264 93.921 24.5467 93.4944 24.76C93.0677 24.9627 92.561 25.064 91.9744 25.064C90.8437 25.064 89.9957 24.7067 89.4304 23.992C88.8757 23.2667 88.5824 22.3493 88.5504 21.24L88.5344 20.792L88.5504 20.36C88.5824 19.2613 88.881 18.3493 89.4464 17.624C90.0117 16.888 90.8544 16.52 91.9744 16.52C93.0944 16.52 93.969 16.9307 94.5984 17.752V17.064C94.5984 16.9573 94.6304 16.8667 94.6944 16.792C94.769 16.7173 94.8597 16.68 94.9664 16.68H95.7024C95.809 16.68 95.8997 16.7173 95.9744 16.792C96.049 16.8667 96.0864 16.9573 96.0864 17.064V24.824C96.0864 27.288 94.833 28.52 92.3264 28.52ZM92.2944 23.784C93.0197 23.784 93.569 23.544 93.9424 23.064C94.3157 22.584 94.5184 22.0133 94.5504 21.352C94.561 21.256 94.5664 21.0693 94.5664 20.792C94.5664 20.5253 94.561 20.344 94.5504 20.248C94.5184 19.5867 94.3157 19.016 93.9424 18.536C93.5797 18.056 93.0304 17.816 92.2944 17.816C91.537 17.816 90.9877 18.0507 90.6464 18.52C90.305 18.9893 90.1184 19.608 90.0864 20.376L90.0704 20.792L90.0864 21.224C90.1184 21.9813 90.305 22.6 90.6464 23.08C90.9877 23.5493 91.537 23.784 92.2944 23.784ZM98.8333 25C98.7266 25 98.6359 24.968 98.5613 24.904C98.4973 24.8293 98.4653 24.7387 98.4653 24.632V17.064C98.4653 16.9573 98.4973 16.8667 98.5613 16.792C98.6359 16.7173 98.7266 16.68 98.8333 16.68H99.5693C99.6759 16.68 99.7666 16.7173 99.8413 16.792C99.9159 16.8667 99.9533 16.9573 99.9533 17.064V17.768C100.391 17.0427 101.137 16.68 102.193 16.68H102.817C102.924 16.68 103.009 16.7173 103.073 16.792C103.148 16.856 103.185 16.9413 103.185 17.048V17.704C103.185 17.8107 103.148 17.896 103.073 17.96C103.009 18.024 102.924 18.056 102.817 18.056H101.857C101.281 18.056 100.828 18.2267 100.497 18.568C100.167 18.8987 100.001 19.352 100.001 19.928V24.632C100.001 24.7387 99.9639 24.8293 99.8893 24.904C99.8146 24.968 99.7239 25 99.6173 25H98.8333ZM106.738 25.16C106.216 25.16 105.73 25.0533 105.282 24.84C104.834 24.6267 104.477 24.3387 104.21 23.976C103.954 23.6027 103.826 23.192 103.826 22.744C103.826 22.04 104.114 21.464 104.69 21.016C105.277 20.5573 106.066 20.2587 107.058 20.12L109.442 19.784V19.32C109.442 18.232 108.818 17.688 107.57 17.688C107.101 17.688 106.717 17.7893 106.418 17.992C106.12 18.184 105.896 18.4133 105.746 18.68C105.714 18.776 105.672 18.8453 105.618 18.888C105.576 18.9307 105.512 18.952 105.426 18.952H104.738C104.642 18.952 104.557 18.92 104.482 18.856C104.418 18.7813 104.386 18.696 104.386 18.6C104.397 18.344 104.514 18.056 104.738 17.736C104.973 17.4053 105.33 17.1227 105.81 16.888C106.29 16.6427 106.882 16.52 107.586 16.52C108.781 16.52 109.64 16.8027 110.162 17.368C110.685 17.9227 110.946 18.616 110.946 19.448V24.632C110.946 24.7387 110.909 24.8293 110.834 24.904C110.77 24.968 110.685 25 110.578 25H109.842C109.736 25 109.645 24.968 109.57 24.904C109.506 24.8293 109.474 24.7387 109.474 24.632V23.944C109.24 24.2853 108.898 24.5733 108.45 24.808C108.002 25.0427 107.432 25.16 106.738 25.16ZM107.074 23.96C107.768 23.96 108.333 23.736 108.77 23.288C109.218 22.8293 109.442 22.1733 109.442 21.32V20.872L107.586 21.144C106.829 21.2507 106.258 21.432 105.874 21.688C105.49 21.9333 105.298 22.248 105.298 22.632C105.298 23.0587 105.474 23.3893 105.826 23.624C106.178 23.848 106.594 23.96 107.074 23.96ZM116.607 25.16C115.465 25.16 114.569 24.84 113.919 24.2C113.279 23.5493 112.937 22.6427 112.895 21.48L112.879 20.84L112.895 20.2C112.937 19.0373 113.279 18.136 113.919 17.496C114.569 16.8453 115.465 16.52 116.607 16.52C117.375 16.52 118.025 16.6587 118.559 16.936C119.092 17.2133 119.487 17.5547 119.743 17.96C120.009 18.3653 120.153 18.7707 120.175 19.176C120.185 19.2827 120.153 19.368 120.079 19.432C120.004 19.496 119.913 19.528 119.807 19.528H119.039C118.932 19.528 118.852 19.5067 118.799 19.464C118.745 19.4213 118.692 19.336 118.639 19.208C118.457 18.696 118.201 18.3333 117.871 18.12C117.54 17.896 117.124 17.784 116.623 17.784C115.961 17.784 115.433 17.992 115.039 18.408C114.655 18.8133 114.447 19.4373 114.414 20.28L114.399 20.856L114.414 21.4C114.447 22.2533 114.655 22.8827 115.039 23.288C115.423 23.6933 115.951 23.896 116.623 23.896C117.124 23.896 117.54 23.7893 117.871 23.576C118.201 23.352 118.457 22.984 118.639 22.472C118.692 22.344 118.745 22.2587 118.799 22.216C118.852 22.1627 118.932 22.136 119.039 22.136H119.807C119.913 22.136 120.004 22.1733 120.079 22.248C120.153 22.312 120.185 22.3973 120.175 22.504C120.153 22.8987 120.009 23.304 119.743 23.72C119.487 24.1253 119.092 24.4667 118.559 24.744C118.036 25.0213 117.385 25.16 116.607 25.16ZM125.403 25.16C124.304 25.16 123.424 24.824 122.763 24.152C122.112 23.4693 121.755 22.5413 121.691 21.368L121.675 20.824L121.691 20.296C121.765 19.144 122.128 18.2267 122.779 17.544C123.44 16.8613 124.309 16.52 125.387 16.52C126.571 16.52 127.488 16.8987 128.139 17.656C128.789 18.4027 129.115 19.416 129.115 20.696V20.968C129.115 21.0747 129.077 21.1653 129.003 21.24C128.939 21.304 128.853 21.336 128.747 21.336H123.211V21.48C123.243 22.1733 123.451 22.7653 123.835 23.256C124.229 23.736 124.747 23.976 125.387 23.976C125.877 23.976 126.277 23.88 126.587 23.688C126.907 23.4853 127.141 23.2773 127.291 23.064C127.387 22.936 127.456 22.8613 127.499 22.84C127.552 22.808 127.643 22.792 127.771 22.792H128.555C128.651 22.792 128.731 22.8187 128.795 22.872C128.859 22.9253 128.891 23 128.891 23.096C128.891 23.3307 128.741 23.6133 128.443 23.944C128.155 24.2747 127.744 24.5627 127.211 24.808C126.688 25.0427 126.085 25.16 125.403 25.16ZM127.595 20.232V20.184C127.595 19.448 127.392 18.8507 126.987 18.392C126.592 17.9227 126.059 17.688 125.387 17.688C124.715 17.688 124.181 17.9227 123.787 18.392C123.403 18.8507 123.211 19.448 123.211 20.184V20.232H127.595ZM135.526 25C135.419 25 135.328 24.968 135.254 24.904C135.19 24.8293 135.158 24.7387 135.158 24.632V14.184C135.158 14.0667 135.19 13.976 135.254 13.912C135.328 13.8373 135.419 13.8 135.526 13.8H136.342C136.459 13.8 136.55 13.8373 136.614 13.912C136.688 13.976 136.726 14.0667 136.726 14.184V18.6H142.23V14.184C142.23 14.0667 142.262 13.976 142.326 13.912C142.4 13.8373 142.491 13.8 142.598 13.8H143.414C143.531 13.8 143.622 13.8373 143.686 13.912C143.76 13.976 143.798 14.0667 143.798 14.184V24.632C143.798 24.7387 143.76 24.8293 143.686 24.904C143.611 24.968 143.52 25 143.414 25H142.598C142.491 25 142.4 24.968 142.326 24.904C142.262 24.8293 142.23 24.7387 142.23 24.632V20.04H136.726V24.632C136.726 24.7387 136.688 24.8293 136.614 24.904C136.539 24.968 136.448 25 136.342 25H135.526ZM149.7 25.16C148.601 25.16 147.721 24.824 147.06 24.152C146.409 23.4693 146.052 22.5413 145.988 21.368L145.972 20.824L145.988 20.296C146.062 19.144 146.425 18.2267 147.076 17.544C147.737 16.8613 148.606 16.52 149.684 16.52C150.868 16.52 151.785 16.8987 152.436 17.656C153.086 18.4027 153.411 19.416 153.411 20.696V20.968C153.411 21.0747 153.374 21.1653 153.3 21.24C153.236 21.304 153.15 21.336 153.044 21.336H147.508V21.48C147.54 22.1733 147.748 22.7653 148.132 23.256C148.526 23.736 149.044 23.976 149.684 23.976C150.174 23.976 150.574 23.88 150.884 23.688C151.204 23.4853 151.438 23.2773 151.588 23.064C151.684 22.936 151.753 22.8613 151.796 22.84C151.849 22.808 151.94 22.792 152.068 22.792H152.852C152.948 22.792 153.028 22.8187 153.092 22.872C153.156 22.9253 153.188 23 153.188 23.096C153.188 23.3307 153.038 23.6133 152.74 23.944C152.452 24.2747 152.041 24.5627 151.508 24.808C150.985 25.0427 150.382 25.16 149.7 25.16ZM151.892 20.232V20.184C151.892 19.448 151.689 18.8507 151.284 18.392C150.889 17.9227 150.356 17.688 149.684 17.688C149.012 17.688 148.478 17.9227 148.084 18.392C147.7 18.8507 147.508 19.448 147.508 20.184V20.232H151.892ZM157.645 25.16C157.122 25.16 156.637 25.0533 156.189 24.84C155.741 24.6267 155.383 24.3387 155.117 23.976C154.861 23.6027 154.733 23.192 154.733 22.744C154.733 22.04 155.021 21.464 155.597 21.016C156.183 20.5573 156.973 20.2587 157.965 20.12L160.349 19.784V19.32C160.349 18.232 159.725 17.688 158.477 17.688C158.007 17.688 157.623 17.7893 157.325 17.992C157.026 18.184 156.802 18.4133 156.653 18.68C156.621 18.776 156.578 18.8453 156.525 18.888C156.482 18.9307 156.418 18.952 156.333 18.952H155.645C155.549 18.952 155.463 18.92 155.389 18.856C155.325 18.7813 155.293 18.696 155.293 18.6C155.303 18.344 155.421 18.056 155.645 17.736C155.879 17.4053 156.237 17.1227 156.717 16.888C157.197 16.6427 157.789 16.52 158.493 16.52C159.687 16.52 160.546 16.8027 161.069 17.368C161.591 17.9227 161.853 18.616 161.853 19.448V24.632C161.853 24.7387 161.815 24.8293 161.741 24.904C161.677 24.968 161.591 25 161.485 25H160.749C160.642 25 160.551 24.968 160.477 24.904C160.413 24.8293 160.381 24.7387 160.381 24.632V23.944C160.146 24.2853 159.805 24.5733 159.357 24.808C158.909 25.0427 158.338 25.16 157.645 25.16ZM157.981 23.96C158.674 23.96 159.239 23.736 159.677 23.288C160.125 22.8293 160.349 22.1733 160.349 21.32V20.872L158.493 21.144C157.735 21.2507 157.165 21.432 156.781 21.688C156.397 21.9333 156.205 22.248 156.205 22.632C156.205 23.0587 156.381 23.3893 156.733 23.624C157.085 23.848 157.501 23.96 157.981 23.96ZM164.537 25C164.43 25 164.339 24.968 164.265 24.904C164.201 24.8293 164.169 24.7387 164.169 24.632V14.008C164.169 13.9013 164.201 13.816 164.265 13.752C164.339 13.6773 164.43 13.64 164.537 13.64H165.289C165.395 13.64 165.481 13.6773 165.545 13.752C165.619 13.816 165.657 13.9013 165.657 14.008V24.632C165.657 24.7387 165.619 24.8293 165.545 24.904C165.481 24.968 165.395 25 165.289 25H164.537ZM171.291 25C169.606 25 168.763 24.0613 168.763 22.184V17.96H167.515C167.409 17.96 167.318 17.928 167.243 17.864C167.179 17.7893 167.147 17.6987 167.147 17.592V17.048C167.147 16.9413 167.179 16.856 167.243 16.792C167.318 16.7173 167.409 16.68 167.515 16.68H168.763V14.008C168.763 13.9013 168.795 13.816 168.859 13.752C168.934 13.6773 169.025 13.64 169.131 13.64H169.883C169.99 13.64 170.075 13.6773 170.139 13.752C170.214 13.816 170.251 13.9013 170.251 14.008V16.68H172.235C172.342 16.68 172.427 16.7173 172.491 16.792C172.566 16.856 172.603 16.9413 172.603 17.048V17.592C172.603 17.6987 172.566 17.7893 172.491 17.864C172.427 17.928 172.342 17.96 172.235 17.96H170.251V22.072C170.251 22.6053 170.342 23.0107 170.523 23.288C170.705 23.5547 171.003 23.688 171.419 23.688H172.395C172.502 23.688 172.587 23.7253 172.651 23.8C172.726 23.864 172.763 23.9493 172.763 24.056V24.632C172.763 24.7387 172.726 24.8293 172.651 24.904C172.587 24.968 172.502 25 172.395 25H171.291ZM174.677 25C174.571 25 174.48 24.968 174.405 24.904C174.341 24.8293 174.309 24.7387 174.309 24.632V14.008C174.309 13.9013 174.341 13.816 174.405 13.752C174.48 13.6773 174.571 13.64 174.677 13.64H175.477C175.584 13.64 175.669 13.6773 175.733 13.752C175.808 13.816 175.845 13.9013 175.845 14.008V17.736C176.155 17.3413 176.517 17.0427 176.933 16.84C177.349 16.6267 177.867 16.52 178.485 16.52C179.509 16.52 180.304 16.8507 180.869 17.512C181.445 18.1627 181.733 19.032 181.733 20.12V24.632C181.733 24.7387 181.696 24.8293 181.621 24.904C181.557 24.968 181.472 25 181.365 25H180.565C180.459 25 180.368 24.968 180.293 24.904C180.229 24.8293 180.197 24.7387 180.197 24.632V20.2C180.197 19.4427 180.011 18.856 179.637 18.44C179.275 18.024 178.747 17.816 178.053 17.816C177.381 17.816 176.843 18.0293 176.437 18.456C176.043 18.872 175.845 19.4533 175.845 20.2V24.632C175.845 24.7387 175.808 24.8293 175.733 24.904C175.669 24.968 175.584 25 175.477 25H174.677Z" fill="black"/>
<rect x="0.1" y="0.1" width="38.8" height="38.8" rx="3.9" fill="white"/>
<path d="M8 20.6504L9.30081 22.8862L14.6666 22.8862L20.8455 12.2358L26.252 12.2358L24.9512 10.0001L19.5447 10.0001L13.3658 20.6504L8 20.6504Z" fill="#562380"/>
<path d="M15.4797 24.187L10.0732 24.187L11.3333 26.4228L16.7398 26.4228L22.878 15.813L28.3251 15.813L27.0243 13.5366L21.6178 13.5366L21.5772 13.6179L15.4797 24.187Z" fill="#562380"/>
<path d="M17.5122 27.7236L12.1057 27.7236L13.3658 29.9593L18.813 29.9593L24.915 19.3496L30.3577 19.3496L29.0569 17.1139L23.6504 17.1139L17.5122 27.7236Z" fill="#562380"/>
<path d="M25.6829 20.6098L30.3577 20.6098L29.0569 22.9268L24.3414 22.9268L25.6829 20.6098Z" fill="#562380"/>
<path d="M23.6504 24.1464L28.2845 24.1464L27.0243 26.4634L22.3089 26.4634L23.6504 24.1464Z" fill="#562380"/>
<path d="M26.252 27.7236L21.5772 27.7236L20.2764 30L24.9512 30L26.252 27.7236Z" fill="#562380"/>
<path d="M13.4065 10.0001L18.0406 10.0001L16.7805 12.2765L12.1057 12.2765L13.4065 10.0001Z" fill="#562380"/>
<path d="M11.374 13.5366L16.0081 13.5366L14.7073 15.7724L10.0325 15.7724L11.374 13.5366Z" fill="#562380"/>
<path d="M9.34146 17.0732L14.0162 17.0732L12.6748 19.3496L8 19.3496L9.34146 17.0732Z" fill="#562380"/>
<path d="M8 20.6504L9.30081 22.8862L14.6666 22.8862L20.8455 12.2358L26.252 12.2358L24.9512 10.0001L19.5447 10.0001L13.3658 20.6504L8 20.6504Z" stroke="#562380" stroke-width="0.0813006"/>
<path d="M15.4797 24.187L10.0732 24.187L11.3333 26.4228L16.7398 26.4228L22.878 15.813L28.3251 15.813L27.0243 13.5366L21.6178 13.5366L21.5772 13.6179L15.4797 24.187Z" stroke="#562380" stroke-width="0.0813006"/>
<path d="M17.5122 27.7236L12.1057 27.7236L13.3658 29.9593L18.813 29.9593L24.915 19.3496L30.3577 19.3496L29.0569 17.1139L23.6504 17.1139L17.5122 27.7236Z" stroke="#562380" stroke-width="0.0813006"/>
<path d="M25.6829 20.6098L30.3577 20.6098L29.0569 22.9268L24.3414 22.9268L25.6829 20.6098Z" stroke="#562380" stroke-width="0.0813006"/>
<path d="M23.6504 24.1464L28.2845 24.1464L27.0243 26.4634L22.3089 26.4634L23.6504 24.1464Z" stroke="#562380" stroke-width="0.0813006"/>
<path d="M26.252 27.7236L21.5772 27.7236L20.2764 30L24.9512 30L26.252 27.7236Z" stroke="#562380" stroke-width="0.0813006"/>
<path d="M13.4065 10.0001L18.0406 10.0001L16.7805 12.2765L12.1057 12.2765L13.4065 10.0001Z" stroke="#562380" stroke-width="0.0813006"/>
<path d="M11.374 13.5366L16.0081 13.5366L14.7073 15.7724L10.0325 15.7724L11.374 13.5366Z" stroke="#562380" stroke-width="0.0813006"/>
<path d="M9.34146 17.0732L14.0162 17.0732L12.6748 19.3496L8 19.3496L9.34146 17.0732Z" stroke="#562380" stroke-width="0.0813006"/>
<rect x="0.1" y="0.1" width="38.8" height="38.8" rx="3.9" stroke="#6E7C90" stroke-width="0.2"/>
</svg>
