<svg width="85" height="39" viewBox="0 0 85 39" fill="none" xmlns="http://www.w3.org/2000/svg">
<path d="M52.752 25C52.6453 25 52.5547 24.968 52.48 24.904C52.416 24.8293 52.384 24.7387 52.384 24.632V20.856L48.528 14.328C48.528 14.3067 48.5227 14.2747 48.512 14.232C48.4907 14.1893 48.48 14.152 48.48 14.12C48.48 14.0347 48.512 13.96 48.576 13.896C48.64 13.832 48.7147 13.8 48.8 13.8H49.632C49.8133 13.8 49.952 13.8907 50.048 14.072L53.168 19.256L56.288 14.072C56.4053 13.8907 56.5493 13.8 56.72 13.8H57.536C57.632 13.8 57.712 13.832 57.776 13.896C57.84 13.96 57.872 14.0347 57.872 14.12C57.872 14.1733 57.8507 14.2427 57.808 14.328L53.968 20.856V24.632C53.968 24.7387 53.9307 24.8293 53.856 24.904C53.7813 24.968 53.6907 25 53.584 25H52.752ZM61.6076 25.16C60.4343 25.16 59.5223 24.8293 58.8716 24.168C58.2316 23.5067 57.8903 22.6267 57.8476 21.528L57.8316 20.84L57.8476 20.152C57.8903 19.064 58.237 18.1893 58.8876 17.528C59.5383 16.856 60.445 16.52 61.6076 16.52C62.7703 16.52 63.677 16.856 64.3276 17.528C64.9783 18.1893 65.325 19.064 65.3676 20.152C65.3783 20.2693 65.3836 20.4987 65.3836 20.84C65.3836 21.1813 65.3783 21.4107 65.3676 21.528C65.325 22.6267 64.9783 23.5067 64.3276 24.168C63.6876 24.8293 62.781 25.16 61.6076 25.16ZM61.6076 23.928C62.2796 23.928 62.8076 23.7147 63.1916 23.288C63.5863 22.8613 63.7996 22.248 63.8316 21.448C63.8423 21.3413 63.8476 21.1387 63.8476 20.84C63.8476 20.5413 63.8423 20.3387 63.8316 20.232C63.7996 19.432 63.5863 18.8187 63.1916 18.392C62.8076 17.9653 62.2796 17.752 61.6076 17.752C60.9356 17.752 60.4023 17.9653 60.0076 18.392C59.613 18.8187 59.405 19.432 59.3836 20.232L59.3676 20.84L59.3836 21.448C59.405 22.248 59.613 22.8613 60.0076 23.288C60.4023 23.7147 60.9356 23.928 61.6076 23.928ZM70.4271 25.16C69.3178 25.16 68.4805 24.7973 67.9151 24.072C67.3498 23.3467 67.0511 22.4293 67.0191 21.32L67.0031 20.84L67.0191 20.36C67.0511 19.2613 67.3498 18.3493 67.9151 17.624C68.4805 16.888 69.3178 16.52 70.4271 16.52C71.5258 16.52 72.3898 16.9093 73.0191 17.688V14.008C73.0191 13.9013 73.0511 13.816 73.1151 13.752C73.1898 13.6773 73.2805 13.64 73.3871 13.64H74.1551C74.2618 13.64 74.3471 13.6773 74.4111 13.752C74.4858 13.816 74.5231 13.9013 74.5231 14.008V24.632C74.5231 24.7387 74.4858 24.8293 74.4111 24.904C74.3471 24.968 74.2618 25 74.1551 25H73.4351C73.3285 25 73.2378 24.968 73.1631 24.904C73.0991 24.8293 73.0671 24.7387 73.0671 24.632V23.96C72.4485 24.76 71.5685 25.16 70.4271 25.16ZM70.7631 23.864C71.4991 23.864 72.0485 23.624 72.4111 23.144C72.7845 22.6533 72.9871 22.072 73.0191 21.4C73.0298 21.2827 73.0351 21.08 73.0351 20.792C73.0351 20.4933 73.0298 20.2853 73.0191 20.168C72.9978 19.5387 72.7951 18.9893 72.4111 18.52C72.0271 18.0507 71.4778 17.816 70.7631 17.816C70.0058 17.816 69.4511 18.0507 69.0991 18.52C68.7578 18.9893 68.5711 19.608 68.5391 20.376L68.5231 20.84C68.5231 22.856 69.2698 23.864 70.7631 23.864ZM79.2228 25.16C78.7001 25.16 78.2148 25.0533 77.7668 24.84C77.3188 24.6267 76.9614 24.3387 76.6948 23.976C76.4388 23.6027 76.3108 23.192 76.3108 22.744C76.3108 22.04 76.5988 21.464 77.1748 21.016C77.7614 20.5573 78.5508 20.2587 79.5428 20.12L81.9268 19.784V19.32C81.9268 18.232 81.3028 17.688 80.0548 17.688C79.5854 17.688 79.2014 17.7893 78.9028 17.992C78.6041 18.184 78.3801 18.4133 78.2308 18.68C78.1988 18.776 78.1561 18.8453 78.1028 18.888C78.0601 18.9307 77.9961 18.952 77.9108 18.952H77.2228C77.1268 18.952 77.0414 18.92 76.9668 18.856C76.9028 18.7813 76.8708 18.696 76.8708 18.6C76.8814 18.344 76.9988 18.056 77.2228 17.736C77.4574 17.4053 77.8148 17.1227 78.2948 16.888C78.7748 16.6427 79.3668 16.52 80.0708 16.52C81.2654 16.52 82.1241 16.8027 82.6468 17.368C83.1694 17.9227 83.4308 18.616 83.4308 19.448V24.632C83.4308 24.7387 83.3934 24.8293 83.3188 24.904C83.2548 24.968 83.1694 25 83.0628 25H82.3268C82.2201 25 82.1294 24.968 82.0548 24.904C81.9908 24.8293 81.9588 24.7387 81.9588 24.632V23.944C81.7241 24.2853 81.3828 24.5733 80.9348 24.808C80.4868 25.0427 79.9161 25.16 79.2228 25.16ZM79.5588 23.96C80.2521 23.96 80.8174 23.736 81.2548 23.288C81.7028 22.8293 81.9268 22.1733 81.9268 21.32V20.872L80.0708 21.144C79.3134 21.2507 78.7428 21.432 78.3588 21.688C77.9748 21.9333 77.7828 22.248 77.7828 22.632C77.7828 23.0587 77.9588 23.3893 78.3108 23.624C78.6628 23.848 79.0788 23.96 79.5588 23.96Z" fill="black"/>
<rect x="0.1" y="0.1" width="38.8" height="38.8" rx="3.9" fill="white"/>
<rect x="23.8696" y="21.5959" width="5.39702" height="16.5495" rx="2.69851" transform="rotate(145.239 23.8696 21.5959)" fill="#6548C3"/>
<rect width="5.39702" height="16.5495" rx="2.69851" transform="matrix(-0.821537 -0.570155 -0.570155 0.821537 30.219 11.0773)" fill="#FECBC5"/>
<path fill-rule="evenodd" clip-rule="evenodd" d="M22.4461 22.2793C22.9584 21.4012 22.9504 20.2693 22.3325 19.3791L20.111 16.1781L17.8895 19.379C17.2715 20.2695 17.2636 21.4016 17.7762 22.2798L17.8987 22.4562C18.4197 23.207 19.2534 23.6116 20.1028 23.6164C20.9578 23.6168 21.799 23.2118 22.3234 22.4562L22.4461 22.2793Z" fill="#441ACD"/>
<path d="M16.4981 27.6508C16.3304 28.2175 16.1552 28.7487 15.9725 29.2446C15.7898 29.7404 15.5903 30.2213 15.3741 30.6874C15.2958 30.8551 15.2175 30.9968 15.1392 31.1124C15.0609 31.2317 14.9752 31.3286 14.882 31.4032C14.7888 31.4815 14.6825 31.5374 14.5632 31.5709C14.4477 31.6082 14.3116 31.6268 14.155 31.6268C14.0245 31.6268 13.9034 31.6138 13.7915 31.5877C13.6834 31.5653 13.5939 31.5392 13.5231 31.5094L13.6685 30.8439C13.7542 30.8738 13.8307 30.8943 13.8978 30.9055C13.9649 30.9166 14.0357 30.9222 14.1103 30.9222C14.2594 30.9222 14.3731 30.8812 14.4514 30.7992C14.5334 30.7209 14.6024 30.6109 14.6583 30.4693C14.4682 30.0964 14.278 29.6789 14.0879 29.2166C13.8978 28.7506 13.7188 28.2286 13.551 27.6508H14.4346C14.4719 27.7962 14.5148 27.9546 14.5632 28.1261C14.6154 28.2939 14.6695 28.4654 14.7254 28.6406C14.7813 28.8121 14.8373 28.9799 14.8932 29.1439C14.9528 29.3079 15.0087 29.4571 15.0609 29.5913C15.1094 29.4571 15.1597 29.3079 15.2119 29.1439C15.2641 28.9799 15.3145 28.8121 15.3629 28.6406C15.4151 28.4654 15.4636 28.2939 15.5083 28.1261C15.5568 27.9546 15.5997 27.7962 15.6369 27.6508H16.4981ZM19.3401 29.1159C19.3401 29.3471 19.3066 29.5596 19.2395 29.7535C19.1724 29.9436 19.0754 30.1076 18.9487 30.2456C18.8219 30.3798 18.6691 30.4842 18.4901 30.5587C18.3149 30.6333 18.1173 30.6706 17.8973 30.6706C17.6811 30.6706 17.4835 30.6333 17.3046 30.5587C17.1293 30.4842 16.9784 30.3798 16.8516 30.2456C16.7248 30.1076 16.626 29.9436 16.5552 29.7535C16.4844 29.5596 16.449 29.3471 16.449 29.1159C16.449 28.8848 16.4844 28.6741 16.5552 28.484C16.6298 28.2939 16.7304 28.1317 16.8572 27.9975C16.9877 27.8633 17.1405 27.7589 17.3157 27.6843C17.4947 27.6098 17.6886 27.5725 17.8973 27.5725C18.1098 27.5725 18.3037 27.6098 18.4789 27.6843C18.6579 27.7589 18.8107 27.8633 18.9375 27.9975C19.0643 28.1317 19.163 28.2939 19.2339 28.484C19.3047 28.6741 19.3401 28.8848 19.3401 29.1159ZM18.4901 29.1159C18.4901 28.8587 18.4379 28.6574 18.3335 28.512C18.2329 28.3628 18.0875 28.2883 17.8973 28.2883C17.7072 28.2883 17.5599 28.3628 17.4556 28.512C17.3512 28.6574 17.299 28.8587 17.299 29.1159C17.299 29.3732 17.3512 29.5782 17.4556 29.7311C17.5599 29.8802 17.7072 29.9548 17.8973 29.9548C18.0875 29.9548 18.2329 29.8802 18.3335 29.7311C18.4379 29.5782 18.4901 29.3732 18.4901 29.1159ZM20.4162 29.0992C20.4162 29.3564 20.474 29.5633 20.5896 29.7199C20.7051 29.8765 20.8766 29.9548 21.104 29.9548C21.1786 29.9548 21.2476 29.9529 21.311 29.9492C21.3743 29.9417 21.4265 29.9343 21.4675 29.9268V28.4113C21.4153 28.3778 21.3464 28.3498 21.2606 28.3274C21.1786 28.3051 21.0947 28.2939 21.009 28.2939C20.6138 28.2939 20.4162 28.5623 20.4162 29.0992ZM22.3008 30.4972C22.2262 30.5196 22.1405 30.542 22.0435 30.5643C21.9466 30.583 21.8441 30.5997 21.736 30.6147C21.6316 30.6296 21.5235 30.6408 21.4116 30.6482C21.3035 30.6594 21.1991 30.665 21.0985 30.665C20.8561 30.665 20.6399 30.6296 20.4498 30.5587C20.2596 30.4879 20.0993 30.3872 19.9688 30.2568C19.8383 30.1225 19.7377 29.9622 19.6668 29.7758C19.5997 29.5857 19.5662 29.3732 19.5662 29.1383C19.5662 28.8997 19.596 28.6853 19.6557 28.4952C19.7153 28.3013 19.8011 28.1373 19.9129 28.0031C20.0247 27.8689 20.1608 27.7663 20.3211 27.6955C20.4852 27.6247 20.6716 27.5893 20.8804 27.5893C20.9959 27.5893 21.0985 27.6004 21.1879 27.6228C21.2811 27.6452 21.3743 27.6769 21.4675 27.7179V26.3869L22.3008 26.2527V30.4972ZM23.9254 30.0107C24.0074 30.0107 24.0857 30.0088 24.1603 30.0051C24.2349 30.0014 24.2945 29.9958 24.3392 29.9883V29.3564C24.3057 29.3489 24.2554 29.3415 24.1883 29.334C24.1211 29.3266 24.0596 29.3228 24.0037 29.3228C23.9254 29.3228 23.8509 29.3284 23.78 29.3396C23.7129 29.3471 23.6533 29.3639 23.6011 29.39C23.5489 29.4161 23.5079 29.4515 23.478 29.4962C23.4482 29.5409 23.4333 29.5969 23.4333 29.664C23.4333 29.7945 23.4762 29.8858 23.5619 29.938C23.6514 29.9865 23.7726 30.0107 23.9254 30.0107ZM23.8583 27.5725C24.1044 27.5725 24.3094 27.6004 24.4735 27.6564C24.6375 27.7123 24.768 27.7924 24.8649 27.8968C24.9656 28.0012 25.0364 28.128 25.0774 28.2771C25.1184 28.4262 25.1389 28.5921 25.1389 28.7748V30.5084C25.0196 30.5345 24.8537 30.5643 24.6412 30.5979C24.4287 30.6352 24.1715 30.6538 23.8695 30.6538C23.6794 30.6538 23.506 30.637 23.3494 30.6035C23.1966 30.5699 23.0642 30.5159 22.9524 30.4413C22.8405 30.363 22.7548 30.2623 22.6951 30.1393C22.6355 30.0163 22.6057 29.8653 22.6057 29.6863C22.6057 29.5148 22.6392 29.3695 22.7063 29.2501C22.7771 29.1308 22.8703 29.0358 22.9859 28.9649C23.1015 28.8941 23.2338 28.8438 23.383 28.814C23.5321 28.7804 23.6868 28.7636 23.8471 28.7636C23.9552 28.7636 24.0503 28.7692 24.1323 28.7804C24.2181 28.7879 24.287 28.799 24.3392 28.814V28.7357C24.3392 28.594 24.2964 28.4803 24.2106 28.3945C24.1249 28.3088 23.9757 28.2659 23.7632 28.2659C23.6216 28.2659 23.4818 28.2771 23.3438 28.2995C23.2059 28.3181 23.0866 28.3461 22.9859 28.3834L22.8797 27.7123C22.9281 27.6974 22.9878 27.6825 23.0586 27.6675C23.1332 27.6489 23.2133 27.634 23.2991 27.6228C23.3848 27.6079 23.4743 27.5967 23.5675 27.5893C23.6644 27.5781 23.7614 27.5725 23.8583 27.5725ZM26.4293 30.1505C26.4293 30.3183 26.3752 30.4469 26.2671 30.5364C26.1627 30.6221 26.0434 30.665 25.9092 30.665C25.775 30.665 25.6538 30.6221 25.5457 30.5364C25.4413 30.4469 25.3891 30.3183 25.3891 30.1505C25.3891 29.9827 25.4413 29.856 25.5457 29.7702C25.6538 29.6808 25.775 29.636 25.9092 29.636C26.0434 29.636 26.1627 29.6808 26.2671 29.7702C26.3752 29.856 26.4293 29.9827 26.4293 30.1505Z" fill="black"/>
<rect x="0.1" y="0.1" width="38.8" height="38.8" rx="3.9" stroke="#6E7C90" stroke-width="0.2"/>
</svg>
